<mxfile host="app.diagrams.net" agent="Mozilla/5.0 (Windows NT 10.0; Win64; x64) AppleWebKit/537.36 (KHTML, like Gecko) Chrome/136.0.0.0 Safari/537.36" version="26.0.6">
  <diagram name="Страница — 1" id="Bcs0xoqGT86n1lv6A-YU">
    <mxGraphModel dx="992" dy="520" grid="1" gridSize="10" guides="1" tooltips="1" connect="1" arrows="1" fold="1" page="1" pageScale="1" pageWidth="827" pageHeight="1169" math="0" shadow="0">
      <root>
        <mxCell id="0" />
        <mxCell id="1" parent="0" />
        <mxCell id="MEudCkV0uJRsMIh7Kl0K-44" value="" style="rounded=0;whiteSpace=wrap;html=1;" vertex="1" parent="1">
          <mxGeometry x="40" y="70" width="780" height="440" as="geometry" />
        </mxCell>
        <mxCell id="MEudCkV0uJRsMIh7Kl0K-1" value="" style="rounded=0;whiteSpace=wrap;html=1;" vertex="1" parent="1">
          <mxGeometry x="295" y="130" width="490" height="350" as="geometry" />
        </mxCell>
        <mxCell id="MEudCkV0uJRsMIh7Kl0K-3" value="Docker Compose" style="text;html=1;align=center;verticalAlign=middle;whiteSpace=wrap;rounded=0;" vertex="1" parent="1">
          <mxGeometry x="460" y="130" width="160" height="30" as="geometry" />
        </mxCell>
        <mxCell id="MEudCkV0uJRsMIh7Kl0K-4" value="" style="shape=image;imageAspect=0;aspect=fixed;verticalLabelPosition=bottom;verticalAlign=top;image=data:image/png,iVBORw0KGgoAAAANSUhEUgAAADAAAAAwCAYAAABXAvmHAAAACXBIWXMAAAsTAAALEwEAmpwYAAAHHElEQVR4nO2Xa2xbZxnHPSQkBEhMfICJT3yYhIaGaOs0jh3bx5dzs8/xOT62j318j2N3azt1K13VVisbCG0aqtgYZZA0bUPapl3bNL3QdVeEdkFVYRQoZWgINUmblUXaRtqsdWBs/NF74mOO3c520nUtyI/0fv/9nvN/n/c5Fku72tWudv1fVSiR+W1Iy0JMZCDG0xDUFIKxFAKxJPhI/ITlZi9Jy+IjBaIaLDd7hSrw6SNlpMg5XEbycFmH5yOJtsB1LyM65u5r5AtEEuCU/4EvIN5sArFc8aSaL0HNFRHLFRHN9iKSKUBJ9yBMTioPOZlD9fJe5eIa8KwS/+QF4j3LYBZoCP8Rk+eGCqgV+OKxWfQ+PYvC07PoOTpbFcj9vIxs5WSOlKvwRnQSh+YOgWfC6o0X6DlaEah03wyfvikFcnPRMXe/mQCJjhk+fqisw9NycwGGyXzOwYonHIxwsosN3X5dBPJHZ6vZN8OTyWNkf6EC3ay4oZsT0c2KsDPCWzaK+2pLoPGeZb9L9t6NROEu1F/cppOn7vLWX1wD3i/F4Jei8IUi8IoReAQFlBAGFZCOGxxOVvgTgXdGS7DTQXTRgd9YrdZPNxUg8FrhrpYE5jt56gVq4IMy3AFZ/zJdLPvFbk740BmMILhzCt3RXiJAzvKWBZY9M4vSsVn90pJjwBvZJ/Ehk8cQMMeHPFxzW2eiGh314Nwx4COjZUQOlKEcKCN8oFwj4GQkG4mPK7kKwX2XQT/yPGz+ADr9gVMdFK91ejh5KUXddlUBo/utCJDcN1vaGgkY8PJIWYd38ZIuYGckN4kPlb1fF+B3TM0J+Hh0ejks9bLo8LD/trrpk4tcvmJNtMwCBjy5uEZ0zN1vJkCiY4aPjZar2Td3X64TcHHiEiLg0u5BYN9lBPZehiO9FrZQFvb8t9GVWYcOJowlbhpL3H4scvmqd8diZN/c/UYCzXaeRgIGvDxS1uGdXEgXcHBiycEIcOXW6wL8nhn4t07C2z8Gb98YPH1jcG/+MzpCOSx2+bHI6fu9Pn3qL+9CJo/58rY0eSrZd1UEjNFJBPwPPwN+90X4Bs7WwLsefQUdcq/R/fOLu6jbSeffn+/oXMjkqRe4GrwrUoDvwf3ghqfh3zIOb98ZuDcdh2v9bti0b8HqYSvxod/4hsP7NSP7F4hA6ciFanzqX11zdOofLnN8jIfLHJ0omTp1k8eIjzRSRmh/GWLlCCQ2uy+ArsA7kvcZFxdWisFit//yYjf96Ncp6vPV7Kv54t9I93v3T9Zkv5FAI/h4iwKN4P1bxuBat6syebiZDg89YqW45d+kqFuvfIHzpdeIQM/Q6arAtXTfEJhv9wMEfmAc9JYxeH90CjZO0bvf6WNiDR+waK7wFMl+7olnW47PtXZfrocfnq7C+/v/Cru2Wu++lWIONH2BI5nCOiKQfLDvipWZwKe2/xFKaQ205WuQ+emrLcen1e4Hht8BQ+AHxnQB54pN+sPV4WHP32nzfbmpgJLpvZNMHrW0Cr1HL13R/cjKjfrkefbFX2LH3lGkD13SBa6l+0RAJJkfmqqBd90/qMMv9XJlq4exNYWvxihbPENGZ67/eM3KTKKjrHhAn/tyMg8pXUKKCLQQn0bwwp5pcNvPgR0Yrwq41w5W1gbuw6VeLm6ZT0nJ/EYy99V7v4eewzM1AqnB05BLayDlV0Ld/HI1PguaPHtnEBx6C9zW8f/CbzkD96rNc/Be7oNOH1+0zLdkOX9rJFN4hzxcycefQ3b03QVNnhoBE3xo7wUIO6fAbxvX4Q0B/49Pw5lZq6/MNj//TzvDq/OGr34FLXMveXWVnruhbT2F1J7zyIxOI3vk6gLNuq/sn4G0+20IQ28iuG0cgW3jNQK+h5+DQ0rp8J1efqrTG/BZrrFukVL5Y2RtUIqrkdh2GtrwOSSGJ6E9NQVt5F1ooxehHbyExCFyyogfvAR19D3ERmYQ3TcNZc/bkIenEBqahLB9Qj/18MwPX4O7sFHfeex0kETnJQdNf8XycRStql+QtOxJsvPI+RWIPfYCEsPnEN91Duqus4jtnDvRHWehkDN0FuGhCcg/m4BUOaHBCYiDE1cIsI8fh/eeH6A7EJ7736WDF+0+fr3F8p1PWT7OIvchpGV/YWyc8sqHENn8K8R2TFThIy0KBPpeB/PQCDzp+6pLm4MV/2WnhX47w3zJch3rFlFNbxAS6feMrVPMrYS0oR/y948h/OSvIW/9C+TtZyAPjiM08AbEn/wBwcdeAv/dUbCrn4A3sxoe09bp4kJ/d7ChJ2108A7LJ1VBVb2NV1ObArHk5EJWZicn/cPFyy86OTFLUdRnLDeymKhm48PxR1glfphR4q8z4dg0LUXf94eiH/jE6LRXVN70CsoJSpD3uQX5AXdAYURR/OwNhW5Xu9rVLsv1rv8Ah4T9SQ0ReXkAAAAASUVORK5CYII=;" vertex="1" parent="1">
          <mxGeometry x="733" y="426" width="48" height="48" as="geometry" />
        </mxCell>
        <mxCell id="MEudCkV0uJRsMIh7Kl0K-5" value="Ai&lt;span style=&quot;background-color: transparent; color: light-dark(rgb(0, 0, 0), rgb(255, 255, 255));&quot;&gt;rflow&lt;/span&gt;" style="rounded=0;whiteSpace=wrap;html=1;" vertex="1" parent="1">
          <mxGeometry x="320" y="400" width="370" height="50" as="geometry" />
        </mxCell>
        <mxCell id="MEudCkV0uJRsMIh7Kl0K-6" value="" style="rounded=0;whiteSpace=wrap;html=1;" vertex="1" parent="1">
          <mxGeometry x="320" y="160" width="430" height="90" as="geometry" />
        </mxCell>
        <mxCell id="MEudCkV0uJRsMIh7Kl0K-7" value="DBT" style="rounded=0;whiteSpace=wrap;html=1;" vertex="1" parent="1">
          <mxGeometry x="570" y="290" width="120" height="60" as="geometry" />
        </mxCell>
        <mxCell id="MEudCkV0uJRsMIh7Kl0K-8" value="" style="rounded=0;whiteSpace=wrap;html=1;" vertex="1" parent="1">
          <mxGeometry x="72.5" y="130" width="170" height="150" as="geometry" />
        </mxCell>
        <mxCell id="MEudCkV0uJRsMIh7Kl0K-9" value="Yandex Object Storage" style="text;html=1;align=center;verticalAlign=middle;whiteSpace=wrap;rounded=0;" vertex="1" parent="1">
          <mxGeometry x="92.5" y="130" width="130" height="30" as="geometry" />
        </mxCell>
        <mxCell id="MEudCkV0uJRsMIh7Kl0K-10" value="Bucket" style="rounded=0;whiteSpace=wrap;html=1;" vertex="1" parent="1">
          <mxGeometry x="97.5" y="180" width="120" height="30" as="geometry" />
        </mxCell>
        <mxCell id="MEudCkV0uJRsMIh7Kl0K-11" value="" style="rounded=0;whiteSpace=wrap;html=1;" vertex="1" parent="1">
          <mxGeometry x="70" y="360" width="170" height="120" as="geometry" />
        </mxCell>
        <mxCell id="MEudCkV0uJRsMIh7Kl0K-12" value="External API" style="text;html=1;align=center;verticalAlign=middle;whiteSpace=wrap;rounded=0;" vertex="1" parent="1">
          <mxGeometry x="102.5" y="360" width="105" height="30" as="geometry" />
        </mxCell>
        <mxCell id="MEudCkV0uJRsMIh7Kl0K-13" value="AbuseIPDB API" style="rounded=0;whiteSpace=wrap;html=1;" vertex="1" parent="1">
          <mxGeometry x="95" y="410" width="125" height="30" as="geometry" />
        </mxCell>
        <mxCell id="MEudCkV0uJRsMIh7Kl0K-14" value="" style="rounded=0;whiteSpace=wrap;html=1;" vertex="1" parent="1">
          <mxGeometry x="344" y="290" width="140" height="90" as="geometry" />
        </mxCell>
        <mxCell id="MEudCkV0uJRsMIh7Kl0K-15" value="Docker Volume" style="rounded=0;whiteSpace=wrap;html=1;" vertex="1" parent="1">
          <mxGeometry x="354" y="325" width="120" height="35" as="geometry" />
        </mxCell>
        <mxCell id="MEudCkV0uJRsMIh7Kl0K-16" value="Shared Storage" style="text;html=1;align=center;verticalAlign=middle;whiteSpace=wrap;rounded=0;" vertex="1" parent="1">
          <mxGeometry x="364" y="290" width="110" height="30" as="geometry" />
        </mxCell>
        <mxCell id="MEudCkV0uJRsMIh7Kl0K-17" value="DWH PostgreSQL" style="text;html=1;align=center;verticalAlign=middle;whiteSpace=wrap;rounded=0;" vertex="1" parent="1">
          <mxGeometry x="480" y="160" width="120" height="30" as="geometry" />
        </mxCell>
        <mxCell id="MEudCkV0uJRsMIh7Kl0K-18" value="Straging Layer" style="rounded=0;whiteSpace=wrap;html=1;" vertex="1" parent="1">
          <mxGeometry x="370" y="200" width="60" height="40" as="geometry" />
        </mxCell>
        <mxCell id="MEudCkV0uJRsMIh7Kl0K-37" style="edgeStyle=orthogonalEdgeStyle;rounded=0;orthogonalLoop=1;jettySize=auto;html=1;entryX=0;entryY=0.5;entryDx=0;entryDy=0;" edge="1" parent="1" source="MEudCkV0uJRsMIh7Kl0K-19" target="MEudCkV0uJRsMIh7Kl0K-20">
          <mxGeometry relative="1" as="geometry" />
        </mxCell>
        <mxCell id="MEudCkV0uJRsMIh7Kl0K-38" value="dbt" style="edgeLabel;html=1;align=center;verticalAlign=middle;resizable=0;points=[];" vertex="1" connectable="0" parent="MEudCkV0uJRsMIh7Kl0K-37">
          <mxGeometry x="-0.0522" relative="1" as="geometry">
            <mxPoint as="offset" />
          </mxGeometry>
        </mxCell>
        <mxCell id="MEudCkV0uJRsMIh7Kl0K-19" value="DDS Layer" style="rounded=0;whiteSpace=wrap;html=1;" vertex="1" parent="1">
          <mxGeometry x="505" y="200" width="60" height="40" as="geometry" />
        </mxCell>
        <mxCell id="MEudCkV0uJRsMIh7Kl0K-20" value="DM &lt;br&gt;Layer" style="rounded=0;whiteSpace=wrap;html=1;" vertex="1" parent="1">
          <mxGeometry x="630" y="200" width="60" height="40" as="geometry" />
        </mxCell>
        <mxCell id="MEudCkV0uJRsMIh7Kl0K-21" value="" style="endArrow=classic;html=1;rounded=0;entryX=1;entryY=0.5;entryDx=0;entryDy=0;exitX=0;exitY=0.5;exitDx=0;exitDy=0;" edge="1" parent="1" source="MEudCkV0uJRsMIh7Kl0K-5" target="MEudCkV0uJRsMIh7Kl0K-13">
          <mxGeometry width="50" height="50" relative="1" as="geometry">
            <mxPoint x="390" y="360" as="sourcePoint" />
            <mxPoint x="440" y="310" as="targetPoint" />
          </mxGeometry>
        </mxCell>
        <mxCell id="MEudCkV0uJRsMIh7Kl0K-22" value="HTTP" style="edgeLabel;html=1;align=center;verticalAlign=middle;resizable=0;points=[];" vertex="1" connectable="0" parent="MEudCkV0uJRsMIh7Kl0K-21">
          <mxGeometry x="0.4163" y="-2" relative="1" as="geometry">
            <mxPoint x="21" y="3" as="offset" />
          </mxGeometry>
        </mxCell>
        <mxCell id="MEudCkV0uJRsMIh7Kl0K-23" value="" style="shape=image;imageAspect=0;aspect=fixed;verticalLabelPosition=bottom;verticalAlign=top;image=data:image/png,iVBORw0KGgoAAAANSUhEUgAAADAAAAAwCAYAAABXAvmHAAAACXBIWXMAAAsTAAALEwEAmpwYAAALbElEQVR4nM2aB1CUZxrHH9t4STzPZMyYSZwkd8mYeCpEQowGDzXWGD3rRBFiJAJWCIqRGFGsiAhLkyosTZAWWJAmTQi9CgLS9QwcYwlGVIpS/jfv6y7Zhd3lY7y78My8M/jtt/s9v/d7+ivR0DKBiNYQ0TEiEhHRSSIyI6J/ENFYFd+ZTES7icifiBKISEJE54nIlIi+JqIdRORLREVEdJuInhDRUyJqIqJ8IroovWcKvYAcJKIWIuojIowfPx6TJk3CSy+9BPZvufUbEaUSkQERbSSiW+z6qFGjMHXqVGhoaGDGjBmYMmVK/3fefPNNbNy4ESdPnoSvry+ioqL48vHxgY2NDTZv3ozXX3+d3dtDRBFEpDkcxf9ORK1jxoyBoaEhUlNT0dDQgJs3b/avW7duoba2FmlpafyBmpqa/cotX74cycnJCvfLr5qaGvT29qK7uwf5lTfhJcmCTUAiTonj4Xc5B1dLavGsuwc9PT2Ij4/HggULZCAORPSnoZRfTETdc+bM4Q+qqauHja8E6753xZK9Dth2KhCGNkEwdwqHjV8cLiVmo7yyhitWX1+PwsJC/rd7eDLWH3TDvO2noWVwHB9vPY75xmew7qAbTvjE4HF7J+4/fAJjmwDM2myFmZsOKyx2bZmZI2KyysEkLCwMkydPZiDZUvNUaetPVqxYwZWwFUugqW/9+4/qHYGWkcOgpW0iwq5zl9DQ2Iik7GLM224zSKGBS2e3E0ThGfjtcQfK6powV8V3PvrGBrsdI9Hyaxu3gg8++IBBXCeivygDyGB22tjYiB9cQjFzk+LOqAKYs8MRqbmliEzOhYbe0SGVZ0truz3/7ufm7kgrqcOz7m58ud9FKQC7b8k+D1TcbEFzczPefvttBhE9UPk/E1FvcHAwYtPzMFPZa1UBcEoch2uVNZhtcEyQ8vIAWkYO+NjYAf6Jhejt7cNKc2elAGwtNHND479/RWZmpszfFsoDOL7yyivcdP5pofgj6gDm7XJCWWUNvj3lJ1j5gQBa0hWSWoL2zqeY++1ppQBsmTpFcZ+YPn06A3CWByhfs2YNGhoaMUvPSjDAYc9olFXV8M9eFEDbWITcylsorrnd79gDAebtcuYAq1evZgCJ8gBtLBxy81HxUGUAkrR8HHKLGJbyqgC0jByw4oAX2to7sdsuRCkAWx1dz7Bt2zYGkCUP0BsdHc1DplCAT3c68TC7zFT0XwPQMnKAY0Qm2p50QHPL0UEAzF9YjtiyZQsDSJYH6EtMTISVW7hggK0nA7nPaAzTfIYC+Gy3M1rb2mF8JnAQwMLv3LgJLVq0iAEEyQMgJSUFh1zDBANYe8cgu/j67w6nb435xrbQMTqjNDmpA5izwxHmrtE4H5UN79g83PjXHWSXNwwC0DsRxAE+/PBDBmCv8AYSEhJw3CtKMMD5sBREXsnBVz96IiY9X6FcKCirwKKddoIA1v4oRtO939DX18cTVn3zfTx41MEz9UCAEwHJePz4MViZQ0Tb5AG63N3dERB7VTCAOCaDK1taUY0dNn5Y/p0TNhz24aWGWJLBc4OmisQmD1BS24S4nOtYZeEK54ir2HDED/ahV1Fa+8sggMiMcvk8MEMe4K6pqSmuVdwYlIFVAQTG/YyQ+Mx+H9AwOIGkrGIOdcwnltdIrPZRB7DQzA19fcCCnXbQt/ZFRmk9vvjeGwFJRUjIrRgEwBKZnZ0dU/4xEY2RB8jV1tbmD9dSkVEHAvhEX4WtOKb/cwaw6Lvz2GMfyhPcTyl5sHQNVwvwxUFvbtM6xrb8+mzDs/x6Qv4NuP2UoQCw+pAPv1dXV5cBxA4sJc6NGzeOl8lL9tgL84HwFLiEJCgAyH/uFHIF/jEZagE+3emE7p5efLnPRQGg4MZtWLpFKQAws2ptbcXYsWMhbXYURJfZVUVFBYxPiQUDOAerBmBZOiW3ZEgfuFbfjNP+CQoA7No+p3AFgPKGFgQFBUHaYE0dCDCaJTN/f3/4S9IFAXhGpsE+8LJKADNRGHfkoQDOhqTh/oNHvICUAWSVN3I/kgGssxJzX1m8eDEDyCAV8ouenh7qGhqU1kMDAVgzI583BgE4hqG4vGpIgKUWnjy7rrZw7Qe4nFul4AOBSUXcP0ePHs0ADFUBXHrttdf4jbomtkMCxGcWweS0n0oAK08Jb3CEJDJJVgVyyhuh9e1zAL+EAsRlP49COntceONjZWUliz6s9Fcqq5kfVFVVKSimCiCjoAz6R7xUAlyIvgqHoHhBAOusxLwf+MEr7nkAiMjkVSkDYM7b3t4ua/KdVCkv84MeNzc3JGQWDNmRxWUUqnwDrDRmfQLri4UAaBk5IDanEs33HvLI5BGTg6zyenxsaIs7Dx5BJBLJGvu/0RBSzhp6ZkbaW4+rBXANS0ZYUnY/qDyAydlg3ltobrEWDLDyoDeedvfgzMVUXCmsgZckE8ZnLqKrqwtvvfUWAwgjAWLB5jlswqBv5aUW4KsjYjQ23oSOsc0gAJbEHIJ+D7FCALRYYEgt5Tv+qL0LRqcD0NB8D46OjrLdny4EYDyLswEBAQhPylIwI2UNTcDlTKTnl/JKVAaw2NyNTyg+33Vu2ADLLDx5W9na9gTWF2Jx9+5dPkwjIi8ahtTOmjWLm5H8iEQZwGe7nJCSU4qC0gq+Y4vMzj9vM1n8V1NSq+sHrMVJ3KE7nz6DkZGRrHDzIKIL0gkgG0WGqhs77mRfKioqwqkL0WoBluxzR2FZFerq6vpLaWZWOSUV2O8UCq2vjw0b4Kg4EZ1Pu9HZ2YlVq1bx2n/27Nn87wMHDuDs2bN47733lNZD8tJlYGDAk9pHBtZKAXT2OCM97xqqq6vx6quv8le9fv16DnGtshppuaU8EzPzEgpg6XmZ7z4bMwYn5WOgMN9gIvWLB+oAfFjTwHb2B2m2lQf4xESEqNQ8PgR79913IRv+SiQS3Kipw/rDPrzLKrhWCcOTYsEAaSV1cApL7b/vsx320DseyHuEXQ4RqGu6hzt37mDatGnsmT+rA2BjxmebNm3i4ZBlZnkAVkqznV65ciX279/P21EGU3r9BrbbXOz3D2Ze5qJLggFKapsQkV7C57DzTWxhZBsCd0kOL+R6+/p4MyMdL7YR0cyhnNmK7SwbexeVVWGp6XOz8YhM42U3m1yzcFteUc19Zc0BF2hsPoLZ2+2hu9cVkvQCDrn3XLBggOb7D9HR0dFvMmyK3dTUBD8/P+4DLMSzXEVEH5FAyWd9AjMN+Z53w4YNYJM8tuuS1FxstfbGCjMRlps64NzFRJRX1XDzY4A7bQMFAWibiHhvoK+vj4kTJ/IzBGntL1tVRGQysBMbStgJTDX7gblz5/Jdf+ONN2Q/2Pv+++8jNDSUnxWwt8LgKisreds3YcIEFBcXCwb40vLC8+5MR0c2dbMlokNEpE9E0+gF5Udp/GWnMcVENF/aBLEjoYEnNrKmg58X7D13URCAsV0YB2A7T0Rf0f9RpkkBA6RnYpZENImI2vPy8mDuECII4CiL/52dspp/GY0AacvOzsYB51BBAJ4xufxUSPoG59AIkHvsDO2we6QggJjsSiQlJckA/kojQG6zgbFdQLwggKLqX+Dh4cGU7xpupPlfSRU7Nr0QnSYIoPn+Q1haWjKAChohkmRtbY2U7JIhAZbs9+BTB3bASETuNELk4NKlS6Uj+KNqAY75JfHOiyVHIlpBI0Qmvvzyy30sW39zzFclgK7pedxpfYSQkBCmfD0RjaMRJDfZ0VVtfQM/6JYH+MTEEWYu0byRb2lp+UMSmBBZw8pydvZQX98Ap0tXsE90CcmFNWh70skzLwud77zzDqSlw4gUbxbb165di7i4OOTn5/P6ycLCQtZLPJQWaaP+aEXVyWbp/2Jh0wWmdLO0JWSKT3yRX/4PJFVdr3SEju4AAAAASUVORK5CYII=;" vertex="1" parent="1">
          <mxGeometry x="702" y="200" width="48" height="48" as="geometry" />
        </mxCell>
        <mxCell id="MEudCkV0uJRsMIh7Kl0K-24" value="" style="shape=image;imageAspect=0;aspect=fixed;verticalLabelPosition=bottom;verticalAlign=top;image=data:image/png,iVBORw0KGgoAAAANSUhEUgAAADIAAAAyCAYAAAAeP4ixAAAACXBIWXMAAAsTAAALEwEAmpwYAAABKUlEQVR4nO2ZQQ7CIBBFH17HC3ThpbyBF9DE8+kGPYNrjEmbNKZFKcyAdV7CovQnzDTDfFLAMAzD+ANcP6T04myBA3AF7sAZ2EWC3CbqxXgt2AFHwANhZvhe0y3QO41EfMGAuxn961mcYbEHsAc2E5pN/+6RoRenZAl1Eb1aIifgFgn41muW6sUZLzTe+MP8+4bN0Ysyt5D0/P8k4hL7dlOJuLeO8cmMpPeCm9CrO3JudzpN6H1tRy6ld7FEtBz52xL1S89XWl9Y/BgfCtZwTC9OKNxVzJFzacrIclhdIsdajlwKX9uRS7GanwZjpkqipINXIQg7uBqhVQdPpVkHT6VZv0jFEmmN0KqDazi+ioMvYbizuHxov9XuMnKT+rngf+JqzDAMw0CTJ60L32xRAt3ZAAAAAElFTkSuQmCC;" vertex="1" parent="1">
          <mxGeometry x="190" y="225" width="50" height="50" as="geometry" />
        </mxCell>
        <mxCell id="MEudCkV0uJRsMIh7Kl0K-25" value="" style="shape=image;imageAspect=0;aspect=fixed;verticalLabelPosition=bottom;verticalAlign=top;image=data:image/png,iVBORw0KGgoAAAANSUhEUgAAAgAAAAIACAYAAAD0eNT6AAAABmJLR0QA/wD/AP+gvaeTAAAgAElEQVR4nOzdeXxU1fk/8M9zl7kzk30PSVjCKiSALAIJIgEBFa11w7VuVK3d9Fv7s9VqK92ttXWp1Vq3aq21qK37hqKtkAQFlSUosiRAgmxZyDL73PP7I0QBA9lm5tw787xfL15mmTn3gyRznjn3LABjjDHGGGOMMcbiHx35hZ1lI0YqZC4RAqcByDz45SCA9iMeegCAeUhLzV98LOAD4D342aEfew9+DhDayaSgUERIQLQBAJlKKxQR7nq+gBlShNpmkhlUTbU9DDNo6uF2NegIhPVAhxI2fYOr6r1gjDHG2JdWbxyEgFkBQhKE2Iiy0ioQiUMfclgBsHPGsOkgepOA1NgmHbAOAAEBtBAhCKCNBDpMwEedhYoXIA8JHBCKaIdJHiiiHSZaoFCHEGa7aqrtIZVaHBBtXke4tfjdOp/kvxNjjDHWN0uXqhhS8lsI8X8A9EO+sxYqXYJpJTVdX/iiAFg9ZYqe72j6FMDwGEa1siCAVgAHQGiGSa2CcIAgDgDUTMJsMRU0k6AWEmgmQc0hlVpAgaawrjZxAcEYYyymhFBQtfFvIHFp9w+gfRDBSSg/vgE4pADYOXP4QjLFK7FJmRA8AJog0AgSjSDaJwT2A9QIIfaDqFElsd9UsMcUoX17fbn7pq5ZE5QdmjHGmA0JQVi18WEIsbiHRz6EstJrAEDr+goJMTaq4RKPG4AbhCKAANFVbXV9IGAKAGFAgYZ8RxPqy4obAewlYJ8AdhNhjwD2EqhBAHtJhHcFNewemr99Lz2DsLy/GmOMMcsQglC98X6gx84fEDij60PtkC+3RSMX65MsAFkCGAsA4uB0DQFx8L8KtBDQUF8cri/DHgJ2CcIumKgHsAuEnQA1KDAbEAjsKFizyyPp78EYYyxWqjfeDYhre/VYQl7Xh18UAGEl/JYaVk0ASuTTsQhTARQIoAACR0zlFDBBgMPoHFEQqAdhhwB2KELsALBdqNgeDKCu+IO63VLSM8YYi4zKDb8FxHV9eMYXo8eHrwIoK76PgO9GLBizOh+AWoDqIEQtFGwTwtwGU9lquNzbct+tOXLpJ2OMMauoqvkVIG7p25PIi7ISN3BEAXBwJcA/ACyKWEBmWwTsNoHNJMQWgLaAsBkkNiv+wGd8e4ExxiSqWr8EoNv68cw2lJWmAt1sBCQqKrRd/rrHBejigeZjcUsA2AngMyJ8Ikz6BGr402CAPuHbCowxFmWVNTeDxG/69VxCC2aUZnR+2A2xCGpDw/CHIcQV/U/IElQTCBshsFEIbCBFqVH86rqCNZ/tlx2MMcZsr3LD/4FwV/8boH0oK8kFjlIAAIAAlIay4gcAXNP/CzHWiYDdgrAeJtaBsA4k1u32Z9Xw3geMMdZLVTXfB8Q9OEbf3SOBz1FeWoCeGhEA1ZcV/4knBrIoCQCogRAfE9GHgPKh2tG+Nn/dng7ZwRhjzFIq1y8G0cMYSOffaSfKSoegNw0JgBrKhv0BoB8M8KKM9UaYID4VoNUEfGACH7S2uj8uqakJyA7GGGNSVNVcAYhHEIll+gLbUF46AuhDJdEwY/jtgsSPB3xxxvouAOAjElhlEq3Sw+Gq/Pe318oOxRhjUVe9/hsQ9Dgit0fPZygrHQP0cSihvqz4FwB+GqEQjPVb5xJFqiYSKwCz8sCB5DU8SsAYiyvVG86FwNM4fNfegRGoQXlpKdCPewn1M4pvAeFXEQvDWGR4AawSRP8l0P8Uv7ea9ypgjNlW5fqzQfQvHH6k78ARPsaM0kmdH/ZDQ1nxjQK4I6KhGIusAAjvQ+AdIcRyX4ZWNeq1LX7ZoRhjrEeVNaeCxPMAjCi0/gHKSqcBA5hNuLNs2PUEumsgbTAWQ14BvKcI8TZILCuo2r6WAFN2KMYYO0x0O38AqERZ6UxggJ13/Yzh3waJPw+0HcYk2EcQywTR63oYb+atqt0jOxBjLMFV1pwMwkuAcEXvIvRflJVUABHouHfOKL6KCA+CTxFk9iVA+FAIegUQrxRV1a7m0QHGWExVbZgJ4HUAydG9kHgLZePnAxF6515fVnwZgEfReUwtY3a3RwAvKwIvmhRcNriq3is7EGMsjq1cVwZFeQNASvQvJl5F2fjTgQgO3TeUDb9IQDyBSC5XYEw+D4HeEBDPBw3xYvG7dS2yAzHG4khlzSSQeBtARkyuJ/ACykvPAiJ8776+vPg8CDyFSC9bYMwaAgQsB/CsCAeeL3q/oVF2IMaYjVVtnAwy34ZAesyuKfAsyksXAVGYvNcwo/hMQViK6M1gZMwKggC9BWH+yx9Unh+xZtsB2YEYYzZSvX4CBC0HkBXbC4t/oGz8N4Aozd7fOXP4QjLFcwCc0WifMYvxQeAVhcSTza1Jr/KOhIyxY1qxdgxU9V0A+bG/uHgMZeMXA1GauT945bZXycSZAHgnNpYInCCca4L+k5bq+bx+RvGfd5YVT5MdijFmQdUbR0FR34GUzh8AIfDlh1G0c8awCiJ6GUBSNK/DmBUJ0EYi8agG5e/5lVv3ys7DGJOssmYkCO8ColBeCLoXZSXXA1Feuz+4uu5dxaRTBdAazeswZkUEMQ4Cd4aEWV9fVvzMrvLiBYL3y2AsMVV9Mqxztr/Mzh8AzGDXR1F/MSpYtW0FKeIUALx8iiUqHcB5psAbDWXDPmuYMexHu6aMzpYdijEWI9VriyDCbwMYIjsKoPi++CgWlytaWVdtKjQfQFMsrseYddEIQfQ70xHcWV9W/Ldd00dMkZ2IMRZF1evzINRlIAyXHQUAIL6cAxCz4cghK7etBomTAeyL1TUZszAngMtNxVxdX1783s7y4eeKRbyTJmNxZeXa3INL/Y6THeULJL44FTWm9yOLKus+NkmZC4APXmGsi8CJJMSz9fXFm3eWD7tu94Q8njTLmN3978MckLocwDjZUY4Q+xGALkMqt25QICoA7Ir1tRmzMgKKSdA9oST39p3lw5fUTyuM8QYhjLGIeOejdOjGayCUyI7yVSK2cwCOVFBV96kwqQKEnTKuz5jFZZEQt0F11NWXF/+h9oRhctYLM8b6bvXqNDj1NwFhzfk9FONJgN0ZvGrbZi1kzgZQJysDYxaXDIEbdI221ZcNv3vHzMEFsgMxxo6henMqgs43AJwgO8pRmZAzB+BI+e9vr1VUmg2IrTJzMGZxLkBcr5jalvry4j98PmtkjuxAjLEjrF7thgi8CGC67CjHRKb8EYAuBSu27RAIzQawSXYWxizOBYEbwqHw1p1lw3++b+aYGJwdzhjr0erVbgSdrwBituwoPVIsMgLQZXBVfUMwJCoEaKPsLIzZQApB/MxvBrY0lBV/b/WUKXz8NmOy1NQ4EDSeAVAhO0rvKN4vPpIZ41DFH9Tt1onmAFgnOwtjNpErgD/lG00bGmYUnyk7DGMJp6bGgVbxHEALZUfptbCFbgEcKr9y616EA3MBfCQ7C2O2ITBaEF6oLytetn3mSAsuO2IsDq1eraNVPAPgDNlR+oRUaxYAAFD0fkNjWA2fDOAD2VkYs5l5qhn+uL5s2B8bp49MlR2Gsbj1zjsags5/ArDfyBtJ3gegJ0NX7Gj2B2g+ICplZ2HMZjSAfuBVwp80zBh2gewwjMWdpUtVOLP/BuBc2VH6hULWmwNwpBFrth0wFONUAv4nOwtjNlQgiJ6uLxv+6q7y4qGywzAWF4RQUFTyGECXyI7Sb6RZvwAAgJyVm9rUDs9CAG/LzsKYPYnTTIENO8uHXScs/vvOmKUJQVi14X6QuFR2lAExHZ6uDy3/gpC/bk+HN109HcBLsrMwZlPJJOiehrLiFfXTho+WHYYx2xGCUF1zHwR9S3aUAdMO2GMEoMuo17b4venqIgAvy87CmI2VQRUf1s8Ydq0ASHYYxmyjeuPdAL4jO0YEhDB1arDrE1u9CNSUlDjSU71PC4izZWdhzOZe0UhZnF+5da/sIIxZWuWG34Jwk+wYEdKKstK0rk9sMQLQpaSmJvB5IOMCAEtlZ2HM5k4PC3Ntw/Ti+bKDMGZZVTW/iqPOHwA8h35iqwIAAKauWRMsLKq9mAj/kJ2FMTsTQL5Q8Hp92bDfiIoKTXYexiylquY2QNwiO0ZECZsXAABAzyBcUFh7OYR4THYWxmxOAejmBv/2ZbUnDMuXHYYxS6iquQEQS2THiDgS9i8AgM4ioLC67iqAHpSdhbE4UKFrtKahbES57CCMSdXZ+f9BdozooPgoAACAALOwatu3BXCf7CyMxYECAfOdnTOKr5IdhDEpqjZcDYg7ZceIoo5DP7F1AQAABIiiqtrrQPij7CyMxQEHER5qmFF8j1gEVXYYxmKmcv1iAH+BzVbH9VH7oZ/YvgAADhYBlbU/JIjbZWdhLB4IwnUN9cUv7K0oSZadhbGoq9pwOYgeQpz0iccQXyMAhyqsqrtZgH4hOwdjceL0gN/737pZQwfJDsJY1FSv/wZAjyDO+sNuURzNAejO4Kptt0EgvpZuMCaNmKyGlJU7pw8fJTsJYxFXveFcCHoMEIlxu8tE26Gfxl0BAABF1bW/IeBG2TkYiwcEFJMiVtSXDztedhbGIqZy41kQ+CeAxNkDg+L4FsChCqtq7xQkrgcgZGdhLA7kQtA79TOHzZAdhLEBq6w5FWQ+DUCXHSW2zMQoAABgcGXdvRD0XXARwFgkpMOkNz+vGFkhOwhj/Va9fj5I/AeAITuKBPG3CuBYiqq3PUCgqwCYsrMwFgdSzED4ld3zxn1ddhDG+qyy5mQI5QUATtlRpBAJVgAAQGHVtkeJxCUAQrKzMGZ3QsAd9vj+tf/Uid+QnYWxXqvaMBMkngeES3YUeZT4nwTYncLKuqchcAmAYI8PZowdkxDCCLS3P9J8zrTvy87CWI9WrisD8BqARN/XIjELAAAoqq5dCtA5APyyszBmd2bYdPibDvyh7cKTlsjOwthRVdZMgqK8AiBFdhTpSCRuAQAARVXbXhYKnQPAJzsLY3YX8gd0z/7Gn7ZdXHG37CyMfcWqDRNB4i0AGbKjWIIwWw/9NOEKAAAYvHLbqwLibABe2VkYs7tgh0fxt7Z+v+PyuQ/JzsLYF6rXT4CJtwFkyo5iGapIvEmA3RlcVfe6gDgNRyyLYIz1na+xWQkHQt/0LJ73pOwsjGHF2jEQ9AaALNlRLCWsHTj004QtAABgcFXdfxUFC3HExAjGWN+11tWTouqXdFwxb6nsLCyBVW8cBVVdDiBfdhTLcXgTew7AkQpW1r5HQjlNAK09P5oxdnQCTZu2wkhLXeRZvOAl2WlYAlq5cSiEuQxAgewoFuTB1KmHrYJL+AIAAAqrt65UTWUugCbZWRizMzMYRMvmWriyMs7wfvOU12TnYQmk6pNhUMz/ARgqO4pFfWWkmwuAgwpWbV1DMOeBsF92FsbszNfcgo7P98CZmX6q98r5b8vOwxJA9doiiPDbAIbIjmJZRC1HfokLgEMUVm3/SA2HZxOwW3YWxuzsQN1OhHw+OLMz53oWL6iWnYfFser1eRDqMhCGy45iaUIcOPJLXAAcYdCqHRsJYg6AXbKzMGZXImyiZXMdAMCVlTHd+81TVslNxOLSyrW5ELQcwHGyo1ieAI8A9EZBVd2npGAuQA2yszBmV/4DrfDs7byj5sxMn+a7+tSPBUCSY7F4sXpTNhTlbQDjZEexBQU8AtBbhStrN6nCPFEAtbKzMGZXB2p3wAyHAQBGetpE/1WnrBf8usMGqrImE6HgMoBKZUexDcEFQJ8Mqq6rUwlzALFVdhbG7MgMhtC248uBNCMjvcR/1WkbRUWFJjEWs7PVq9NA4nUIHC87iq0QNR/5JS4AelBQWbudQuocAFtkZ2HMjjp27UHI++XRG0ZG6hj/GPcmsajEITEWs6O1a5MQcL4E4ATZUWxHmDwC0B+FH2zdGQyJWQRRIzsLY3YjhMCB2p2Hfc1ITRnuzxjymbiiwikpFrOb1avd8GivgDBLdhRbErwMsN+KP6jbrZl0MoD1srMwZje+pmYE2joO+5qRljo04EzeundRRaKf0c56UlnpQtD5MiBmy45iW7wPwMDkrardo2rqyRBYKzsLY3Zz6FyALo6UpILUrOStTdfMS5MQidnBO7VOUNoLAObIjmJriskFwEANem/LvrAWngPgfdlZGLMTX3PLV0YBAMBIScp1K47NLRefyGe2s8PV1Djg7HgGEPNlR7G9kPjKVvdcAPTD0BU7mv0BWgAB3uGMsT5o29n91hpGSkqOOy19c+tl0/j4VtZp9WodreIZAGfIjhIXBBcAETNizbYDDqd7PoB3ZWdhzC58TS0Ieb3dfk9PTspyJuVtbb+igo9xTXRLl6oIOp8AcKbsKHHDDHMBEEm579a0ax2eMwCxXHYWxuyifdfeo35PT3anOdwpmzounM/HuSaqpUtVDBn3dwAXyo4SRwTcPAcg4vLX7elQAoGvgbBMdhbG7MCzdx/MUOio39eT3KmObPcm78Vz+VjXRCMEYfC4ByBwkewo8YVaMXVq8MivcgEQAQVrdnm8aerXQHhRdhbGrE6ETXj2HPvUbc3lTFYzkje2XFA+IkaxmGxCEKo33g/gatlR4o4Qjd19mQuACBn12hb/gQPuRQL0vOwsjFmdZ8++Hh+ju13upOyc9b7LThwdg0hMps7O/8+AuFZ2lDj1lfv/ABcAEVVSUxPYE8g4HxD/lp2FMSsLerwItn91SeCRNLfTpaVlrW2/ZN74GMRisqza+DtAfFt2jLhF6HbIjQuACJu6Zk2wsKjufAg8KTsLY1bm2dPtqORXqE6n08hMXt1xwazJUY7EZKiuuQNC3Cg7RpzjEYBYoWcQLhxcewWAx2VnYcyqPPv3A6J3j9WchsPIy6o6cMFsPgQmnlRt+CV3/jEgqNt7blwARAk9g3BhVe1iAfGo7CyMWZEZDMF/oLXXj1cNw5GUn1npvWgW7wcfD6pqbgNwq+wYCYEE3wKINQLMoqq6qwRwn+wsjFmRt/ErR5Qfk+pwaI687LfaLpvJ+8LbWVXNDYBYIjtGwuARADkIEEVVtdcBdLfsLIxZja+PBQAAKLpDc2fmL+u4bO5pUYjEoq16/fWA+IPsGAlF4REAaTqLgG0/AOHXsrMwZiXhQKDbA4J6ouiaamRmvNxx0Ylfi0IsFi2VNd+DoLtkx0g4pskFgGxFlbW3CtAvZOdgzEr8zV/ZobRXVF1TnHl5z7ddUnFehCOxaKhcvxgk7gFAsqMkoD3dfZELgBgbXLXtNkHiJtk5GLOKvkwEPJKia4o7J2tp+2VzLo5gJBZpVTVXgOghcJ8jh8PgEQCrGFxZ9zsS4seyczBmBYG2dohwuN/PV3SNXFlZT7ZectLiCMZikVJZswgQ3PlLQ2FMGc37AFhJYXXdHSD8P/R6JTRj8UmYAoG29gG1oWgqJefmPtx22ZzvRCgWi4Sq9eeDxFMANNlREpdoBJHZ3Xe4AJCoqLL2DxDiO+AigCU4f0v/bwN0IU2lpOys+9ou4SLAEio3ngXQk+DOXzLq9v4/wAWAdEXVdX8RhG8B6LZCYywR9GclQHdIVSkpL/vP7ZfN493lZKrccArIfBqALjsKM7kAsLLBlbUPCdClAPp/I5QxGwu0twMiMgNhpCpw52be4b10Lu8yJ0PlhlNAeAGAITsKA3CUFQAAFwCWMbhq21NE4hsAQrKzMBZrImwi5PVFrD0igpGb/cu2y+bw3huxtKpmFgjPgTt/K9l9tG9wAWAhhZV1T0PgEgBB2VkYi7VI3QboQgohKTfnJ57L5t4e0YZZ91ZuPAmmeA1Akuwo7FC092jf4QLAYoqqa5cCdA4Av+wsjMVSsMMT8TaJCM7c7B+3Xzr3zog3zr5UvXEGFPNlcOdvPSQ+P9q3uACwoKKqbS8Lhc4BELkxUcYsLuT1RqVdIkJSfvYP2y4/+cGoXCDRrdxwAoR4HUCK7CisW3wLwG4Gr9z2qglxFoDovCoyZjFBTzR/1AnJOVnXdFw+5+EoXiTxrNowEQpeB0Sa7CjsKMIqjwDY0ZCqujcExGkABrZLCmM2EPYHIMJRXA1LBHdu7je9i+c9Gb2LJJDKdeNh4i0AmbKjsGPQiAsAuxpcVfdfRcFCAG2yszAWbdG6DXAoZ1bWJZ4r5j0b9QvFs+qacSDlLQDZsqOwYwpg2nHdbgMMcAFgCwUra98jKKcKYODbpTFmYSFfbKa9uHKyzvVcMe8/MblYvKneOApCLAOQKzsK69EuEB11gw0uAGyisGprpWoqcwE0ys7CWLSEfYGYXcuVk3WWZ/H8t2J2wXiwcv0ICHM5gALZUVgv0NGH/wEuAGylYNXWNQRzPgjdHu3ImN2FA7HdAsOVlXmyd/H892J6Ubt6f/1gKMoyAEWyo7DeEvXH+i4XADZTWLX9IzUcng3gmJUdY3YUDsR++wtnVuaJnsULqmN+YTupXluEEL0LiGLZUVgfCB4BiDuDVu3YqEDMBbBLdhbGIinsj90tgEO5sjKmexaf8r6Ui1td9fo8CPVNEIbLjsL6SjQc67tcANhUQVXdpwjTHICO+Q/MmJ2E/fJ2wXZlpZ/gu+qUNQIgaSGsZuXaXAhaDmCs7CisHwTxLYB4VfT+ts9UYZ4ogFrZWRiLBDMk9ywsIyN9su+q02rEokWq1CBWsHpTNhTlbQDjZEdh/UTmMUeJuQCwuUHVdXWqShWA2Co7C2MDJUwTwoziZkC94MxIHetPa68RFRWa1CAyvfNROoKh1wEqlR2FDYCJncf6NhcAcaBgxbYdFFLnANgsOwtjA2WGwrIjwMhIHeMf494kFpU4ZGeJudWr02DoywAxRXYUNiAC1MYjAImg8IOtO4MhcRJB1MjOwthACMm3AboYqSnD/RlDN4tFi1yys8TM2rVJCDhfAmGq7ChswPahvPyYW2tyARBHij+o262SOhfAetlZGOsvK4wAdDHSUob4Mzo+2/W1r7llZ4m6tWuT4FFfB2GW7CgsAgR29PQQLgDiTH7l1r1hNTybgNWyszDWHyJsnQIAAIy0lKLMQlHbdM28+D3xrrLShQ71RQAnyo7CIoS4AEhIQ1fsaA4YYj4AXtfMbEfgqFuXS2OkJOUmK47NLRefmCE7S8TV1DhAKc+CMFd2FBZBXAAkruJ361r8AVoAAd7hjNmK7FUAR6OnpOQkpWVsabtyVo7sLBFTU+NAq/kfgBbKjsIijG8BJLYRa7Yd0DyeeQDelZ2FsV6z3gDAF7Rkd6bhTN/cfkVFvuwsA7Z6tY4DYil3/vFKbO/pEVwAxLn8dXs6tA7PGQDelp2Fsd4QwsIVAAA92Z3mcKds6rhwvn1PxHvnHQ0B51MgfF12FBYlxAUAQ2cRoAT8Z4KwTHYWxnpkWrsAAAA9yZ3qyHR+6rnwpMGys/TZ0qUqnNl/A+E82VFYFJFe19NDuABIEAVrdnm8aerXQHhRdhbG4oGW5E7Rs9M/PXDxSaNkZ+k1IRQMHvcIQJfIjsKiqh3Txzb29CAuABLIqNe2+A8ccC8SoOdlZ2HsqBT7nMWjuVxud1bGurZLTrb+fvlCEKo3/hnA5bKjsGijXp0PwwVAgimpqQnsCWScD4HnZGdhrDtE9ikAAEBzOp2urOQPmxdVHC87y1EJQaiuuQ8Q18qOwmJBcAHAujd1zZpg4eDaCwD8XXYWxo5ENhoB6KIaTiM5P31VxwWzJsvO0q3qmtsBfEd2DBYjhG29eRgXAAmKnkG4sKj2SgCPy87C2GHIni9LmtNwGHk51a0XzS6TneUw1et/A+BHsmOwGBI8AsB6QM8gXFhVeyUE7pedhbEu9nv//yXV0HV3Tub/Wi+caY399Ks2/BKCbpYdg8WY4BEA1gsEiMLq2u8R4U+yszAGAKSpsiMMiGo4tKT83OVtl54kd2vdypqfAbhVagYmB2Frbx7GBQADAaKgsvZ6gO6WnYUxxeYFAAAoukNzZ+W82XHZ3NOkBKja8GOQ+LmUazPZTPiS+RYA6z0CRFHVth+A8GvZWVhis/sIQBdF11RnZsbLrd+oOCumF65efz2A22N6TWYlDZhT7OvNA7kAYIcpqqy9VYB+ITsHS1yKosmOEDGKrilJ2VnPtV1SEZtd9yo3fBeC7orJtZhV9Wr4H+ACgHVjcNW22wSJm2TnYImHiEBqfL0sKbqmuHOylrZfXhHd3fcq1y8G4V7Yex4lG7jNvX1gfP2msYgZXFn3O+KlQyzG4mX4/0iKrpErM+vvrRfNvjIqF6iquQJED4Ff0xmwpbcP5B8WdlSFVbW/h6AfwtIHtLJ4oui67AhRo2gaJQ/KeaTtsjmR3ZCnsmYRILjzZ52E8llvH8o/MOyYiqq3/REQ3wZgys7C4p8axwUAAJCqUlJ21n3tF8/5QUQarFp/Dkg8BSB+Jk6wgVEEFwAscoqq6h4UhGvBRQCLMtWI7wIA6CwC3PnZf2y/bN6NA2qocuNZAD0N7vzZFyiMJgdPAmSRNbiy9iEBuhRASHYWFr8U3SE7QkyQqsCdm3lHxzfm/LRfDVRuOAVkPg0g/ism1geiDgtH+Xv7aC4AWK8Nrtr2FJHgIoBFjepInP6MiODKy/lF+6VzftOnJ1avXwDC8wCM6CRj9iU29eXRXACwPimsrHsawMUAgrKzsPijOhJjBKALKQR3Xs7Nnsvm9m7jnuqaEyHo3wCc0U3G7Ik+7cujuQBgfVZUVfsMQOcA6PVQE2O9oTgS73Y2EcGZm/3j9svm/OGYD1xVMwtCvA4gKTbJmO0I6vUEQIALANZPRVXbXhbCPBtAr7acZKw3NGdivrElIiTl5dzQdvnJD3b7gOqNM2CKV8CdPzsWFRv78nAuAFi/Da7e/poJcRYAr+wszP6IKCFWARwdITkn65qOy+c8fNiXV2444eA7/xQ5uZhtqNonfXk4bxnJBmxHefFJisArAJKP9Tiv7kLNoFJszh2NxqRsdDiSoZpBuANe5LbvwdCm7Ri+fwuyOuOG56gAACAASURBVBpjlJxZieZyIm/KBNkxLMG7v3Gp+7G3LsCqDRNh4m0AWbIzMcvbi7LSvL48IfFuuLGIG1JZ+78d5cWnd1cECCIsHzUPSydfiJUjTkJI6Xmr1yFN2zFlxwcor1uJis/eQYq/NVrRmYVoTp7U3sWVnXV+7XWL9GITs8CdP+udPg3/AzwCwCKooWxEuQnzNQJSAWBjfgl+vvAXWFs4qd9t6uEgympX4owNL+KUT16DEeJ5h/EqaVAu0kcMkx3DUq6YciYeHzpRdgxmD/ejrPS7fXkCFwAsonaWFU8j4PVXS87IuPnM38OvRe5dXbqnGeesew4Xf/Akilp2RKxdZg1pwwYjuWiQ7BiWEiQFMyuuxAcZBbKjMKsjfBczSu/v21MYi7CJf9rw3Lbh484RFJ0fL80MY2HNS7hm5QMYua/XJ18yi8saOwrOrAzZMSxnTcYgTKv4Jswo/T6xOCHMCpRP+G9fnsI/USyinI/5H9PyHFfE4lqKMHHqxldxw/I7eUQgDuRNmQDNlZjLAHtywbRzsLSoRHYMZmW6noOpY/b35Snxefg2k8J4xHefnmdcE6uyUhBhc+5oPDX1G9idmo+JDR/DFeQViXZEioK04YPB70m6lxby48khvEKCHYXA55g+7pd9fRrvA8AiwnjEd4+eb3xXxut3SNWwdPJFOO07b+HZSecjWrceWPRoLhe48z+6eXtrkRbkCbDsKAhr+/M0LgDYgBmP+O7Q84zrZL9+H3Cl49Yzbsclly/F5pzRcsOwPtHdPPR/LIoQmNa8S3YMZlVE6/vzNC4A2IA4H/X/Us933Giln6QPB0/B2Ve/jPtnfb9X+w4w+bQkt+wIljf+wB7ZEZhVmfi4P0+z0Ms2sxvHQ95btFz9VlhwyD2kari34ge46IpnUZs1XHYc1gPd7ZIdwfJy/R2yIzCrErSuP0/jAoD1i+NRz48cg4xfQbFe53+o9YUTcc7VL+GfUy+RHYUdg57EBUBP0nkOAOueD4E9fToGuAsXAKzPjId939NznL+zeuffxau78PPTfonvnf8XtBmpsuOwIyi6BtXgbYB74lP5dhbr1jrMmRPqzxO5AGB9YjzSca2Wb9xLqj06/0O9NWYBzrvqeXySN052FHYIRzKfcNsbXjWRT0pkRyX6d/8f4AKA9YHzYe9iLdd1Pymy5/v33/bMYbhw8XN4fsI5sqOwg3QuAHqlwcWnAbPu0If9fSYXAKxXHA/5L1JzjYdJteCMvz7yawZu+vqd+Nnpv+ZVAhagJ/MKgN7YnJwpOwKzpo/6+0QuAFiPHA96Ful52j9Is3/nf6ilky/CtRc+wvMCJONbAL2zKZlPBWZfEYTf3a8VAAAXAKwHjoc6vq7nO58mzSYz/vpoxYiTcOHiZ1GfMVh2lITEEwB7Z7czGXXudNkxmNUQajCn2Nffp3MBwI7KeMB3ip7j/DfpFNc/J1uzR+LCK57FhkGlsqMkHEdysuwItvC/7CGyIzArEvhgIE+P6xd21n/aX4OztXz9FXIoCfEzsj85B5de9jT+O7JCdpSE4kjlAqA33s4plh2BWZGgNQN5ekK8uLO+cT7knWXkKm+TkVgz5LwON757/l95hUAMOVJ5ZntPwkR4vuA42TGYNb0/kCdzAcAOoz/oma5kO5aTI7E6/y4hVcPNZ/4ej09fLDtK3CMingDYC//LHoq9Bq+UYEciLxzeDQNpgQsA9gX9z+3H69mO9xRD0WRnkUkQ4bcLbsV9s6+XHSWu6clJIJVfgnry1GCem8K6I9Zg6tTgQFrg3z4GAHA83Faq5ztXKS7ebqzLfSddjztP/pHsGHGLh/971qYZ+FcR71zJujWgCYAAFwAMgONB/3Fapmu14lIdsrNYzcPl1+KO+T+RHSMuGTwBsEdPDBmPNo2XSbJuEFUOtAkuABKc8z7vUC1bXaM4VX6VOYpHZ1yF382/RXaMuMMrAI7NJMKfR5wgOwazrFD1QFtI6Hu9ic71qGcwpeo1ikvlGUY9eGzGN6GYYdz49u2yo8QFze2CovPdpmP5d8Fx+CQlW3YMZk07MGNi/UAb4RGABJX0WHs+kh01ilvladi99Ej5NfjzSdfJjhEXnOm8/XJPbh89U3YEZl0DHv4HuABISElPteeJZOcmNVnlWVh99KfZ/4dHyq6WHcP2jDQuAI7lhYIxWJMxSHYMZlmiKhKtcAGQaO5rzRK68amSpPIrcD/defJNeHbS+bJj2BjBkca159GEiXDLuDmyYzArE8p7kWiGC4BEcntTmjvLtUlJ0vhUkQEQRLjt9F/jjbGnyY5iS46UJCgaTz86mr8WT0ZNao7sGMy62lBf0+8TAA/FBUCi+LNIdhWnfKakaXymaASEScX/O/turBx+ouwotmOk87v/o2nVDfx87GzZMZiVESpx/vnhSDTFBUAieFC4XVmhzWqKlis7SjwJqjquP+9+fJo3VnYUWzHS02RHsKxbx1Vgj8HzctkxCKyIVFNcAMS7JcLpSgltUlO1fNlR4lG7kYxrLnoUn6fxhK3eIEWBI4XX/3dndcYg3D+c1/2zHhC9G6mmuACIZ0uEwzUm+ImarhXJjhLP9qbk4ZqLHkO7k4e2e2KkpYIS44TpPgkT4VuTTkeYSHYUZmnkRZNjwFsAd+HfxHi1VKjOUcEaNU0fJjtKIticMxo/OOdehBLzEMVeMzJ4+L87vx9djg/TeRSJ9UCIKiwc5Y9Uc1wAxKOlQnWGghu1DH2k7CiJ5L0Rs/GrU5fIjmFpzkxegHKktWl5uI0n/rHeUPBuZJtj8WWJUJyB4Mdauj5adpRE9PSUS/DktMtlx7Akze2C5uQjJw7lVzRcNvUsBHjkiPWGwPJINscFQJxxjghWa5k6HyAu0W8X3Ir3RvA7uiPxu/+vunXcHKxL48U5rFfaofvej2SDXADEEecTgVVals7TiCXr3CPgLuzIHCo7iqVwAXC4V/NH4Q+jpsuOwezjPUydGoxkg1wAxAnnE/6VWrY+TXYO1umAKx3fvuAhXhlwkKKpvPzvEDvdqbh8ypkQPOuf9RaJiA7/A1wAxAXnE753tGxHuewc7HBbs0fipjN/zy/yAIyMdBD/fwAABBUFF047F/sNPoWb9YEp3oh0k1wA2JzxuP8VLduokJ2Dde+tMQvwUPm1smNI58zg4f8u/zfhFFRm8tYcrA8EPkfZ+A2RbpYLABsz/ub/t57jWCg7Bzu2u+f8MKHPDCAiOLO4AACAx4Yej/uHT5Udg9kN4U0QiUg3ywWATTkf8/9Tz3GcLTsH65lJCn501l3Yk5KYuzEb6alQVF7mtiJrCK6dxPU66wdBb0ajWS4AbMj5mP8JLc9xIfiWqm00JmXh+vPuQ1DVZUeJOWdWpuwI0tW503FO2SJe78/6w0TIvywaDfNPo804/xZ4WMtzXCE7B+u73amDENCcmLktYod52QAhY9QwUAKPADQ5XJg76zLscPM2yKw/xCqcePy90WiZRwBsxHjU9yctR/+m7Bys/x6dcRWWj5knO0bMGGkpUPTEG/Xo4lM0fL3sfHyakiU7CrMrolej1TQXADZhPOr7o55nfI+H/e1NEOHWM27H3pQ82VFiwpmVITuCNCYRvnHCWViRNUR2FGZrJhcAicz5qO92Pdf4AXf+8aHJnYkfnn03whT/w+KuBC4Avj/xVDxXOFZ2DGZvuzB9/IfRapwLAItzPORdouU6fsz/UvHlg6HT8Wj51bJjRJUjJQmq4ZAdQ4qbS+bycj82cCReisbyvy7crViY4xHvTY5Bxm1Q+K1/PLqn4of4uGiy7BhR48pJzPvevzpuFm4fM1N2DBYPTOX5aDbPBYBFGY94bnTkGb/lzj9+hRQV/+/sP6LDkSQ7SuQRwZWdeMv/7ht+An46rkJ2DBYf2uF3vxvNC8T/TUgbMh7xXavlOe8mhTdPj3etzjQ0JWVh7mdvy44SUUZaKpILEmOiY5cHi6fge8efCvCvLYsI8TxmjXk6mlfgEQCLcT7mvVrLM+4nhaf8JYpnJ12At447RXaMiEq04f8Hi6fg28efxgc/scgRygvRvgQXABaiP+y9VM02HuTOP/HctvBXaEyKj06TFEqo2f8PDOfOn0WcH4rj5WhfhAsAi3A84j/fkWs8Tiq/iiSixqQs3Hb6r2XHiAgjIx2KrsmOERN3jp6B7xy/kDt/FmHibcwY1Rrtq3ABYAGOhzzn6Tna06Txq0gie2vMArxceqbsGAPmzo6PkYyeLBl7Em4snS87BotLtDQWV+ECQDLj4Y7T9Vznv0jj6f4M+MVpP8e+5FzZMfqNVBXOzPg++lcQ4YYJC/DzsbNlR2HxKQBfMOr3/wEuAKQyHvQt0LKcL5JO/O/AAHSuCviZjW8FuDLTQWr8/jgHFQWXnHAW7ho5XXYUFr/ewJxJLbG4UPz+plqc9lfvbC1Xf5UMhf8N2GHeGX0y3hh7muwY/eLOzZYdIWo8qo6vz7gA/ywqlR2FxTX6V6yuxJ2PBNoDnpmOHMdbZPDh4Kx7vzx1CQ647DWUrhoOGOmpsmNExV7DjbmzLsVr+SNlR2HxzQMfYjL8D/BGQDGn/7XjBEee83+KoSTuGamsRx5HEhrdWZj32TLZUXotuSAPRnr8nXm/JSkTJ8+6FOvSEmtjIyYD/RuzSp6K1dV4BCCGHA+0lepZzhXc+bPe+M/x52HFiJNkx+g1d278zf5fmTUYZRVXYnNy4m1rzGQQ/4jl1bgAiBHHg+3jtVz3GsWlJObxaKxfblv4K3h1l+wYPXKkJkNzWT9nXzw+ZCLmzroU+w237CgsMexHKr0RywvyLYAYMO73jdHyjDWKSzFkZ2H20uZMhUkqymtXyo5yTCmDC+BIjo9DjQQRfjF2Nn4wYT7CPEeXxYx4BJNLo77736H4pzvKnHf5hqu52keKU3HKzsLs6bGyq7Ep7zjZMY6KFCVu9v5v0wycPX0Rlow9iXf3Y7FF4vFYX5ILgChyPeEdogzW1ituNb7GRllMhRQVvzz155btkJxZ6VBU+w8mbknKxIyKK/FCwRjZUVjCERswY8KaWF+VC4AoSXqsPR9OfYPiVvkGIhuw1UNOwAvjz5Ydo1tJeTmyIwzY63kjcMLcb2Jjqv3/LsyO6FEZV+UCIBoeaMsVSc5P1WQ1RXYUFj9un38Lmt3WOmVPdRow0uy79l8Q4Xejy3FG+UVo0fkuHZMigGDgSRkXtv+4ndU82JrtznR/piSrUndxESEBERQQfhOm14TwhSF8JkyPCbMjDNPz5R/hNzv/+EyIgABCAkJ0tkN8RIFl+HQX2pypmLN5uewoX0gpLICRZs86t9HhxnnTz8Nfhk+17O0VlgAI/8bMiTG//w8AiXFmZ6zc35LhznBtimrnbwKmL9zZqftNIGjC9JsQgYN/QgIiJCJ6SVIJUAmkE8ihQDn4XzgUkK6AHATF2fkxi65nJ12A8z/8J0o/3yA7CkCAO8+ek/8+TB+E86afh9oke+22yOKReFjWlbnsjZR7Rao7L7xFSVEjdhPR9Jkw20MQHWGY3oPv2P0mENn+PWJIJZChdBYDThXk7PxYcaudBQOLiMk71+Afj58PEnJ/EFxZGcgcO0pqhv64f/hU3DBhPvwKv/9h0m3FjJLRIDJlXJx/AyLhCZHkMsKbBtT5mwLh9jDMlmDnf9tDEX8nH20iLCAO3lYAgod9j1SC4lY7iwGXCiXpYGHAowZ99uHgKXil5AycseElqTmS8u11bHGrbuDaSQv5MB9mHST+IqvzB3gEYOAeE06XK7RFTdUK+/pUsyOMUHMQZmsI4dYQYNqrw48EcihQk1VQkgY1WYWSrIF0/rHsyaADn+PVv8yHK+CRcn3VaSB/ygTAJvfO388oxEXTzsE2HvJnlkFeKMpgTB/bKCsBTwIciCXC4coPfqam6YN79XgBhNtCCH3uR2CbB8EGH8wDIQifdYf1oy4sYHpNmK0hhPYHENzlQ2hPAGZbCCJgAgQomsKl6hHanSlQRRjT66qlXD+lyB6T/wQR/jTyBFw47Vw0GrwdB7MQor9jxrinpUaQeXFbWyI01+jgJjVdH97TQ01PGKG9AYT2BSCC0kZ77EshqMkq1FQNSkrnH9L4R9cZ8uGVBxagsKU+ptclIuSdcDxUh7XPtGpwpeDSqWfhnZxhsqMw9lUmTcLMko9lRuARgP5YKlRnRnCjlq4f9XBwERYI7Q10vtPf4YPZlphD/BEhAOE3Ee4aJWjwIdwcBHydxZTiUGwzFB1JIUXD3pQ8nPrJqzG9ris70/Kb//yzqBRfK78Qn/DGPsyS6L8oL7lddgqeBNhXS4TiDATXapn66O6+bfpNhHf7Edzjt90kPjsx28MItIeBBnTeJnCr0NJ1KGka1DQ9Yca2Xh+3EB++PwWTd8ZuF9GkQdad/NeiO3HdxFPx9yHjZUdh7BjMe2UnALgA6DPXqOAaNUMvOfLrZnsYwXovQk3B7p7Gokl0TqgMdHQWBKQR1DQdSoYGLUOP+5UGd558E57626KYXEt3uyy7898buSPwzSlfQ4PL+nMTWCKjWuzc+ILsFADfAugT598D1VqmPvXQr5meMAK1XgTqPDC9fH/fEkzA9IYRbgoiuMuPcGMQ8JuASlCM+CsGPk8rwHF7P8Xw/Vujfq3UIUVwpFjr2N82zcD3jj8NN0xYgDadT9xmFifoZzh1zirZMYCEGSgdOOffAyu0LH1m1+emz0RwuxehpkDizuC3IdIVaBkalAwHtAwNiJOtjosbt+Glv5wCzQxH7RqKqiJ/2vEgC53893reCFw76XRsd6fJjsJYbzTBHR6CiRM7ZAcBeASgV5x/D7yjZeknAZ2T+4INfvg3dxzc8IbZiilgdoQRbgwguMsP0R4CBECGYutzD1rcGcjp2Ifxu9ZH7RpJBXlwZlrjMKIW3YnrJ56CGyYswAE+xIfZBv0OU8cvk52ii31f8WLE+YT/dS3bcQoAhPYHEKj1QAT5LX/cIUBN06Fm69AyHLbcjCi7Yz/euG8OkgLReXORN2UCNJf8zvbl/FH41uTTscvJ9/qZrbRD0FCUlzTJDtKFRwCOwfib70U9x1goAib8n3Ug2OAD+DZ/3BI+s3PewOcHN2gSgGKonYch2YDH4YZuhjB9e+Q3B3JmpCG5ID/i7fbFLmfnuv7bxlWgTeN7/cxmiO5BWcmLsmMcyh6vbBIYj/uf0bMd5wX3+hGs80KE+V1/QlIALU2Hmu2AmqlbvhhICnRg2Z9mI9MT2TcZWSWj4cyQs42uSYSHh03CjaXz0MqT/JgtkRcqhmNayW7ZSQ7FIwDdcP7N/7iWqV8U2Nq5XS9P8ktgonPCZ+fIwJdzBhSXNTcfCqoOgAgzt62IWJuay0B68VApf98P0wfh7LJFeLB4Cvwqr1pmNkX4M6aXPic7xpGs9wommfNx/yNkKFf6P+sgEeDxftY90ghapgNqngNqsmap3yRnyIc375uD3LY9EWkvbfiQmA//N+tO/KR0Lv46bDJMCxZajPWBByqNsNq7f4BHAA5jPOa7Fya+5d/cQeBd/NixmAdPc9wbQGhvAAgKkEu1xBkFIUVDQDMwe8u7A25L0VRkjh4ZsxUSggh/HzIBXy+/EP/NHgrBnT+zO0H3YEbJf2TH6A7/dh3kfNR3e7gtdGNoXyD+dophMaOmalBzHNCyHVLnC2jhEF5/4GQUNe8cUDvJRYOQNqx3h10O1Ifpg3D9xAVYkTUkJtdjLAbaYYZHYObEvbKDdIdHAAA4HvTeEmoM3BJuCfH/DzYgwm8i3BxEaLe/85hnXc7ug6aioN1Iwcmb+r/kmIiQOWYEFC26vxaNDjd+UjIXV08+A9vdciYaMhYd9BuUj4/taV19kPAjAPof264Nd4TvFX7T2mebMttSXCrUXAf0PCOmtwhUEcZLfzm131sEu3OzkDF6RIRTfSmoKHhg+BT8bOwcHODZ/Sz+7IWPRmBOSbvsIEeT0O941dvbzjc7Qg+KoHDIzsLilwgJmAdCnasIvGGQQ4nJqIAgBa3ONCz49I1+PT9j1AiojujUxa8MGomvz7gA/xgygWf3s/gk6CacVBK55ThRkLgjAL/pWEi+wLMwhUt2FJZ4YjUqoIowXnlgAYY11vbpeUZaKrLHHxfxPGsyBuFHJfOwPHdYxNtmzDKINkHzjsfUqZY+HjYxRwB+2TKX/KH/QMAtOwpLTF8ZFTAUKI7IjwoIUuBxJPV5LkD6iKER3fZ3pzsVPyqdh28fvxDbkq1xngBjUSPElZg+6VPZMXqSeCMAP22aSQKvA0iWHYWxQynJGvRBBrQsBxDBWkALh/DG/XNR2FLfu8e7nMibPD4iG/806078bsxM3DNyGnwKD/WzREDLUFayQHaK3kisEYBbWqYSxJsA+BQRZjki0LnjYGiPHwgJKO7InENgKgoCmgMVm9/p1eNThxbBkTKw+tirarh75HQsmrEIb+UWI0S8upYlhBCEeS4eecCSy/6OlDgjADfvP45U5T0A2bKjMNZbWqYOLd+AmqYP6LdVDwfx2n1z0OZpwTo9GQ2KgVZSIQCkiDAKzQAmBtsxVgmgcMpEkNq/DjugqHho2CT85rgT+bQ+lojuQlnpDbJD9FZiFABLGosoRJUAYrOjCWMRpiSp0AYZ0LMdQF935RMCOVvew4R37kPQ13bMh2YpApcXJGFuht6nFweTCM8VjMXNpXOxNYnv8bMEJPA5FOM4zBjVKjtKb8V/AbCkMZVCtALAeNlRGBso0glavhN6vgHSe/71VUIBjFp+D/I+Xd6n60xJ0fHjIW4k9TAQIIjwbMFY/LSkApuSs/p0Dcbii7gAZeOXyk7RF/FdACwRGgWbXwbhFNlRGIsoBdCyHNALnVDc3U/lUcMBTHjux0jZ3b/JyMVOFXeMSIK7mxEHkwjPDxqDn4+djXVpuf1qn7E48hrKShfKDtFXcT0tVwk13yu482fxyARC+wII7Q9ATdOhDTKgpR8+T2DUsj/2u/MHgFpfGHfs8OK2Ye4vmjWJ8GreSNw2bjY+TB80sL8DY/GhHabybdkh+iN+C4CfNn1HCNjyH4WxXhNAuCWIcEsQwSQVWr4BPceB7Noq5H723wE3/0FbEMubg5iT6cBzBWPxs3EV+DSFh/oZ+xL9BDPHbZedoj/i8xbALc0nEYm3APD+/izhKA7CietvRFJb79b998TtcmL9NddhUzoP9TN2GIH3UFZSASJTdpT+iL/FubfsLyTCUnDnzxJUWtOmiHX+AODx+tC0vyli7TEWJzoAWmzXzh+ItwLgGqETKf8CRJ7sKIzJktPyYcTbzNtUE/E2GbM3cSPKS7bITjEQcVUAKHkttwOYKTsHYzIl+xoi3+bePRFvkzHbEvQKZpT+RXaMgYqfAuAnTacLIX4gOwZjsjmDzZFvs902e5swFm17IEKLQSRkBxmo+CgAfrJvECl4DPE6qZGxPhBR+DUQETgYiLE4YILEZZg50RZ7/fckDgoAQUTa4wByZCdhzAr8euS34vWlpkW8TcZsR+AOzBj/puwYkWL/AuDWlutAYr7sGIxZRZsr8kdetOfkR7xNxmxF4D349/1UdoxIsncBcPP+4wjit7JjMGYle9OnRLzNPWPGRbxNxmxD4HM4lAswZ05IdpRIsm8BsEiopCp/A+CSHYUxKzmQnYa2rMgN2Xszs9FcPCpi7TFmMwFAnIep4z6XHSTS7LsV8JjmGwBMlx2DMctIagQd9w6UkSuweayJyX+NTLM7z70YqYUFCHi98LV3IBwMRqZhxuyA6PsoK62UHSMa7FkA3NoygmAukR2DMSug5P3AuDehjKgGKAwA2H+chl3THCh4PzCgtpsmT0PjlOkACA6XGw6XG6FAAL72dgR9vgikZ8zKxJ8wozRCpbT12LAAEESi6UEQuWUnYUwmStsNGv8KaPBHQDdLkjcuSoKzWSBzc//esbcXj8DmK74NHLEEUHM4kJyZiXAoDH9HBwKeDghh+yXRjB3pdfj23yA7RDTZb3HvLc2XEoknZMdgTJqkJlDJ61CGVwHKsbchV8LAuGc6+jwS0DhlOrZc8W2YDkePjzVNE/6ODvg7OiBM226Lztih1oKMkzBjVFzvgGWvAmBJczqF8Cnv9c8SkrsZNPZtKCNXAGrf3tVnfRbEqP90IHXPsd+pe7JSUH/uYjROnvaVd/49EUIg4PHA39GBcCiuJkuzxLIdYa0cJx63S3aQaLPVLQAlJH4lAO78WWJxtoJK3uxXx9+lcaSGPWcJpO82kbeDkNIIGB4AIPiTgPY0gT3DgNYiIGX8JFA/dv4jIhhJSTCSkhAKBODvaEfA5wf49gCzDdoHET41ETp/wE4jAD9tnkRCfABAlR2FsZhweEFj34Ry3LuAOrDJfGazD+bujl491j30Shg5pwzoel9cN2wi4OmAj28PMOtrBZlzMWPCGtlBYsU2IwAkxN3gzp8lAiUMZXg1aOJLgNEWkSZFU+9n7Ps+fxFG9skADfzlQVEVOFNSYCQnI+D1dt4e4GWEzHo8UOgMTE+czh+wSwFwa+N5AE6SHYOxaKOi9aDJz4GS90WsTdEegAiEe/14M9AIf+P/YGTPjVgGIoLhdsNwdy4j9Hs6EPD6+PYAk48UL0w6B9PHvic7SqxZ/xbA94VBqc0bQRguOwpj0ULZdaBJ/wblbI142+EdrRAdfXvXrRh5SCv9I0DRG3QTpomAzwd/RzvCQZ40yCRQyK9qjsvCU0YtlR1FBuuPAKQ2fRdE3PmzuETJ+0CT/wMqWhuV9oUv1OfOHwBM/x4EGlfAkT07Cqk6kaIcMirgh9/j4VEBFjNEFNAc2reCkxKz8wesPgJwU0sGaeYWAJmyozAWUVoANPYtKOPeANTovfsNN7RDtPr79VzFkYO08XdFZC5Ab/GoAIsFRVVCutP4kX/CiLtkZ5HJ0iMAimb+WHDnz+IJCdCwQKLMgwAAIABJREFU96FMeh5wRnmPkaAJ0da/zh8AzMC+iM8F6MlXRwW8CHq9vNMgixhV103D5fy9p2RoQnf+gJVHAH6ybxAp6hYAvOUviwuUuR009RlQdm1Mrmfu9cBs9A6oDcWRidTSu0FKzzsCRosQAkGfHwFPO4L+gS2HZIlNNwyhO11/8Ywr+o7sLFZg2REAhdSfCO78WTww2qBM/g9o2Pvd7tkfFaaA2Tzww3rMQBMC+9+GkXtaBEL1DxHB4XLC4XLCDIc7lxN6PDB5t0HWB87kZKHp2jPtx3Hn38WaIwBLmoZQCJ8BMGRHYazfSEAZsRJ0/AuAwxPTS/dl45+eKHoaUkvvBanW+nXkWwSsN0hRkZSRBoTN59rHFp0nO4+VWHIEQAnhJsGdP7MxSq8HTXs6ZsP9RxIRePffxQwegH/fG3DmnxmxNiNBcxjQHAZEWjpCfh8CPh8XA+wwmmEgKT0DoVDw5Q7u/L/CeiMASxqLKERbwAUAsyMtACp9FcrY5QD1fvOdSBIdQYR3RHaCIWkpSBt/D0i19l05IUwEvT4EvF4EAwFeUpigiAjOlFQ4k5MQ9PvebB9dEJm9reOM5UYAlCD9WBB3/sx+qGg9lKlPA+4WqTnMPmz721si1Abf7lfgKlwU8bYjiUiBw+2Gw+2GaZoIer0IeL0IBXjyYKLQHAaS0tOgaBqCfv+73PkfnbVGAH6yJ48UvRaAS3YUxnrN4QEd/zyUkStlJ4EImghvbQai8MaXVAOppfdA0dMj33iUdRUDQZ8XwUCQRwbiECkKXKmpMNydo1RBv7+qffSgcsmxLM1SIwCKol8vuPNnNkJDPoIy9V+AMzKH9gyUaPJGpfMHABH2w7frGbiHXh2dC0SRoihfHFUsTBNBvw9Bnw9Bn5/nDNgdEQyXC66UFJDauXV10O/7qH10AXf+PbDOCMCSxlQK0Q4AabKjMNYjVyuUE56O2ha+/SKA0OYmIBzFDo1UpI67A6qrMHrXiCFhii+LAb+fjyy2Gd0w4EpLg6p9+V426POvax+dfzwoVmtu7cs6IwBBXAPizp9ZnzK8CjTlWUCP/L32gTBbfNHt/AFAhOFteArJI2+M7nVihBSCw+WCw9U58BgOBjo3HfL5EQ7yvAGr0hwOuFJToDkOny4W8vs/aR+dP4k7/96xxgjANUKn3OZtAIpkR2HsqIw2KNP/aa13/YcI17ZA+GKz8iBlzM+gpYyLybVkMcNhBH1+BP0+hPx8q8AKdKcBZ3IKNMdXd6YMBXyb20YOGguStPzGhqwxApDTfB6482cWRkM+hnLCPwGjXXaUbomOYMw6fwDw1j+JlLG/hlXeQ0SDoqowktwwktyAEAiHggj6Awj5fQj6g4jaZAt2OOocpXEmJUPVu++yQsFgXdvIQaXc+ffN/2/v3uOsKuu2gV+/tffMcGYOHBRQPHBGPKEpggoCM6ChyaGyMuv1Keu1rHyyelJrioFOlpZlZZqmpjUwA4iKDCqYvepj59LU8gSSIqc57tPae92/9w9ABpjDnpm997322tf38+EDMXuvdYEx69r3utd9+6IAiMjn+Y+JfKkoBueMVZDj/9d2ki6Zxt5v+tMbqchrcPc8jeKKmTk9rzUiCBUVI1RUDAwaBFVFKpFA0nWRSiTgJXu+5TJ1LRQOo3j/xlDiOJ2+zku621pPHDkRIrxn00P2C8CNe2ZA9T22YxAdToa/Amfmr4ABe21H6ZpnoG25LQAAEPvP/SgqO9PqRkG2iAiK+vVDUb9+APZtY5xy3YM/knzUsDfEcfbPyRiAcHFRt69Pue5brbuSkzCOF//esF4AHJXP8J8J+YpjIFMfhTN1A+D4f1a4aUxYGUAz7h7EdzyI/qO4wqo4zqGFQPdNKDxQCDzXheETBh1yQg6K+vXf9/dXUox0byul3OQ7rVFMwDnH9G3LywJm9wZe9c6jJBXeCqDwPkKQPw1ohDPzbsjwV2wnSZv3ahPUtXPrU5xiDDnpB3CKh1k5fz4xngcvmUTKTcJLuvCSyQItBYJwcRHCJSUo6tcP4aLuP+kfzku6u0MSGdd44onNWQhYMOyOACSL/guivPiTL8gxf4Vz1v1AcWZ20csFjSStXfwBQI2L2Pb7MPCEz1vLkC+cUAhOKPTuKAGwvxSkUvCSyf0/p2BSyUA9cSD7508cuOiHi4sh0vvPnp6b3CuxxITGk3nx7yt7IwDV6kiq8TUAY61lIAKAUBJyej2c8b+znaTHvO1t0Nbc3/8/3OCJX0d48GTbMQLDePvKgJfyYFIpGC+1ryx4nq/nFjihEELhMJxwEcJFYYSKiw9ZpKevvGSy2WjL+Lbx43dl7KAFzN4IQKpxAXjxJ9sGNMKZdQdk2Bu2k/Scpcl/HYlu+xWGTFkJSOeztSl9TigMJxRGR4PjxvPe/aGeB+MZGGNgzP7/bQzUKDI9MUREII7ACYUgTnjfiEbYgeOEEAqH4ISKIE72PlN6yVSr52Bi5ARe/DPFWgEQ4Cpb5yYCABn5MpxZdwEl/ljHv6dMk53Jfx3xYm8gsetxlIyYbztK4B24ldAdVd33Y38hOHBbQdUc/P+NGigAgQD7h+X3XcQFIvsmN4rjQMRBH0bt+8ykkpFkmzs5duox79hLETx2/pNW7xolqdBW2J6DQIVJFM7kxyCnrAPyeMVQm5P/OiJOfwyZdnNe7hZI/mVSqWjC9abGJx/9hu0sQWNnvC4VugK8+JMNRTE4s2+DnLo2ry/+tif/dURNDLHtv7YdgwLE87y4cd3TePHPDgsFQEWgH8/9eanQyeCdcKpughz9T9tR+sw0+ePe/+HcPU8h1fq87RgUAMZLJYwXnd46ecy/bGcJqtwXgBsbZwEyPufnpYImR/8TzoLvQobssB2l7zz1xcz/zkS33gkol8al3jMpz01F2t7TNn5s/rd1H8t5AXBUrsj1OamwORM3wzn/p0BRMBYMM62ubyb/dcSLv434jodsx6A8ZTwv5cbj50amnfB321mCLrcF4Atv9lco1w2l3HBScGbcA5m+Oi+W9E2XNvv30/8B8bfXwCQ4YZt6xqRMym2LnBebesxztrMUgtwWgEEDFgEYmtNzUmEqjsKZ8xPf7+LXU+p60Kj/h9fVuIi8cTt8PVRBvmJUvVQ8viB28nHP2M5SKHJaAATykVyejwrUwD1wKr8PGRm8uUP58On/gFTrC0js3mI7BuUBNZ5JJSMXRqaOedx2lkKSuwLwlaYyKKpydj4qSFK+FaGq7wVjst/h1L+z/zsTe/NeGNfn2ymTVWqMcWPxRZHxxzbYzlJoclcAwt5ScNc/yiIZ+TKcuT8E+uXnyn7d0UgSSOXXXAb1oohuvcN2DPIpNUYT0fgHo1OOecR2lkKUswIgKpfl6lxUeGTsn+DMuQ0oyq9PyD1h8mj4v71k85/hNj5rOwb5jKrRlJu4LDZ1zCrbWQpVbgrAV98ZCcF5OTkXFRxn/O/gnHMX4KRsR8keBbTNtZ2i12Jb74Km2mzHIJ9QVU3GIh9vmzj6t7azFLLcFIBQ0RIA3e9eQdRDMu0RyJm/zetlfdOhLQnA5O+f0aSaEd32S9sxyAdUoW4icVVk8thf2c5S6HJSAMTo4lychwqLnLIezrSHbcfICdOav5/+D3D3Pg13L5/wKmSqUDca+0x04qhf2M5CuSgA1S3DIHJ+1s9DhUMUcnodnKmP2k6SG0bzevi/vejWO/hUQKFSRTIWvS46ZfRttqPQPtkvAKnkJeDOf5QpBy7+k56wnSRnTIu/l/7tCfUiiL7xUwTmD0RpUiRisesjk8d833YSOijrBUAgHP6nzBCFnPFbOBM3206SU/m0+E86ki3/QGJX4RQ4UiRi7teik8estJ2EDpXdAlC9cxCAC7J6DioYcupaOOOfsh0jt1IGGvP/0r89Fdt+L/cKKASqSERiK6KTjl5uOwodKbsFIBlaCKBfVs9BBUFOfgjO5Mdsx8i5IA3/t6deHG2v/QjQAD+6WehU4cYS349OGXOD7SjUsawWAEdkUTaPT4XBmbIJzkkbbMewQluCMfmvI17kVcTe4howQZWIxW+NTB71Rds5qHPZKwDLNKTAwqwdnwqCM/4pyKlrbcewIxnM4f/24jseRLLlH7ZjUIa5sdgvo5NHX2M7B3UtewVgUuPZAIZl7fgUeDL6ecj0WtsxrDEBefSvS6qIvvZjmGSz7SSUIW48fk9k0ugrbeeg7mWtADgKDv9Tr0nFVjgz7wSc/Nr8JpOCPPzfnkk1I/rGbQjkZIcCk4xFV0cmjrrCdg5KT9YKgAIXZuvYFGwyaBec2T8FwoVxAeyQZ6DRYA//t5ds/hviOx6yHYP6IBmNrWmbNGaZ7RyUvuwUgOo9YwCclJVjU7CVRCAX/AQoCeaWvukKwtK/PRX7z2+Qav2n7RjUC24i/nDb5NFc8yXPZKcApFAFQLJybAou8eDMuhMyaJftJNYVyvD/IdRD5NUfwiQbbSehHkjGY49HJox6r+0c1HNZKQCOOFXZOC4Fm5yxCjLyZdsx7PO0oIb/2zOpZkReuxVQz3YUSkMykfh928TR82znoN7JfAFYpiFVnZvx41KgOeOfKrxV/jqhkWAu/pOuVOs/EfsPt4n3u1Q8/r9tE44+13YO6r3MF4AJe6YDKM/4cSmwpGIrZPpq2zF8oxDv/x8uvmM9kk3P2Y5BnUgm4n9pnXD0DNs5qG+ycAvA4XAQpa84Cpl1J+BwSdgDtI1/F4Ai8vpt8KLbbAehwyRd9/m28UdPh0gBj1MFQ8YLgAjmZ/qYFFCicM6+FzJwj+0kvqHRJGAKd+2D9tSLo+2V70KTLbaj0H6pROLFtnEjT+XFPxgyWwCq3xoAgMNClBZn0uOQMX+3HcNXtK0wJ/91xri70fbaD7hpkA+kEu7rreOPOgUinKEZEJktAKmSWQBKMnpMCiQZ+jbk5PW2Y/iOFsLyvz2Uan0J0Tfvsx2joKWS7tbW8SMnQYQNNUAyWgAckTmZPB4FVCgJOecuIMRPdYdIGmiCH646ktj5KBI7N9mOUZA8N/Fmq7ZOhAjbacBktACoggWAuiXTHoaU/cd2DN8piM1/+iD65l1INv3RdoyCknLdd1qiMhnjxydsZ6HMy1wB+NKuwQCmZ+x4FEhSvg3OpMdtx/Al3v/vhhpEXv8xvNgbtpMUhFQyubPEaxqPU46K2M5C2ZG5AlDszAQQztjxKHgcAznzNwW9w1+ndP8CQNQl9eJo+9d3YNzdtqMEmpd0d4elbcLuSZMKe1OOgMtYAXAg52XqWBRMzvgnIRVbbcfwJY0mC3r1v54wycZ9jwd6MdtRAslLJhuRSE5sPPHEZttZKLsyVgAUYAGgzvVrgZzM7V47U6hr//eWF92Gtle+BzX8e8skL5Vq8RxMbpl6zF7bWSj7MlMAvvBmfwBnZORYFEhy8kNAUdx2DN/SCC9kPZVq/Scir93CjYMyxKSSkWSbOzVywsh3bGeh3MhMARg06D3g8//UCRmyA86Jz9qO4V+eQuN8JLI3kk1/QuSNn4H3T/rGeKmIG/emxE4Zs912FsqdzBQA1XMychwKJDltDcDFwzqlMd7/7wt3z1OIvflr2zHylkmlogk3Oi02dRQ3XigwGSkAIpiZieNQ8EjZm5BRL9iO4Wsc/u+7+DsPIfYWd5TsKc9LJUwqNT0+6bjXbWeh3MtAAVCB4qy+H4eCSE56FOC+IV3i8/+ZEX9rNeJv19mOkTeMl0qYWGx668RRL9nOQnb0vQD8z+7xAIb1PQoFjQzdARnzN9sx/M0zUJe3RzIl9p9ViL+9xnYM3zOe56ZS7tltU8dyeK6A9b0AOGHu/kcdm7CFn/67oRFO/su02H9+i/g7D9uO4VvGM8lkNDYrMmHMX21nIbv6XAAc6HsyEYQCJpyAc9wfbKfwPY1x+D8bYm/ei9j2+23H8B3jmZSbiJ8fPelY/uOkvhcAFXAEgI7gHPdHPvefBo1xBCBb4jseZAlox6h6qXhkYWzymGdsZyF/6FsBqH5rAIBpmYlCgXLcc7YT+J/h8//ZFt/xIKJb7wC0sG9FqRovlYxcGJky9jHbWcg/+lYAkv1OBzcAosP1a4UMe812Ct/TWIrP/+dAYtdjiGz9WcGuGKjGGDcauzgy/tgG21nIX/p4C0C4/C8dwRnzd+74lwYO/+eOu/tJtP37WwW3gZAao4l47P3RKcc8YjsL+U+fCoAjemamglCAjHzZdoK8wA2AcivZ8jxaX/46jFsY+9yoGk3Foh+KTT6GiyNQh/pUAFQ4AkBHkhGv2I6QFzTBEYBc86Lb0PryN+DF37YdJatUVZPRyBVtU479je0s5F+9LwDVe4ZAdVwGs1AQDNwD9Oc24t1KGiDFCQA2mMQ7aP3n/yDZ9CfbUbJCFeq6sU9Fpoy913YW8rfeF4Ckc2qf3k+BJEO4k2g6eP/fLjVxtL36fcR3PGg7SkapQt1o7LPRCWNut52F/K8PF3DD4X86ggzeaTtCXuDwvw+oQWz7/Yi88TOoyf/5GKqKZDR6bXTK6J/YzkL5odcFwBE5NZNBKBiUw/9p0XhhPpLmR+7uLWh96Wsw8R22o/SeKtxY7PrIlDG32I5C+aPXBUCB0zMZhAIinP+fpHKBtwD8xYu+jpZ/fgXu3nxcJE+RiMW/Hp08ZqXtJJRfelcAql/vB2BiZqNQIIRYALqjSQN4XCfBb9TEEXnth4huuwtqXNtx0qOKZDS2Mjp59DdtR6H807sCkCw7CVwBkDqSGGA7gf/x/r+vJXZuRMsL1yHV5vP1LFThxhI/aJs85nrbUSg/9a4AiHdKhnNQQIg72HYE3+P9f/8ziXfQ+vI3EXtrNaD+LGyJRPzWyORR/207B+WvXhUAR3BypoNQMGjjKNsRfE9dFoC8oB7ib63eNxrQ+oLtNIdwY7E7oxNHX2M7B+W3XhUAVWEBoA7p3rGAiu0Y/sZbAHnFi7+N1n/VILr1F1AvYjsO3Hj8V5FJo//Ldg7Kf719CmBqRlNQcLj9oe9MsJ3CvxRQlxMA844qErseR/M/Prdv8SC1M9k1GYuvjkwc9TErJ6fACfX4HdW7RolxbsxCFgoKrwhy7F9sp/AlTXrQvXHbMai3jItUyz/gNj4Dp6gMof6jAeRmxCsZja1pmzx6aU5ORgWh5yMAKeekLOSgANHtp0L3Hms7hj/x/n8gmPgORF69GS0vfAnu3v8HaHZHddzIng1tk0cvzupJqOD0vAAoWACoa8aB/uGDgOn5AFPQcfg/WLzYm4i8diuaX7gWiXceyfwcAfUQ3XoHIi9ePR1r503L7MGp0PV47Mq5vvFOFf0/2QhDwSLH/QHOOXfbjuErZkcEppG3AIJKnGIUlZ+D4vJZKBo8GZDel2Avug3RbXe2W49AdkO9Six9jPfXKCN6XADkhr3PAjgrC1koeJqcedc9KyOiC2wH8QvvzVZoW56sMkd9IuHBKC6djvCQaQgPmgynuLz7N6ki1fYCErs2w218FtAjbhk1Ak4Vljz6h2xkpsLSwwKgIjc0NgIYmpU0FCTNqqYSK4Y9F3pm8X0ypOTDOZor5Wveq01cB6BAOcXDEOo/Ck7JUXCKKiBOEeCUQFNtUK8FXmw7Um3/hnrR7g7VDHEWYvGj+bhxAflIz74lX7/nGBHZlqUsFBytKlqF5RXvfoMKPX3p3TK03xUFXQIUSL28B1DbQSgAIhBcjMUNT9gOQvmrZ5MABZOzlIOCI6qQi9tf/AHAO2fNx0xz4se2QvmBpgwv/pQpA6FYj7qqebaDUP7qWQFQZ1KWclAwxNSR96KmbEtHXzTn1H/WNCZuzXEm/+DQP2XWAEAfwurKRbaDUH7qUQFwoBwBoM64arAM3yzb3NWLzMz6a0xj/DsF+Uk4xUcAKeNKIFiN+qpLbAeh/NOjAqACjgBQR1w1WIyV5Q+n82Izc81XTFPiGzCF1QKUBYCyoxiqtahfwIWCqEd6uhAQCwAdzlPRy9O9+B9gZtZXm6b41wqqBLAAUPYUQ00tVs//iO0glD/SLwDVe4YAOCp7USgPpVT1MiyvqO3Nm82stctNU+y6QikB6hXGn5OsCUHkbtRXfdR2EMoP6ReAZIhbvFF7ngo+jhUVq/pyEDNr3U2mOX4NTAG0gBQnAVLWhaD6S9RXfdx2EPK/9AuAY1gA6ABV6KexvPy+TBzMzFx7q2lNXA2jwS4BqWD/8cg3QlC9E/Xzr7YdhPwt/QJgZFwWc1D+UIVehZqKX2TyoGbG2p9qk/vJII8EKAsA5Y5A5VbUV15jOwj5V9oFwBEdn80glBdUgc9m+uJ/gDer/g5tin8EXkBLgMdJgJRTAsUtqK/8gu0g5E9pFwAFOAJQ4FTlWtSU/ySb5/BmrbtfGxPL4GV5g/VcC2inId8TKH6Auvk32g5C/tOTxwA5AlDAFPgqVpTdkotzeeetrdMW92KkTHBmzfEJALJKvom6+d+2nYL8Jb0CUN1YCqAiu1HIrxTyNdSUfyuX5/Rm1j+sLYlFSB65H2o+Uo4AkHXyZZYAai+9AuDJiVnOQT4lgptQU7bcxrm9WWs3pFqj8zXppWycP6NYAMgX5MtYXfk92ynIH9K8BeCxABQgEXzXLC+/zmqIWQ9ullZzgSZNfpcAFgDyC8EXUVd5G7SgN+cmpFsAlCMAhUagPzTLy79sOwcApGatfsrbGz1Xk17SdpZe4/Wf/OXTqK/8Gaqre7ocPAVIWv/xHeD4bAch/xCVO0xNub8eHZqz/lmvOXa2up5rO0rvsAGQ73wS056+nSWgcKX1H14hLAAFQlTuMCtKPwmI/65Y563/s9ecOENdL247So/572+TCACuxMnP3IfNs8O2g1Dupdn8lAWgAAj0V6ao9CpfXvwPOH/dP7xY8nR1TX6VAM4BIL9SvQyNRb9mCSg83ReAanUAHJP9KGSTAPebl8uvRLX4fwGeGWte9JrNFE14EdtR0sf5VuRjKu/H3uIH8PPpRbajUO50XwCSe0cDKM5+FLJH60247Aqskvx55v78Va97Te5JeVMCAr7PEQXCUgwrX4O7ZvezHYRyI41bADI2+zHIGsE63Vn+QVRL/j1mN2ftG14kPkFjXovtKN3iNCvKC3IRhhSvQe2M/raTUPZ1/23JwXHZj0FWKDZqU9kHcLvk7+N1sx58y9udHK/xVKPtKF3iHQDKHwsQHvQIamcPsh2Esqv7AqDgCEAQqWzSoub34VZJ2I7SZ1VrdnrN8QkaT+21HaVzbACUR1RmI1z8CNZdPNh2FMqebguAozg2F0Eop36vicSlqD4+v2bSd2XO+t1eJDpOY6ldtqN0SFgAKM8ozkUqvgH3LRxiOwplR7cFQIUFIGCe1nBqIW46Kj8mz/XEuQ83erHEiRpN7rAd5Qi8/lN+mon+3hOorSq3HYQyL52pSXwEMDieVddbgOoRbbaDZM2sB1u9Vhmv0eRbtqMcgiMAlL+mI6SbUD+XO8IGTDoFgCMAwfAXTTkX4rvDW20Hybo5q9q81t0naiS5zXaUd4VZACivnQ4Tegy1C4fbDkKZ03UBqN4zBAAngeS/v2o4NA/fLvX3TPlMmrMl7g2Q8RpxX7UdBQDE4XOAlOcEpyLkPYm6qqNtR6HM6Pq7kiv89J/vBC+pSS5A9VAfz5DPkqmrXE8qJpto8t+2oyDEEQAKhMkQ3YzaC0bbDkJ913UBcHRMjnJQdryoXnI2Vo58x3YQa864PWmmr55k2tx/WM0hAByWAAoAxUSEwk9hzYLjbEehvuluXJITAPOW/lvD3ryCvvgfIDDmzLpTTZv7N6s5OApAwXE8jLcFdfNOsB2Eeq+7AsBhnvy0TdWZj+rh/poJb9O+EnCatiSesxaBBYACRcYCzmbUVo2znYR6p8sC4EBG5SoIZcxWVTkPK8q22g7iOwL1zq4/S1vcp6ycvyhk5bREWXQsQvoUahdOsR2Eeq7LAqAKzgHIL9sVzlxe/LvmnV13nja7j+X6vBLmkwAUSEch5D2B+sqTbAehnun6O5KAIwD54231vLmoKfXFY29+582om68t7oacnrSIBYACayQUj2P1gpNtB6H0cQ5AMOxS0fn41vB/2Q6ST7yz6y7UZvehXJ2PIwAUcCMgZgvqFpxpOwilp/PvSNVaDIBLP/rfbhXMxfKKF2wHyUfejLpF2hz/TU5OVsw5ABR4ZYBpwOrKs2wHoe518ZGk8ShwCxO/a1J1FmJ5ud1n3POcN2PNZdocvw+a3fNICQsAFYRSCDaifsEM20Goa50XAM9wuUd/a1Y1VVhR+kfbQYLAm7HmctMUvSOrJcARgLcBqDAMhZpNqK+8wHYQ6lzn341M6Kgc5qCeaVXRhVgxzNoz7UFkZq77hGlO/Dib5+AoABWQgVCsR13VPNtBqGOdFwBHOQLgT1GFXIzlFc/YDhJE5pz6z5rm+I+ydXwpCWfr0ER+NADQh7C6cpHtIHSkzguAysgc5qD0xBTOItSUbbEdJMjMjDWfM43x72TjdgBHAKgAlUCwGvVVl9gOQofqtAA4qrwF4C+uGixDTekTtoMUAjNzzVdMU+IbMBluAf05AkAFqRiqtahfsNh2EDqo0wKgjnIEwD9cNViMleUP2w5SSMzM+mrTHL8xkyVAikPcFZAKVTHU1GL1/I/YDkL7dHULgCMA/uCp6OW8+NthZq6tMU2x6zJWAgSQ/rwNQAUrBJG7UV/1UdtBqOuVAEfkLAV1xlPF5VheUWs7SCEzs9bdZJoTn4NqRlqA9CvKxGGI8lUIqr9EfdXHbQcpdF0VgOE5S0Ed8VTwUawof8B2EALMzDU/Mi3R/wvT9xIgA1kAqOCFoHon6udfbTtIIeu4AHzhzf4AhuQ2CrWjCv00lpffbzsIHWRmPPgzbYxfAa9v9wNkQBHX2CQCBCq3or7yGttBClXHBWDoQH76t0cVehVqKn5hOwgdyTt37b3alPhwn0qjWBBxAAATOklEQVSAAMKnAYgAQKC4BfWVX7AdpBB1XAA8wycA7FAFPsuLv7955659QJvdpfCM6e0xZEBxJiMR5TOB4geom3+j7SCFppMC4AzLcQ4CoND/Rk35T2znoO55s9bUa1P8ffC0VyVABnMeANGh5Juom/9t2ykKSccFQIRPAOSYAl9FTcXNtnNQ+rxz161HU/QiJI3X0/dKvzA3BiI6gnyZJSB3OvkOZDgHIIcU8jXUlH/Ldg7qudS5Dz6aao3N16SX6ul7ncG8DUB0JPkyVld+z3aKQtBhAXBEynMdpFCJaA1qypbbzkF9MOvBzV5T4nxNmWRP3iYsAEQdE3wRdZW3Qfm8TDZ1PAKgwhGAHBDIzWZ5BSe+BMH565729kTP06SXdgmQgUVAiLcBiDrxadRX/gzV1fxHkiUd/sWqGI4AZJmI3mJqyq61nYMyaM76Z73m2Nnqem66b3GGcBSAqAufxLSnb2cJyI5O/lKFTwFkkajcYZaX8+IfROet/7PXFjtdXS+ezsultF+2ExHluytx8jP3YfNsLp6RYZ21qoqcpiggonKHWVH6SUCysNs8+cKs9S94u5OnaNyLdfdS6ReClHBzIKIuqV6GxqJfswRkFkcAckiAe0xR6VW8+BeAeWv+5cVkmia8SHcv5SgAURpU3o+9xQ/g59O5iEaGdFIAtCy3MQqBrDbhsitRLb1ePY7yzMzfvupFYlM0kWrr6mVOaTHgcLIzURqWYlj5Gtw1m605A44sANU7BwHgzKSMktUaLr0M1dLjZ8Upz81av81r9SZoLNXc6WscB87QkhyGIspnchGGFK9B7Yz+tpPkuyMLQLKI9/8zSbFBm0s/wot/ATuv/m3vnbbxGvcaO3uJlPfjDoFE6VuA8KBHUDt7kO0g+ezIAqDg8H/mPKJFZe/DrZKwHYQsu3DDLq85NkHjqb0dfVmKQ/vWBSCi9KjMRrj4Eay7eLDtKPnqyAIQZgHIDHlMw81LUC1pPxNOATdn/W4vEh2nsdSujr7sDB+Q60RE+U1xLlLxDbhv4RDbUfLRkQXAQ6mFHMGi2Kzh2CWoPj6tZ8GpgJz7cKPXghM0mtxx+JekX5ijAEQ9NxP9vcdRW8UF7HroyALAVQD76mktSl2M6lFR20HIp+asavP29B+nkdRbh3/JGcFRAKJeOAMh3YT6uZzD1gMdPQbIEYDee1ZdbwGqR3T52BcRqu6NeLvaTtBIcmv735Z+YcggPoRD1Aunw4QeQ+1C7mWTpiMKgAPhHIDe+auGQxfhu8NbbQehPHHhhoQ3QCaYNvfV9r/tHDWQTwQQ9YbgVIS8J1FXdbTtKPmATwFkxt/UC89D9dAOZ3gTdWrqKtdE9kwybe5LB35Lihw4ZVznhKiXJkN0M2ovGG07iN91MAcAQy3kyGfPazg8D98assd2EMpTc7akzJl1U01b8oUDv+UMH8Ctgol6SzERofBm1C0cYzuKnx3xHUaFcwDSJvIvNV4lqofsth2F8pzAmDNXn2xak38FADiCECcEEvXFeCD1e9TNO8F2EL/q6BYAC0A6FK9oKDUHK4e/bTsKBYTAmPesPl1bEs8BgJSWcEIgUZ/IWMDZjNqqcbaT+FFHY4y8BdC9bVok81E9/IjHuIj6RKDe2fVnaYv7OwAIHTWQGwUR9c2xCOlTqF04xXYQv2EB6Lk3Fc5sVJe9YTkHBZh3dt352uZuQZHDtQGI+u4ohLwnUF95ku0gftJRAeC6yp3brnDmoKb0ddtBKPi899TN0Rb3EaesH28FEPXdSCgex+oFJ9sO4heHFQAVsAB0QncqTCVqSl/t/rVEmeGdXXeRNrsPhY4eBIT5VABRH42AmC2oW3Cm7SB+cOh3lC/tHgQgZCeKr+1SwQWoGfai7SBUeLwZdYs0kqwNjRrEBYKI+q4MMA1YXXmW7SC2HVoAioQ7Kh2pUY2zAMsrXuj+pUTZ4c2o+wBS3n3OiAFqOwtRAJRCsBH1C2bYDmLToQVAwAJwqEYVmYuVpX+2HYTIm7HmcojeKUOLWQKI+m4o1GxCXdUc20FsObQAKO//t9OiahZgedlfbAchOsDMXPcJ6Vf8QykJe7azEAXAQEAfQl3VPNtBbDi0AITCLAD7RFRlEVYMe852EKLDmVn1X5AhxStR7KRsZyEKgAGAPoTVlYtsB8m1QwuAURYAIKqQ92JF2e9sByHqjDlv7dec/uEvIiRJ21mIAqAEgtWor7rEdpBc4i2AQ8UUziLUlG2xHYSoO2beQz9EcdHHIYjbzkIUAMVQrUX9gsW2g+TKYZMAdZClHH4QV0cvRU3pE7aDEKXtwod+jZLwRwCWAKIMKIaaWtRXfth2kFzgCMA+rirej29WbLQdhKjHLnqkDgaLAcRsRyEKgBAUd6Ou6kO2g2TbIQXAcXSgrSAWeSp6OVaUr7cdhKjXljVsAOQiAG22oxAFQBjQe7C68grbQbLpsBEAp9BGADxVXI7lFbW2gxD12ZKNmwEzH8Be21GIAiAEwS9RX/UJ20Gy5fC9AAppDoBRwcewovwB20GIMmbJY89CcD6A/9iOQhQADlR/jrrK/2s7SDYcvrtIodwCMCpyJZaX32c7CFHGLW54HgjPBMDlq4n6TgD8GHVVn7cdJNMOKQAKFMIIgCrwGSwvu9t2EKKsWfLIVjjuLIg8bjsKUQAIoDejvurLtoNk0mFzAAI/CVAV+Cxqyn9qOwhR1l26pQm7di8EcLvtKESBoPpt1FXeYDtGphy2DoAEugAo8D+oKf+J7RxEOXPVn5JY0nAVgGsAcOlgor5bjrrK5bZDZMLhcwAGWEmRAwp8BTXl37Gdg8iKJQ23wjjzAeyyHYUoAG5AXVXeX08OXwgokAVAIV/jxZ8K3rJHtwCh0wE8azsKUf7TL6Gu8mYoxHaS3jrsFkDwngIQwU2oKQvEcA1Rny3ZsB3e0PMB3AJAbcchynOfR33lj/O1BBwSWm7Y2wRgqKUsGSeQm01N2bW2cxD50urKRRD5JaDDbEchymuKX+D5cz6F6mpjO0pPBHYOgIj+iBd/oi4sbViPsDkFwGO2oxDlNcEncPLTv0TtspDtKD1xcASgWsOSagzE3uKiuM2sKPsMIBziJOqOQlBf9TlAVwLobzsOUR67H+XuFZizJS+euDk4AhDdHYh/+AK9yxSVfZYXf6I0CRRLNt4CBScIEvXNh7C3+AH8fHqR7SDpOFgABvTL+wIgwD0mXP5fqJa8ug9D5AtLG16CN3QWBNeBWwsT9dZSVFSsQu2yYttBunPwFsD1jWNF9A17UfpKVmu49DJUS14MvRD5Wm3VOITxM6jOtR2FKD/pw2hJLsXHt8RtJ+nMwREA4+XxCIDW8+JPlEHv3/gKLt04H5CPAthpOw5R/pGLMLR4HWpn+PbaerAASKifxRy9J1inO8s/yIs/UYbtmxtwL0qKJgG4DYBnOxJRXlFUIjT4YdxT6cs1dg4WgJDxbUvpQoOGmj+I2yUQTy8Q+dJ7H27EkoarITIdwJO24xDlmTkYhA1Yd/Fg20EOd7AAaCjPCoA8puHmS1B9vG/vrxAFyuKNf8OShtlQWQrgVdtxiPKG4lyk4g2oneerhfbaLQRk8ukWwO81nngfL/5EFizdWAdv6BSo/jeAPbbjEOWJsxFyHsNDF5XZDnJAuxEAzZcRgN9r3F2Am46K2A5CVLDev8rF0k0/gOOOA/AtAPz3SNS9M5BIPY71s32x/Ha7EQDJhxGAZzWsF/HiT+QTl25pwpKGr8ILj4PiRwAStiMR+ZuehkTxE1g3d6TtJAcLgKMlFnOk468aDl2E6ooW20GI6DDvf2QHljZ8DgiNw74nBlgEiDojmIZUaDPqqo62GSNfRgD+pl54HqqH7rUdhIi6sGTDdixpuBoIHRgRiNqORORTkwF9EnULx9gK0H4OgD9HAAQvqUlW4VtDONmIKF8s2bAdSxs+B8HxgKwE0GQ7EpEPjQe8J1F34VgbJ29XAMR/BUDwknrJ2Vg58h3bUYioFxY37MSSjdcj3O/Y/U8NbLMdichnTgCST6Ju3gm5PnG7lQB9VgAUr2jIm8uLP1EAXPJgK5Zu+gHK3RMhuAzcdZCoHRkLOE+ifu6EXJ7VOfgLX90C2KZFMh/Vw9+yHYSIMmjOlhQWN/wGSxpmwJGzILgPnDBIBABjoKEtqJ83OVcn9OMIwJsKZzaqy96wnIOIsunSjc9hccPlEBwL6PWAbrUdiciyo6HOFqydNy0XJ2u3G6D6Ye/i7QpnDmpKX7cdhIhyZHHDTizZtBL/mHkCVC8CsBYAN/eiQjUCXugJrJ53WrZPJAd+4dyw93YFPpHtE3ZOdyp0NmqGvWgvAxH5Ql3V0RB8FKofAzDJdhwiCxqhWomlm/6YrRO0KwB77lbIFdk6UTd2qegcLK94wdL5iciv6hfMgPE+CpEPAPDNOupEOdAMcRZi8aPPZOPg7RcCsnULoEmNs4AXfyLq0OJHn8HSTZ9Giztq/06Ea8CJg1QYhkLNRqyqOjcbB393BEBuaFwF6NJsnKQLzarOPKwozdoQBxEF0JrZpdCSS6H4AKBzAYRtRyLKogggi7Bk4+ZMHrRdAdi7DsDFmTx4N5pVzHwsH/aHHJ6TiIJm/exhSJZcCtVlAOaAZYCCKQaj78OyTQ2ZOmD7ArABwIJMHbgbEVW5ECvKfpej8xFRIaitKoejiyB4H4BKAANsRyLKoDggS7Fk48OZOFi7ArDncUAuyMRBuxFVyEWoKduSg3MRUaFav2gAku58qC4C8F4A1rdfJcoAF4oPYGnD2r4eqP0IwFMAZvX1gN2IKZz3oqb0iSyfh4jooOpqByc9fSZELgL0QgCno933P6I8k4Toh7F406q+HKR9AXgWwFl9jtU5Vw0WY2V5RoYuiIh6bd3ckfDCVVCtAjAfwHDbkYh6KAXIFViy8f7eHqB9AfgT9rXibHAVWIKa8oeydHwiot6prnYw7ZlTIZgP1bnYNxLa33YsojR4UFyJpQ2/6s2b2xeAvwPIxvrDnop+CMsrarNwbCKizHpkYQkiOgMhbw4gc6B4DwC/7JVCdDgDkU9h8cZf9PSNBwvAjXtfhGZ8yU1PFZdjRfkDGT4uEVFu1M7oj9CQswE9H8C52HerdKDlVETtKYDPYEnDbT15U/sRgFcAnJjBQEYFV2B5+X0ZPCYRkV0/n16EiorT4eAcGJ0FkRkAjrYdiwqeAnItlmy8Jd03HCwA1+99HYLjMhTEqMiVWF52d4aOR0TkX2sWHAej50D1LAjOAnAqeNuArNAvY8mm76bzyvYjANsBjM7E2RW4GjXlP83AsYiI8k/tsmIUtZwKNWdCnTMAPQPAZAAh29GoINyIJQ013b2o/V4AOwDt60IZqoJrsLz8x308DhFRsKxfNADxxKkI6WlQOQ3AaQBOAmBrIzYKthosabixqxe0HwHYA6C8L2dT4CuoKf9OX45BRFQwfj69CCPKp0Kdk6HmZEBOAXAygBG2o1EQyHexZOOXO/3qu7+4YW8zgCG9PY0qrseK8pW9fT8REe1Xu3A4wt40KKYCmArIVECnoI8f0qgg3YLFDddCoId/oX0BaEMvH21Rla9jRdk3+xCQiIi6s27uSKTCU6A6CcAkOJgExQQAxwJwLKcj/7oNixs+c3gJaF8A4ujFrFUR3GSWl1+XgYBERNQbtTP6wxk6HtDxEJ0AwTgA46E4EcAo2/HIBxS/wPPnfArV1ebAb7UvACn0cIaqQG42NWXXZjAiERFlUu2M/igeOA4p50Q4OB6qJwA4HoLjoXI8uOxxIfkGljRUH/gf7QvAEfcHuiKiPzLLKz6XwWBERJRr6+aOhAmPhZqxgIyF4th9P+uxEBwDoMJ2RMqYOMQbg8WP7wEOFIBlGpKJjal0jyDAT01N2dWA9Kg0EBFRnlm/aAASiWPhYBQgY6BmDICjoXIMBEcBGANgJICw3aCUHl2MJZvWAIeOADQBGNrdW0XlDrOi9JO8+BMREYB9OypOeW4Ewt5IGDMaghEARkGcEQBGQHUURIdDnRGADrMdt6CJXIHFG+8B2jU2ATYo8MEu3wfcY4pKr+LFn4iI3rVvYtmO/T/+1uVra5eFULJ3GLzQcHjOMDhmJESHQWXYvnIgwwBU7PtZK7Dv0cdBWf8zFAqVFw/88t0RANzQPF7g/RGdrAUgwAPm5bLLsUq87CckIiLar3ZZMRApB7Qc4WQ5VMohTimgpTCy72fRUiiGwnGGQrUUQCkgQwEdAq62eMCfsLjhzAOPA8ohX7px91mizq9x6K6AKRH5kXmp9Eu8+BMRUd55ZGEJvNhguOEhcJwyGAyE6iDAGQTRUggGQrU/gCGADAa0P+AMAnQwRPtBZTCAAdj3qHwpgCIAg23+kXrhHShmY2nDSwd+Q454ySe1CCP2zoViCsRphJrHsKLizZzGJCIi8ru7ZvfD8IH9EY0NQMgpgYQGQzQMg4GAFANmAAQlgBRDMRAiDt6da2cGQFECOAJoKQBAUAKVAQAA1f4Q9Nt/piIcehukFO9evzUEyOEj92Xtfr0DwIMI6zdwyaa3MvnHJyIiIiIiIqJ88P8BWhX27A/tCGMAAAAASUVORK5CYII=;" vertex="1" parent="1">
          <mxGeometry x="655" y="415" width="32" height="32" as="geometry" />
        </mxCell>
        <mxCell id="MEudCkV0uJRsMIh7Kl0K-27" value="" style="endArrow=classic;html=1;rounded=0;entryX=0.524;entryY=1.024;entryDx=0;entryDy=0;exitX=0;exitY=0.25;exitDx=0;exitDy=0;entryPerimeter=0;" edge="1" parent="1" source="MEudCkV0uJRsMIh7Kl0K-5" target="MEudCkV0uJRsMIh7Kl0K-10">
          <mxGeometry width="50" height="50" relative="1" as="geometry">
            <mxPoint x="390" y="320" as="sourcePoint" />
            <mxPoint x="440" y="270" as="targetPoint" />
            <Array as="points">
              <mxPoint x="260" y="413" />
              <mxPoint x="260" y="320" />
              <mxPoint x="160" y="320" />
            </Array>
          </mxGeometry>
        </mxCell>
        <mxCell id="MEudCkV0uJRsMIh7Kl0K-31" value="S3 HTTP" style="edgeLabel;html=1;align=center;verticalAlign=middle;resizable=0;points=[];" vertex="1" connectable="0" parent="MEudCkV0uJRsMIh7Kl0K-27">
          <mxGeometry x="-0.2686" y="-2" relative="1" as="geometry">
            <mxPoint x="-54" y="-20" as="offset" />
          </mxGeometry>
        </mxCell>
        <mxCell id="MEudCkV0uJRsMIh7Kl0K-29" value="" style="endArrow=classic;html=1;rounded=0;entryX=0.429;entryY=1.004;entryDx=0;entryDy=0;exitX=0.5;exitY=0;exitDx=0;exitDy=0;entryPerimeter=0;" edge="1" parent="1" source="MEudCkV0uJRsMIh7Kl0K-5" target="MEudCkV0uJRsMIh7Kl0K-6">
          <mxGeometry width="50" height="50" relative="1" as="geometry">
            <mxPoint x="480" y="400" as="sourcePoint" />
            <mxPoint x="510" y="250" as="targetPoint" />
          </mxGeometry>
        </mxCell>
        <mxCell id="MEudCkV0uJRsMIh7Kl0K-33" value="SQL" style="edgeLabel;html=1;align=center;verticalAlign=middle;resizable=0;points=[];" vertex="1" connectable="0" parent="MEudCkV0uJRsMIh7Kl0K-29">
          <mxGeometry x="-0.1453" relative="1" as="geometry">
            <mxPoint y="-61" as="offset" />
          </mxGeometry>
        </mxCell>
        <mxCell id="MEudCkV0uJRsMIh7Kl0K-30" value="" style="endArrow=classic;html=1;rounded=0;exitX=0.254;exitY=0.004;exitDx=0;exitDy=0;entryX=0.5;entryY=1;entryDx=0;entryDy=0;exitPerimeter=0;" edge="1" parent="1" source="MEudCkV0uJRsMIh7Kl0K-5" target="MEudCkV0uJRsMIh7Kl0K-15">
          <mxGeometry width="50" height="50" relative="1" as="geometry">
            <mxPoint x="390" y="320" as="sourcePoint" />
            <mxPoint x="440" y="270" as="targetPoint" />
          </mxGeometry>
        </mxCell>
        <mxCell id="MEudCkV0uJRsMIh7Kl0K-32" value="" style="endArrow=classic;html=1;rounded=0;exitX=0;exitY=0.5;exitDx=0;exitDy=0;entryX=0;entryY=0.5;entryDx=0;entryDy=0;" edge="1" parent="1" source="MEudCkV0uJRsMIh7Kl0K-15" target="MEudCkV0uJRsMIh7Kl0K-18">
          <mxGeometry width="50" height="50" relative="1" as="geometry">
            <mxPoint x="440" y="270" as="sourcePoint" />
            <mxPoint x="390" y="320" as="targetPoint" />
            <Array as="points">
              <mxPoint x="330" y="343" />
              <mxPoint x="330" y="220" />
            </Array>
          </mxGeometry>
        </mxCell>
        <mxCell id="MEudCkV0uJRsMIh7Kl0K-34" value="Copy&lt;br&gt;command" style="edgeLabel;html=1;align=center;verticalAlign=middle;resizable=0;points=[];" vertex="1" connectable="0" parent="MEudCkV0uJRsMIh7Kl0K-32">
          <mxGeometry x="0.1918" relative="1" as="geometry">
            <mxPoint y="15" as="offset" />
          </mxGeometry>
        </mxCell>
        <mxCell id="MEudCkV0uJRsMIh7Kl0K-35" value="" style="endArrow=classic;html=1;rounded=0;exitX=1;exitY=0.5;exitDx=0;exitDy=0;entryX=0;entryY=0.5;entryDx=0;entryDy=0;" edge="1" parent="1" source="MEudCkV0uJRsMIh7Kl0K-18" target="MEudCkV0uJRsMIh7Kl0K-19">
          <mxGeometry width="50" height="50" relative="1" as="geometry">
            <mxPoint x="490" y="260" as="sourcePoint" />
            <mxPoint x="540" y="210" as="targetPoint" />
          </mxGeometry>
        </mxCell>
        <mxCell id="MEudCkV0uJRsMIh7Kl0K-36" value="dbt" style="edgeLabel;html=1;align=center;verticalAlign=middle;resizable=0;points=[];" vertex="1" connectable="0" parent="MEudCkV0uJRsMIh7Kl0K-35">
          <mxGeometry x="-0.2053" relative="1" as="geometry">
            <mxPoint as="offset" />
          </mxGeometry>
        </mxCell>
        <mxCell id="MEudCkV0uJRsMIh7Kl0K-39" style="edgeStyle=orthogonalEdgeStyle;rounded=0;orthogonalLoop=1;jettySize=auto;html=1;entryX=0.722;entryY=1.009;entryDx=0;entryDy=0;entryPerimeter=0;" edge="1" parent="1" source="MEudCkV0uJRsMIh7Kl0K-7" target="MEudCkV0uJRsMIh7Kl0K-6">
          <mxGeometry relative="1" as="geometry" />
        </mxCell>
        <mxCell id="MEudCkV0uJRsMIh7Kl0K-40" value="" style="endArrow=classic;html=1;rounded=0;exitX=0.839;exitY=0;exitDx=0;exitDy=0;exitPerimeter=0;entryX=0.5;entryY=1;entryDx=0;entryDy=0;" edge="1" parent="1" source="MEudCkV0uJRsMIh7Kl0K-5" target="MEudCkV0uJRsMIh7Kl0K-7">
          <mxGeometry width="50" height="50" relative="1" as="geometry">
            <mxPoint x="490" y="310" as="sourcePoint" />
            <mxPoint x="540" y="260" as="targetPoint" />
          </mxGeometry>
        </mxCell>
        <mxCell id="MEudCkV0uJRsMIh7Kl0K-43" value="SSH" style="edgeLabel;html=1;align=center;verticalAlign=middle;resizable=0;points=[];" vertex="1" connectable="0" parent="MEudCkV0uJRsMIh7Kl0K-40">
          <mxGeometry x="-0.1548" relative="1" as="geometry">
            <mxPoint as="offset" />
          </mxGeometry>
        </mxCell>
        <mxCell id="MEudCkV0uJRsMIh7Kl0K-41" value="&lt;font style=&quot;font-size: 14px;&quot;&gt;Otus Data Engineer Project&lt;/font&gt;" style="text;html=1;align=center;verticalAlign=middle;whiteSpace=wrap;rounded=0;" vertex="1" parent="1">
          <mxGeometry x="250" y="80" width="380" height="30" as="geometry" />
        </mxCell>
        <mxCell id="MEudCkV0uJRsMIh7Kl0K-42" value="" style="shape=image;imageAspect=0;aspect=fixed;verticalLabelPosition=bottom;verticalAlign=top;image=data:image/png,iVBORw0KGgoAAAANSUhEUgAABAAAAAQACAYAAAB/HSuDAAAACXBIWXMAAAsTAAALEwEAmpwYAAAgAElEQVR4nOzde7xcV1338Umbtumd3ihQbqUgdwoECgh4UJpk/9Y+SSs6oA/SQKMza83pIYSCFVFOUHzoI6IWFC2oaLSgxdvzRFAsFcHKpdIilQJtgV4obaF3ek2anO/zmjlVKE2ac5mZ39p7fz6v1/uf89fMnrXXXnvO7L1bLWpEWj+xQrF4jqL9lFJ4k1J4n5L9k2K4TMm2KYXvKIYvK4XzlcJfKNnvKIVp9UKhTnGcZiaWe78HIiIiIiJ6cOqceKhSuVLd8Eole4tS+D0lO1fRPqVoX1GyG+9f839NKXxMKbxXvbBJsVynFJ7KWp+ooqnVWqbe6ieqW/6kUnjbYMcf7Oi2QyloCbYPviyI9jeK9suK5Rp1Jo/0fr9ERERERE1J7fa+gxP9nv3C/f/Q+8zcyf2S1vlSDPcq2kWK9kEle6NSeSJrfaJsv+0rVs+d7IePKoWblzwBLGiysKsUw1+qG7rqlk/y3h5ERERERHVJG1Yffv8/9t6raF8c/FNunGv9ZJcr2RbFIqlbHq92e2/vbULUqLTxpIcp2clzP+sJlyrazvFOAnv89vAaxfBn6hav7r9W7+1FRERERFSV+j/FV694uWJ4t1K4OLu1frLvKYaPK4Y3qxee3f/1sfc2I6rfJJCKCSX7daXw2SH8lH+c+pcNfHzw64BeeIT3tiQiIiIiyvJeXalYqxj+RNFuymANvxDfUQrnKJbrWe8TLTL1Jg5Sr/hpRftzJbslgx176frfXg5uQlKu1+mrDvTexkREREREnqlrL1ayPx38V70u6/3+PQkGvw5Y/UTv7UuU//U9czfz6F/Hf4/7DjzSySHcrhjer1i80Hu7ExERERGNdc0fizcMLuX1XpOPnP2XUvg1xfIZ3tudKIs0XeynFF6hGP5ucOdN953U5cuAS9QLr+3f0dT78yAiIiIiGkWDp3Sl8IHa/6Nv9y4efPGxYe3R3p8FkdfPfc6uzc/7h/JFgH1byX6x/1QD78+HiIiIiGgYKRXPUrQPVew+XiNc84f7FO0flOxV/X+Gen8+RCNL08UhSqF3/09h/He+bPWvgbLf1NTJR3h/ZkREREREi6n/s3fF8P+Uwqz/+jpb31EM/1u98Djvz4toaCmFpyrZWYrhjgx2suoYbC87s//FifdnSEREREQ072v859b+97mvp6t188DzlMq22u29vT9DogXXfx6mok0q2afdd6jKsxvUtdO4RwARERER5Vp/raoU3qQUbvNfP1eZXT64MTqXB1Bldvz+Y+5i+LL/zlM7VypZZDIgIiIiolzS+okVg8t8o12VwXq5PqJdr1Sewf3BKMvUmTxAyd6oGL7lvrPU3dw2ntam9v7enzsRERERNTOdvurAwfo/hevc18d1f3z43GXBR3l/5kRz3/jF8Pq5b6gy2EGa9tSAbuiqs3If73FARERERA068Y/2y0p2o/t6uEnm7qf2G0rlYd5jgBpY/6RTyU5RtG+67wy4UqnsaGZmL+9xQURERER1Xv+XHf7jn8UTw87k0gAa3839usWrOfHPULSLFMs13mOEiIiIiOpT/59MiuE1rP8zE8N3lWwjvwamkaVYvFDRPuc+2LEH9kml4vne44WIiIiIqp1SsVYxXOK/vsVDrP2/qmjmPVaoRqlbHqNkZ889n9J7gGOeZpXsXKXyCd7jh4iIiIiqlTqTL1IM/5rBmhbzZucpls/wHjtU4fqPm1O0X1Wyu/wHNBbpHiX7TW086WHe44mIiIiI8k4pPFUpbM1gDYvF2a5ov61T1x3sPZaoYqlXvEQpXJrBIMZw3Dx4juh0sZ/32CIiIiKivNLUyUco2VmK4b4M1q0YxtPCUniF97iiCtT/T/Hczs/P/Wsp2lWDpze0Wsu8xxoRERER+abO5AGDfxKlcJv7OhWjsFXTxaO9xxllmrrhlYp2fQYDFaN3gXrhBd5jjoiIiIic7uzfC69VDN/KYF2KUYp2q3r2C/wDkP6n/jMklWyL++CEh63qFMd5j0EiIiIiGk/qFS9XChdnsA7FeP1z/+buLWp2SuWJfPPXeNsHT3mYLo7yHo9ERERENJrUmXzK3FOi3Nee8Pw1QLT/5T0WySGtn1ihZGdyrT++z27hRoFERERE9UqdySO5wR8eyPqPCz/Me2zSmFJvzdO5wz8ewteVyjbXCRERERFVN52+6kDFMKMY7sxgfYn8XKlueYL3OKURpxR+jkkA82OfVyxf6j1miYiIiGiBN/jrP/Uphev815PIWuz/KqQ8w3vM0gjSpvb+SuED7oMMVTM7+InQaWuP9R7DRERERPTQqRcKJfuvDNaQqJIY/lKnrjvYe/zSkFIvPE4xXOg+sFBhtm1w7VjnxEO9xzMRERERPTB1i6cp2j/4rxlRWTFcplQ8y3ss0xJT11YN7vboPaBQD9FuUrKNarf39h7bRERERE2v/1i3wdOcku1wXyei+uLgUvFXeI9rWmRKZWfuEW8ZDCbUS7SvqFsE7zFORERE1Ngb/PWf3pTse+7rQtRN/xLgzdwQvEJpZmK5or0ng8GD2rPz+k+V8B7zRERERI26wV+06/3Xgaj9fQE2tff3HvO0h/rPc1QMn3AfMGiS7YOfnk0XR3mPfyIiIqK6plSeqBi+lMHaD83xWfXCI7zHPu0mTa17lGK4JIOBgma6efBTtHZ7X+99gYiIiKguKa558uCpTP5rPTTTlf0x6L0f0A+lFJ6qGK7JYICg6QZ3EC3b3vsEERERUZXThtWHK9mZc09jymCNhya7WbF4ofc+QfenVDxfyW7MYGAA3ze4FIVHiRAREREtJHVW7jN3M2/W98hIDHcolmu894/GN7gWiLt/IlfRdirZFm1Ye7T3vkJERERUkev8v+y+hgPSrvR/jWKv8t5PGpt6xU/zmD9UQrRblcKbuD8AERER0YNTtzxeKZzvvmYD0jz+wReLU733mcbFyT+qya7uP7rGe/8hIiIiyiFNnXyEkp2lZDv812nAvM0qFsl7/2lMnPyjBj7LjUSIiIioqfV/FalkG5XCbRmsywAtwqxS6HnvS7WPk3/U7v4AnTWP9N6viIiIiMaVUrFWyb7hvhYD0pLxJcAoUze8UjHcl8EHDQz5jqL2y9rU3t97HyMiIiIaVerY8xTDv7mvvYA0VLP9p1Z471+1i5N/1F60qwbjvNVa5r2/EREREQ0rdctjFMOfzf36MYM1F5CGji8Bhhk/+0ez2OfVmXyR935HREREtJTUmTxAqTyDR3ajIWa5HGAIKdpPcfKPBpod3B+gFx7hvQ8SERERLaT+rxmVyrZSuDKDNRUwTrN8CbCEOPlH48Vwp5Jt1vqJFd77IxEREdGeUiqerxQucF9DAX5m+RJgESmVJyrZtgw+QMBfDNco2Sne+yURERHRrtJ08ejBrxfnTn78106Ar1n1wmu998vKpG55wtx/Pt0/OCAz9kl1y+O991EiIiKifjp91YGDXytGu9t/nQRkZbu6RfDeR7NP3eJpSuHmDD4wIE+DO+jaFm1Ye7T3/kpERETNTDMze/V/nagUrnNfGwG5ina3esVLvPfXvH861H8UmvcHBVRBDHcMvnGfLvbz3neJiIioOalbvkwpXOy+FgKq4TZ+wbuLtGH14Yr2lQw+IKBaYrhMqVjrvQ8TERFRvVNv9ROV7G/d1z5A1cTwLaXVj/Heh7NJnZX7KIXz3T8YoMpi+Lh6a57uvT8TERFRvdJ0cYiS/SY36AbCEth/qjdxkPf+nEVK4X3+HwhQAzHcp2Rna7o4ynu/JiIiorpc5283uK9xgHr4mNrtvVtNTjG8PoMPAqgZu0WpPEPt9r7e+zgRERFVL/XCCxTtc/5rGqB2fqvV1NS1VXP/sXT/EID63h8g2qT3vk5EREQVuil3/2lD/eeYe69jgNqy2GrkTUSi3eq/8YEGiPYPimue7L3fExERUZ7p9FUHKtmvDx5b5r1uAepvu3rhx1pNSesnVijaRRlseKBJtg/uD9CZPNJ7DiAiIqI8Uqu1TKls8yhuIIyZ3aBueUyrCSmFD/hvcKCxblayjZqZWO49FxAREZFf6tjzlMIFGaxNgIayz9T+nl3qhZ/139AAlOyrimbecwIRERGNN02te9TgV4HRdvqvR4DG+61WXes/o1wx3JnBRgbw32L4O3WK47znByIiIhpt2tTeXym8lfU4EHIyq2g/1arphHNpBhsYwA+L4V4le6dOXXew91xBREREw29wnX8KV7qvOQDoQWK4Xal8QqtOKdp73DcsgD25TqnsaGZmL+85g4iIiJaeYvEcRftUBmsMAOkhxHChOiv3adUhpfJEniUKVIl9QV17sffcQURERItLUycfoWRnKdkO/3UFgHmJYaZV9bTxpIcphmvcNyaAhZpVsnPVmXys9zxCRERE86v/H8TB035SuC2DtQSAtAAx3KfO5ItaVU7JPuy+IQEsgd2lZJu1fmKF93xCREREe/zVLffcAirNvqHp4pBWFVM3vNJ/AwIYDvuGkp3sPa8QERHRLp+09XH/tQIADUO0P2pVLXVOPFTRvu2+8QAMV7R/USqe5T3HEBERNT2l8jAlO1PJtrmvDwBoiGaVitWtKqUY3p/BhgMwquuTkp2t6eIo77mGiIioaWlmYvngqT0xfNd9TQBAI3KlehMHtaqQYvlS7voPNIHdMrjR0MzEcu95h4iIqAkp2k8ohkv81wAANGoxvLuVe2q39+XmI0DT2FfVC4X3/ENERFTX1Fv9xMHTedyP+QA0LtF2KoUfbeWcov2q+4YC4OWvddraY73nISIiorp0/3213sV1/kBDxXBJ//GerRxTtzxGMdzpvpEAOOovUOwsnbruYO85iYiIqKppZmYvJTtFyW7wP7YDkCvb2MoxpXCO/8YBkIXBU0DKTn8B4z03ERERVSn1wgsU7XPux3IAykIMt6sXHtHKKcXihdz4D8CD2WfUsed5z1FERES5p154HNf5A9CuRPujVi6p1VqmFC5w3ygAcjWrZFuy++aSiIgog7Spvb9SeYZiuCODYzaAlOkNAbvlCa0cUrd4tfsGAVCNny/F8Ob+00K85y0iIqIcUrJXKdnV7sdoAMpe/9KgVmuZ76TVWbmPkn3DfWMAqI4YrlAq266TFxERkWPqhWcr2qfcj8kAVCnd8ErfyStZdN8IAKophk8ols9wncSIiIjGmDasPnzwtJxkO9yPwwBUPXa522MBtX5ihWK4xn8jAKisGO5TsrPVmTzSZSIjIiIaQ5qZWD54Ok6yG92PvQCqrRu6PhNZso3ubx5AXdw8mFPa7b1dJjQiIqIRpWg/oRguyeBYCyDVwnXqTB4w/ruVDp7z7f7mAdRJtK8oFavHOqERERGNIHWK43isHwCNRHnGeCe0ZG/0f9MA6sv+Sp3Jx451YiMiIhpC6k0cpGTvVAz3+h9PAdTUzTp13cHjvPM/jysBMFrR7layM8c2uRERES2h/uO5+k+5YZ0MQOMQw5vHM7n1wmvd3yyABrFrlewU9+eeEhER7SalcqVSuMD/mAmgOeyG/qX5o/9mM4Yv+79ZAM1jn1csXjjSSY6IiGgBaerkI3isHwB5iUUa7SSXirXubxJAc0XbqWRbtGHt0SOd7IiIiPZ8SWz/iVi3uR8bATSYXd2fj0Y32SX7tP+bBID+gsveONIJj4iIaBcphVIxXJbBsRAApBheM5rJrlse7/7mAOAB7HJFmxzJpEdERPQDqVs+SSls9T/2AUD4vmhfHM2kl+xs9zcHALtk56m35ukjmfyIiKjR3f9Yv8081g+ActW1Fw934jt13cFK9j33NwYAu7d9cCOmzomHDnUCJCKiBj/Wz04Z3Gnb/xgHANqtGP5yuBNgtCn3NwUA8xHtpsGNmdrtvYc6ERIRUWNSKp6vFD7rfkwDgDQPMdyn6eLRw5sEY7jE/U0BwMJcrFi+dGgTIRER1T5NrXvU4GkzKcxmcBwDAM1btLcPZyLs2ovd3wwALM6son1oqN+IEhFR7dL6iRVK4a2K4c4Mjl0AoAWLdv1QnpDFzf8AVJ/dpWRn9m/kNJSVIhER1SalYq2SfcP/WAUAYWliuW5pE2K7ve/c9bQZvBkAWKoYvjW4oVOrtWxoK0ciIqpkimuerBQ+5n5sAoBhifY3S5wY7afc3wQADFsM/6puefzQVpFERFSZlMrDBr8KS7bN/XgEAGmYbJumi6OWMEHa3/q/CQAYBduhGP5Anckjh7qyJCKiLOs/HUbJIr9uBaA6i+H1i/92NIZ73d8AAIxStFuVyjP6lzwNfbVJRERZpG55gpJ93v2YAwBp1OwLi5soe/YL/i8eAMbmUnVt1dBXnURE5Ja65TFK4Rwe6wegUbrF0xY+YabwUfcXDgDjt1Wd4riRrESJiGgs9R+FpWQblex7GRxXAEBj9raFTZq9iYOUwj0ZvHAA8LBdyc7SqesOHtnqlIiIRpJSeaKifSWDYwkAyEUMX1roxNl2f9EA4C3at3lsIBFRNVJv9RMHv+LyPnYAQMpAXPPk+U+gKfyF+wsGgFzEcKF64QUjXbkSEdGi0umrDlSyzdy8GgDCDyjPWMg1U7f4v2AAyEi0nUq2RXHVw0e+miUioj3W/3XW3K9W7Wr3YwQApMzEcOH8JtNUTLi/WADI1uAL0mnNTCwf+eqWiIh2maYmn6sULvA/JgBAyNWsptY9as8TarR3ZPBiASB3X1MvFGNZ6RIR0SBtWH344CatyXZkcBwAAGUtluv3PLFG+5z7CwWA6tiq09YeO5aVLxFRQ9PMzF6Dm7ImuzGDeR8AVBHnPPTkuvGkh/GNKgAslG0b/EeqN3HQ2FbDREQNaXB5agxf8p/rASBUjN3Y/wJ19xNst/xJ/xcJAFVl1/LYQCKi4aRueczg5qv961jd53cACNU0Nfnc3U+00X7f/QUCQNXF8K/qlsePdaVMRFST1G7vq2Qblex77vM5AKSqs7fsfsJN4VL/FwgAdWA7Bl+qblh9+FhXzkREFU7JTlayb/jP4QBQF3be7q//Hzzn2vsFAkDdHhtoG3lsIBHR7tOU/YhS+Kj/nA0AoV5iuHOX61DFco37iwOA2rKv9udZl5U1EVGm6fRVByrZZsVwr/88DQChnmLxnAdPwDHMuL8wAKi/requebzLSpuIKJP6N0sd3DQ12vUZzMsAoFrr2mkPnoij/aP7CwOAJoh2t5KdyWMDiaiJ9e9IrWj/7j4XA0BqiGgfevC3sNFucn9hANAkMXyr/x8wt1U4EdEY09TJRyjZWYObpHrPvwCQGiTaVQ+ckHurn+j+ogCguc5XLJ/htionIhph6qzcR7F4g6LdmsF8CwBqpF54xPcn5hRe4f6CAKDJYrhPyc5WZ/JI15U6EdEQUwo/rhgucZ9jAaDxitU/ODm/zf8FAQCU7EZ1Q1ft9t6uq3YioiWkXnicUvhr/zkVAKA5b/r+JM0EDQB5ifZFxfKlrit4IqIFpnZ7XyXbqBjucJ9HAQD6Ptvy/ck6hsv8XxAAYBe29v+T5rqiJyKaR0rliUr21QzmTQBA+mH2n3OT9ab2/tyNFQByZncp2Watn1jhvcAnIvrh1CmOG3xZ6T5XAgC0W7at/yut/jVaz/Z/MQCAPbNvKNnJ3ot9IqJ+6kweoGjvUAz3+s+PAADtSW/N01vqFT/t/kIAAAvBYwOJyDWlYq1SuDKD+RAAkOYpluv61/+/2f2FAAAW99jAqZOP8D4RIKLmpG75JKXwMfc5EACgBeuFTf0nALzP/YUAABbr5sEdt3lsIBGNMJ2+6sDBvUj4uT8AqMLe21Kyf8rghQAAliLaReoVL/E+SSCiuv7c3652n+cAAFqij/a/ALg8gxcCAFi6WSU7V53Jx3qfMBBR9VNn8ilK4Z8zmNsAAGkovta/BOCeDF4IAGBYYrhDqTxD08V+3icQRFS9tPGkhynZWXP3GslgTgMAaChiuLf/C4Ab3V8IAGD4YrhCqWx7n0wQUTVSq7VMyU5Rshvc5y8AgEbgnv5TAL6cwQsBAIxKDJ8YPPeViGg3KRbPUQoXuM9XAACNjt3S/wLgE/4vBAAwYtsHP+ntnHio94kGEeWTUnnYYG5ItiODeQoAkEbJru3fA+Ac/xcCABiLaDcNHhs4M7OX94kHEfnVnwMGP/eP4bvu8xIAQGMRwxUtRftt9xcCABgz+7y65QneJyFENP4Uixcq2Rf85yEAgMYphi/1fwEw7f5CAAAeZhXtg9qw9mjvExIiGn2Kqx6uGP5k7pGh7vMPACCNm/1T/xcA5v9CAABuYrhTyTbz2ECiuv/cv38JUAZzDgBATj7QUqc4LoMXAgDwFsNl/S+FvU9WiGh4qRd+rP+TT/f5BQCgDLytpXZ7byXblsGLAQDkYatS+QTvExciWnzqrHmkkm3h5/4AAP0Pe93cQSKFr/m/GABANqLdrWhvV2fyAO8TGSKaf5qZWK5e2KRk33OfRwAAysyPzx0sUvjrDF4MACA7dm3/2mHvkxoi2nPq2POUwn/4zxsAAOVnVhtWHz53wEj2lgxeEAAgW/ZJTdkzvU9wiOjB9Rd0SnaWou30nysAAMqSfeP7B46urfJ/QQCArMVwn5Kdrc7kka5nO0Q0SK3WssHd/ZPd6D4/AACUtRg+8kPfHHOTGADAvNysZBv7N5F1PfshanDqhWcr2WcymA8AAJVgb3nggSTaN/1fFACgMmK4UFOTz3U7AyJqYOqceKiivUfJdrjPAQAAVUYsX/rAA0oK57i/KABABS8LCL/F0wKIRp+6xasV7Xr3/R4AoEqJ4XZ1Vu7zwINKChvcXxgAoJr6vyKL5Rq3MyOiGqdu+STF8HH3/RwAoEqK4e8efHDphce5vzAAQMXZuZoujnI5SyKqWdrU3l/JNiuGe/33bQCAKsvirg80KXzd/8UBAKqtf0dyO2XsZ0tENUq9cJKiXeW/PwMAVHWnrT121web/uOdvF8cAKAeYviEUvGssZ85EVW4/iJNKWx1338BAKoH+/zuDzrd8if9XyAAoDai7VQKf6ypdY8a61kUUcXSdLGfUnirot3tvt8CAFQbvbDpoa81i+FO9xcJAKgZu0vJztR0cchYz6qIKpC65cuUwqX++ykAoHb/iOmWxzz0QSiGj7i/UABAXV2naD+vmZm9xnZ2RZRp/V/GKNmHM9gvAQCpls7f88Eolj+TwQsFANTbZ7k/ADU1zUwsVyzeMHgus/++CABIdWWv2/NBqTdxENefAQBGLob7lOys/nFnLGddRBmkjj1PMVzovv8BAFRzt+n0VQfO7+DUf46z/wsGADRBtG+qW4SRn3kROabp4ijF8CdKYdZ9nwMAqAHeO/+DVNdWZfCCAQCNYn+lzppHjvQsjGjMaf3Eiv4dmJXCzf77GABATRHLZ8z/YDUzs5eSfcP9RQMAmuY2de20/jXSIz0rIxrHdf4pbFAM12SwXwEAmuWChR+4kr0lgxcOAGgk+0/1wo+N5MyMaITd/0+UVymFr/nvRwCARuoWr174AawXHqEUtru/eABAk21VZ/KxIzlTIxr6iX/ZVrSvZLDfAACaKoZvqd3ed3EHsxT+wv0NAACaLYY7lOwXF30wIxph6qzcR7E4VTFc4b6vAACQwpsWf1BL4amKtjODNwEAaDy7nKcFUC71v5BSslM48QcAKBcx3K7OiYcu7QAX7e/d3wgAAP+tf1w6be2xQzuTI1pA2tTeX8k2Ktm17vsCAADpB0R719IPdN3yBPc3AgDAA9g2JTtLvYmDhnJWR7SQu/tHe4//PgAAQPhB25VWP2Y4B7tk52XwhgAAeKBoVymFVwzlYEe0gJRCj5slAwCUixj+bHgHuVg8h3sBAACyFe1f1Fvz9KEd+Ijmkbr2YiW7wX38AwDQC88e7kEu2Z+6vykAAHZv++CygOnikKEeAIkeIk0Xj1YMF2Yw/gEATRXtH4d/gJta9yjFcKf7mwMA4KFdp1R2+s9lH/rBkGgXaf3Eiv5PLzMY+wCAJuoVLx/NAS6Ft7m/OQAA5qP/X9luecJIDohEu+j+pwPscB/7AIAGsf9Uq7VsNAe2zuQBc/9Z8X6TAADMx+Bk7H3asPrwkRwYiX4opVAqhjv8xz4AoBG6xatHfGCzN7q/SQAAFiLaTeqGLpcF0DhSKlcqhe+4j3sAQL1F+6Y6K/cZ7UHt9FUHKobvur9ZAAAW7uL+ndtHeqAk6q+XTlt7rJJdnsGYBwDUVS+8djwHtRh+xf3NAgCwOLNKtkW98IixHDSpsWnD2qOV7AsZjHkAQN3EcJlmJpaP54A2XRyiaLe6v2kAABZr8GQb26x2e9+xHDypkak3cVD/8Uzu4x0AoHqxV433gJbCr/m/aQAAluzSkT0+h6i/Zmq391UK52Qw1gEAqQZi+NLY72ukzomHDm6q5P3mAQAYhhg+os7kY8d6MKXG1H9Ek2J4t/s4BwBUXyzX+RzMUniT+5sHAGBo7K7BfW7WT6xwObBS7VMMb/Yf5wAAVZZ92u8gtn5ihWK4xn8jAAAwVF9XKttuB1iqdYrFG+ZuRuk+zgEAqXJ+1Pcg1rNfyGAjAAAwfDF8Qt3iaa4HWqpl6oYuXwIAALQgdm4ON7bZW9G+4r8xAAAYie1KdpZOXXew9zGX6hVfAgAANH/b1S2f1MohdcMrM9ggAACMTrRvK9kp/Zu5eR93qT4plR2+BAAAaM/e28rqzrbJvpDBRgEAYLRi+Fel4lnex16qT3wJAADQQ4nhDm1Ye3QrpxTLNe4bBgCAcYjhPiU7W1MnH+F9/KV6dP89lfgSAACgB4n2q60cG9wsyXvjAAAwPt9RLE7VzMxe3sdgqn5KoceXAAAAPdB1On3Vga0cU7c8XtF2ZrCRAAAYI/uCOpMv8j4OU/VTKs/wH88AAOVjQyvnFMOfZbCRAAAYt1kl26K46uHex2Kqdorh3RmMZwBAchbDl/pP3WvlnLrlMUp2lyuLiCoAACAASURBVPvGAgDAQ7RblWyjZiaWex+TqZoNbq4c7YPuYxkAIF/F6lYVUgq/4b+xAADwZF9V11Z5H5Opmqmzch+l8DH/cQwAkI+traqkU9cdrGQ3ZLDRAADwtlWdycd6H5upeqkzeYCi/XsGYxgAkMbJdqi35umtKqVoU/4bDgCAHPQvjbPNmi728z4+U7XqP2py8GsS9zEMAND4/F6ravWvfVQKl2aw8QAAyEMMVyiF0vsYTdVK08Wjlexq9/ELANDo2fe0Ye3RrSqmXjjJfwMCAJCZaH+vVD7B+zhN1UlT9kzFcLv72AUAaLTsF1tVTimc778RAQDIjW1TsrPUmzjI+1hN1UixXDO4LtR97AIANArRvqn1EytaVU6xeI6i7XTfmAAAZMmuVbJTvI/XVI2UyjP8xywAQKPQDa9s1SFF+5D7xgQAIGfR/kWxfIb3MZvyTyn8sft4BQBoyD6rVmtZqw6pu+bxSuGeDDYqAAA52z64LGC6OMT72E351v95qKJ9LoPxCgBIQzGrrr24VaeU7Dcz2LAAAOQv2vVKZUczM3t5H78pz9RZ80jF8C33sQoA0JJF+1CrbmnjSQ9TtJvcNy4AAFURw4XqhRd4H8MpzzQ1+Vwlu8t9nAIAtHi2TZ3iuFYdUyze4L+BAQCokMGNdG2LpoujvI/jlF9K4efcxygAQItn72zVNbXb+yqFr/tvZAAAKmbwKzqLarf39j6eU14phne7j08AgBYshu+qc+KhrTqnVLbdNzQAANV1sXrFS7yP55RPmplYrmj/nsHYBACkhbDYakJK4QL/jQ0AQGXNKtm5Sqsf431MpzzqjwWlcHMGYxMAkOYh2lf6X+C2mlD/hkZzi5cMNjwAAFUVw51Ktrl/iZ33sZ38UwqvcB+TAADNSzRrNSnF8BH3jQ4AQB3EcJl6ofA+tpN/ivb77uMRAKA9OL/VtJTKJyiGezPY+AAA1MVWddc83vsYT35puthvcJ8I/7EIAEi7Yjs0Zc9sNTHF8Lv+HwAAADUS7e7BZQHrJ1Z4H+fJJ/VWP1Ex3O4+FgEAejA7u9XUlMrDuGENAAAjEMM1SnaK97GefFKyV7mPQQCAHiCGO9RZ88hWk1MMb3b/IAAAqK+Pacp+xPt4T+NP0T6YwfgDAKT7xfArrabX/4mion3T/cMAAKC2bJuSvVO9iYO8j/s0vnTquoMV7Sr/8QcAUP+XeZva+3sfG7JIqWy7fyAAANSeXatY/oz3cZ/Gl7q2ikcvA0AGusWrvY8JWaVkn3b/UAAAaIJon1IqnuV97Kfx1L/hlPuYA4Bm+6xarWXex4OsUiyeo2g7M/hwAACov8Ex17aoM3mk9xqARpumi0OU7Gr3MQcAzTSrrr3Y+1iQZYOFiP8HBABAk9ysZBvVbu/tvQ6g0aVe8XIuBQCAMH7R/tz7GJBt6pbHKIY73T8kAACaJtpF6ky+yHstQKNLKXzAfZwBQJNEu1udycd6z/9Zp2Sb3T8oAACaaXbwa7wNa4/2Xg/Q8ONSAAAIY2abvef+7Os/GoGDEwAAjqLdOrgsYGZiufe6gIYblwIAwLjYtTp91YHe834lUrJT/D8wAAAaLoZLlIoJ73UBDTdF+6D72AKAuovhNd7zfWXqPyJBMVzo/qEBAIC+reqFx3mvD2g4Ka56+NyvPNzHFQDUU7TP8di/Bda/ERE/UQMAIBd21+A+PdPFft5rBFp6iuH1/mMKAGppVr3iJd7zfCVTDB/J4AMEAAD/LYYrlELpvUagpdV/7KOS/af7eAKA+jnHe46vbDpt7bFK4Z4MPkQAAPBAW5XKJ3ivFWjx9f9Dxa8tASAM97F/XDK3tBTD/3H/IAEAwC7YNiU7S72Jg7zXC7S4+v+p8h9HAFAXxmP/lppOXXewol3v/2ECAIBds2v7T/DxXjPQwlMvPEIx3O4/hgCg6ozH/g0rdUPX/wMFAAAPKdq/KJbP8F430MJSsl90HzsAUHWRx/4N90Y1g2cRZ/DBAgCA3YvhvsFlAZ0TD/VeP9D8Uru9r5J91X3sAEBVRbtIMzN7ec/ntUpdW+X+wQIAgPkZXL5np/Ac5GqkbhHcxwwAVNOsUvhR73m8linaP2TwAQMAgPn7D/XCC7zXELTnBpdw+I8XAKiWaB/ynr9rm+KaJyuF7e4fMgAAmL9oO5Vsi6aLo7zXErT71C1P4LGAABDmj8f+jT5Fe4/7Bw0AABbBblGyjf17+3ivJ2jXKYWt/uMEACoi2tu95+3ap1Qepmg3uX/YAABgcaJ9Ub3iJd5rCnpwmrJnzv1iI4NxAgBZMx77N64Uizf4f+AAAGAJZpXsXKXVj/FeV9ADUwrnZDA+ACBzdor3fN2Y1Fm5j1L4mv+HDgAAliSGO5Vss6aL/bzXFzSXTlt7rJJtcx8bAJCryGP/xp5Ssdb9gwcAAMMRw2WKZt7rC5pLMfyB+5gAgFzF8qXe83QjUwwfd//wAQDAMG3t/wfae43R9NRZ80gluyuD8QAAmbEPe8/RjU3d8ngl2+E/CAAAwPDYXYr2q1o/scJ7rdHklMJv+Y8FAMhI5LF/7imG97sPBAAAMHwxXMNNlvxSLzxCKdzjPg4AIBv2695zc+NTXPVwpXCb/2AAAAAjEcMn1C2e5r3maGKK9kfunz8AZMFu0KnrDvael2nuVwC/5D8gAADACG1XsrM0XRzive5oUoprnqxoOzP4/AHAVyzXe8/JdH9qt/dVCl93HxQAAGC0on27f1mAWq1l3uuPpqQY/s79cwcAXxfz2L/MUje8MoOBAQAAxiHap5SKZ3mvP5qQuuUJ7p83AHiKPPYvy5Ts0+6DAwAAjMfgp+m2RZ3JI73XIHVv7guXDD5zABi3GP7Sew6mh/6GetZ9kAAAgPGJ4buK9vP8PHN0qVsE988ZAMbvHnXXPN57DqaHaPCfAP+BAgAAxi2GC/v/DPBei9Sx/j0XFMMl7p8xAIzXb3jPv7SH1C2PUQx3ZjBYAADAuM3dsf6P+48J9l6T1C3F8Br3zxcAxnnT2d7EQd5zL80jxfAr7gMGAAD4iXarUnlG/0lB3uuSmj116Tvuny0AjEMMr/Ged2meaf3ECqVwpfugAQAA3r6mVKz2XpvUJcXwfzL4TAFgxOwL3FemYinZq/wHDgAAyMRW9cLjvNcnVU+pfML9l1l4f54AMCqz6hUv8Z5vaRHxyBoAAPB9dpeSbe7/UtB7jVLllMI/+3+WADAqtsV7nqVFplg8h2+pAQDAA8RwhaJNeq9Tqpqi/ZT7ZwgAI2F3qTP5WO95lpaQYvgT/4EEAADyY+epM/kU77VK1dLMxPLB3bHdPz8AGLIYfsV7jqUlpg1rj1YMt7sPJgAAkCHbpmRn8ainhaVo7/D/7ABgiGK4Rp3JA7znVxpCSvYW9wEFAAAyZtcq2Snea5aq1P+JrJLt8P/cAGBIesVPe8+tNMzn1vav9/MeVAAAIHP2ScXyGd5rlyqkFD7q/3kBwFBcoFZrmfe8SkOMG9YAAIB52q4Y3q3p4hDv9UvOqVv+ZAafFQAske3o3zzee06lETS42Y/7AAMAAJUQ7SYl26iZmb281zA5puliP0W71f1zAoAlsbO951MaUeqWx3O9GgAAWKD/UCxe6L2OyTFF+2AGnw8ALJJ9T73wCO+5lEaYYni//0ADAACVEm2nkm3RdHGU91omp5SK1e6fDQAsVrTTvedRGnGKqx6uFG5zH2wAAKCC7JbBZQHt9t7ea5oc6m8HJbvB/3MBgAWK4Yr+pUze8yiNIcXwZvcBBwAAqivaF9UrXuK9pskhRft9988DABau9J4/abyPBbwsg0EHAACqa1bJzlVa/ZhWg+t/EZLBZwEAC2Dnec+dNObUCyf5DzwAAFB5MdypZJub+lPS/rOzFe0q988BAOYjhvsUy2d4z53kkGL4uPsABAAANWGXK5q1Gpiivct/+wPAPMTwu95zJjmlbvG0wTdA3oMQAADUyVadtvbYVoPS1ORzM9juALAnN2vq5CO850xyTCm8L4OBCAAA6iTa3UrhbdrU3r/VkJTCle7bHQAeWs97riTntGH14YNvgvwHIwAAqJsYvqVkp7QaEP9UAZC5SzUzsdx7rqQMUi9symBAAgCA+jpfvTVPb9U4pWJtBtsZAHajWO09T1ImqbNyH6XwNf9BCQAAamy7kp2l6eKQVg3rX+5w/6UP3tsZAH6I/a33HEmZpRRK/4EJAAAa4Lr+ZQH9x+e1apaS/VMG2xcAfoBtU7d8kvf8SBmmaP/oP0ABAEAjRPuUuuXxrRqlZBvdtysAPIC903tupExTCk+d+3me9yAFAACNEG2nkm1RZ/LIVg1SKp/gvk0B4H/YDXW97IqGlKK9x3+gAgCAhrl58N/zdnvvVsVTsssz2J4A0P8C4HXecyJlnlJ5mKLd5D9YAQBA40S7SCn8aKvCKYbfdd+OAJDCxZqZ2ct7TqQKpBSmMxiwAACgmWYHlwVsWHt0q4Iplmsy2IYAmm1WsXyp93xIFUkzE8uV7L8yGLgAAKCpot2qVJ6hdnvfVtUeB9i/67b39gPQZOd4z4VUsdQrXp7BwAUAAPha/7/qrQqlFD6bwXYD0ETR7lYvPM57HqQKpmj/4D6AAQAA5mytyqJW0d6VwfYC0EQxzHjPgVTR1Fv9RH7CBgAA8mF3KdlmrZ9Y0co4JTvZf1sBaJwYvqXTVx3oPQdShVOy33EfyAAAAD8ohisUbbKVaepMHjl3M8MMthWA5ojlz3jPf1TxtPGkhynZje6DGQAA4EHsPHUmn9LKMCX7qv/2AdAc9hm1Wsu85z6qQYpF8h/QAAAAu7Rdyc7SqesObmWUUvhABtsGQBNE26lUPN973qOapHZ7b8VwifvABgAA2J0YrlEq261MUizXu28TAM0Qw594z3lUs5TCj7sPbAAAgD2yT2rKnpnHzZS9twWA+rPvqbPmkd5zHtUwRfsb/wEOAACwBzHcN7gsoHPioa5rpxSuc98WAOot2ume8xzVOJ229lilcI/7IAcAAJgXu0G98FqvG2Mp2t/7bwMAtRXDZWq39/WY36ghKdo73Ac6AADAwvyHYvHCsa+bUvi1DN47gLrqFmHc8xo1LHUmD1Cyq90HOwAAwILvkm1bFFc9fGzrplS23d83gLr653HNZdTw1C1encGABwAAWAS7Rck29p9yNPI105T9iP/7BVA/tk1xzZNHPYcRDepfR6dkn/Yf+AAAAIsU7YuK5UtHumaamdlLMdzp/l4B1Eu0d41y7iJ6UJqafO7cT+ky2AEAAAAWb6vS6seMbM2U7PMZvEcA9fEd7yecUENTCn+cwQ4AAACwNIP/0ttmTRf7jWC99AH39wegRux1w56niOZV/yY6SuE2/50AAABgGOzyYd9VWzG83v99AaiFaBf1Ly0a5hxFtKCUwpvcdwQAAIDh2qrT1h47lLVSt3xZBu8HQPXNjvq+JUR7TO32vkrhaxnsEAAAAMMT7W4lO1O9iYOWtFbasPpw9/cCoPqi/fnwzuKIlpBSKN13CAAAgFGI9k0lO3mJa6Xr3N8HgOqK4Q51y2OGdwZHtMSUwsfcdwwAAIDROV+9NU9f1Dop2r9n8PoBVJa9ZfhncERLSL3VT1QM9/rvHAAAACOzXcnO0nRxyILWSSmck8FrB1BJ9g2tn1gxujM5okWmGN7tv4MAAACM3HVKdoparWXzWyPZOzJ4zQCqqBdOGv2ZHNEi6n8brmjXu+8kAAAAY2GfV7c8YY9rpGg/7/9aAVTQ+eM5kyNaZOrZL2SwowAAAIxHtJ1KtkWdySN3uz5K5YnurxNAtcRwn6bsmeM9myNaYJqZ2UsxXOi+wwAAAIzXzUq2Ue323g9aH3WK4zJ4fQAqxc7yOaMjWmBK4UeVwqz/TgMAADBm0S7qr4UesDbqrNxHyXa4vzYAVXGzpk4+wu+MjmiBKdmHM9hxAAAAPMwOLgvYsPbo/1kbxXBNBq8LQBV0Q9f3bI5ogWm6eLRiuNN95wEAAPASwx1Ktlnt9r6K9in31wMgf9G+uKtLiYiyTym8zX0HAgAAcGf/pRQu9n8dAPJXTHifxxEtKm1q768UrvTfiQAAAAAgczH8pfc5HNGSUirb7jsSAAAAAOQs2t3qrnm89/kb0ZJTsk+671AAAAAAkKsYZrzP24iGknprnq4Y7nPfqQAAAAAgN/2nhJy+6kDv8zaioaUY/sB9xwIAAACA7JRt7/M1oqGmDasPV7Sb/HcuAAAAAMhEDP+mVmuZ9/ka0dBTDK9338EAAAAAIAu2Q93yeO/zNKKRpJmJ5YrhEv8dDQAAAADcvc/7HI1opKlXvDyDHQ0AAAAAHNkt6kwe6X1+RjTyFO3v/Xc4AAAAAHAz7X1eRjSWlMonKIV7MtjpAAAAAGDcLlVn5T7e52VEY0vJ3pnBjgcAAAAA4xXLNd7nY0RjTb2JgxTt2+47HwAAAACMjf2t97kYkUtKdor/DggAAAAAYxDDveqWT/I+DyNySa3WMkX7nPuOCAAAAACjFu0d3udgRK4plSsVbaf7zggAAAAAI2PX9i+D9j7/InJPMfyZ/w4JAAAAACPzc97nXURZpA1rj1YMt2ewUwIAAADAkNln+pc/e593EWWTYvgl/x0TAAAAAIZocLlz8Xzv8y2irFK7va9iuMx9BwUAAACAobE/9D7XIsoy9cJJ/jsoAAAAAAyD3aLp4ijv8yyibFO0f/TfUQEAAABgyaa9z6+Isk4pPFUpbM9gZwUAAACAxbpUnZX7eJ9fEWWfkp2VwQ4LAAAAAItUrPY+ryKqRErlYUp2o/9OCwAAAAALZed6n1MRVSoli/47LgAAAAAsQLS71V3zeO/zKaJKpZmZvZTsC+47MAAAAADM39u8z6WIKpm69mKlMJvBTgwAAAAAe2BXqzN5gPd5FFFl618/478jAwAAAMAevcL7/Imo0imtfoyS3ZXBzgwAAAAAu3O+97kTUS1StLdnsEMDAAAAwIPFcJ+m7Jne501EtUib2vsr2lXuOzYAAAAAPIj9jvc5E1GtUix/xn/HBgAAAIAH+I42nvQw7/MlotqlaJ/KYAcHAAAAgP+2wfs8iaiWKRbPUbIdGezkAAAAAJou2kWamdnL+zyJqLYphve77+gAAAAAmm5WveIl3udHRLVOcdXDFe3WDHZ4AAAAAI1lf+p9bkTUiJTsjf47PAAAAIBmsu9pat2jvM+LiBqRZiaWK4Yv++/4AAAAABroTd7nRESNSqk8MYMdHwAAAECTxHCFpov9vM+HiBqXUtjqPgEAAAAAaI5o5n0eRNTI1CmOUwz3uk8CAAAAABrA/q/3ORBRo1Oy3/SfCAAAAADUm23TlP2I9/kPUaPTqesOVgrX+U8IAAAAAGrsN7zPfYio/yVALE7NYEIAAAAAUEt2rXoTB3mf9xDR4LGAM3sp2ef9JwYAAAAAtdMLP+t9zkNEP5A6ky9SCrPukwMAAACAOrlArdYy7/MdIvqhlMJfZDBBAAAAAKiDaDvVsed5n+cQ0S5StzxGMdzhPlEAAAAAqIP3eZ/jENFDpBTemsFEAQAAAKDS7BZ1Jo/0Pr8hoodI08V+iuEK/wkDAAAAQGVFm/I+tyGieaQUXuE+YQAAAACophi+rJmJ5d7nNUQ0zxTDx90nDgAAAADV0y1f5n0+Q0QLSN3iaYrhPvfJAwAAAECF2Ie9z2WIaBEphd/zn0AAAAAAVEIMdyqtfoz3eQwRLSKl8jAlu9F9IgEAAACQv2i/7H0OQ0RLSCn03CcSAAAAALn7utZPrPA+fyGiJaR2e29F+2IGEwoAAACAfJXe5y5ENITUtRcrhdkMJhUAAAAA2bH/633OQkRDTNE+5D+xAAAAAMhKDPeqWz7J+3yFiIaYuuUxiuEO9wkGAAAAQEZss/e5ChGNIKXwVv8JBgAAAEAe7GqdvupA7/MUIhpBarf3VQyX+U80AAAAANx1y5/0PkchohGmWK5zn2gAAAAAOLPzvM9NiGgMKYWP+U84AAAAAHzYNnUmn+J9XkJEY0i91U8c3O3TfeIBAAAAMH52pvc5CRGNMUV7l//EAwAAAGCsol2v6eIQ7/MRIhpjOnXdwUrhOvcJCAAAAMD49MLPep+LEJFDiuV69wkIAAAAwHjE8G9qtZZ5n4cQkUP9nX8wCXhPRAAAAABGzHaoWx7vfQ5CRI5pavK5irbTf0ICAAAAMDIx/K73uQcRZZCi/ZH7hAQAAABgVL6jjSc9zPu8g4gySHHVwxXt1gwmJgAAAABDZ6/zPucgooxSLN7gPzEBAAAAGLL/0MzMXt7nG0SUUZqZWK4YLslgggIAAAAwDP17fXXLE7zPNYgowxTtJ9wnKQAAAABDYn/ofY5BRBmnaH/jP1EBAAAAWKKb1Zk80vv8gogyTp3JxyrZXRlMWAAAAAAWzaL3uQURVSBFe7v/hAUAAABgkS5Wu72393kFEVUgbWrvrxSuzGDiAgAAALAws4rlS73PKYioQimV7QwmLwAAAAALEe2D3ucSRFTBFMPH3ScwAAAAAPMTw+3qrHmk93kEEVUwdYunKYXt7hMZAAAAgD2LxRu8zyGIqMIp2nvcJzIAAAAAe3KpOiv38T5/IKIKp1Qephi+m8GEBgAAAGD3ftz73IGIapBS2clgQgMAAACwS/Zh73MGIqpJmpnZS9Eu8p/YAAAAADxADHdouni09zkDEdUodSZfNHimqPcEBwAAAOAH2C96nysQUQ1Tsi3+ExwAAACA+3HjPyIaTdqw9milcFsGEx0AAAAAbvxHRKNM0U7PYKIDAAAAGs62eJ8bEFHN08zEcsVwif+EBwAAADRUDLers+aR3ucGRNSAFO0n3Cc9AAAAoKm6dpr3OQERNSglO9d94gMAAACapv947nZ7b+/zASJqUP1njSqGO90nQAAAAKApou1ULF7ofS5ARA1MKbzVfRIEAAAAGsP+0PscgIgamtrtfRXDZf4TIQAAAFBz0W5SZ/JI73MAImpwiuUa98kQAAAAqD17nffan4iofynAVv8JEQAAAKitC9RqLfNe9xMRtdQpjlMK92QwMQIAAAA1YzvUC8/2XvMTEf1PSvbr/pMjAAAAUDPRftt7rU9E9IC0qb2/UrjSfYIEAAAA6iLa9eqceKj3Wp+I6EGpV/y0+yQJAAAA1Ia9ynuNT0S02xTtH/0nSgAAAKDiYvhXbvxHRFmnbvkkxXCv+4QJAAAAVJZtU2fyKd5reyKiPaZo7/KfNAEAAICKivYO7zU9EdG80qnrDla0b7tPnAAAAEDl2NU6fdWB3mt6IqJ5pxR+zn/yBAAAAKqmWOu9liciWlD9G5YMblziPoECAAAAlfEx73U8EdGiUiyfoRjuy2AiBQAAAPIW7W6dtvZY7zU8EdGiUwrvdZ9MAQAAgPy91XvtTkS0pJTKwxTDdzOYUAEAAIBcfV3rJ1Z4r92JiJacUtiQwaQKAAAA5CnapPeanYhoKGlmZi8l+7z7xAoAAADkJoaPe6/XiYiGmjr2PEXb6T7BAgAAANmwbYprnuy9ViciGnqK9kH/SRYAAADIhb3Te41ORDSStGHt0Yrhdv+JFgAAAPBmN6g3cZD3Gp2IaGQp2un+ky0AAADgLBbJe21ORDTS1Fm5j2K4wn3CBQAAANzY5f11sffanIho5CmVbf9JFwAAAPBStr3X5EREY0mt1jIl+4z/xAsAAACMWQwX9tfD3mtyIqKxpW75MvfJFwAAABi3aD/hvRYnIhp7SuGj7hMwAAAAMDb2Se81OBGRS5qyZyraTv+JGAAAABiLH/degxMRuaVkf5XBRAwAAACMVrR/9157ExG5pm7xNH4FAAAAgNrrFS/3XnsTEbmnGD7iPiEDAAAAI2Of8V5zExFlEfcCAAAAQK31QuG95iYiyial8NfuEzMAAAAwdPZfarWWea+3iYiySb3wbP/JGQAAABiyXnit91qbiCi7lMI/u0/QAAAAwLBE+7ba7X2919lERNmlVKx2n6QBAACAYYnhl7zX2ERE2aYULnafqAEAAICliuFOTZ18hPf6mogo2xTDa9wnawAAAGCpov2+99qaiCjr1Fm5j5Jd7T5hAwAAAEsxZc/0XlsTEWWfov2y+4QNAAAALFa0T3mvqYmIKpHiqocr2Tb3iRsA6iba9Urhs0p23kC0z93/N//XBgB1Eu1/ea+piYgqk1I4x33iBoCqi3arYni/euEkbVh9+G7n3KmTj1CykxXtj5TCbe6vGwCq7TuaLvYb7+qZiKjCqVe8JIPJGwCqKdpVikXSpvb+C55/N7X3V7Qp7scCAItl7xzNCpmIqMYphkv8J3AAqBLbpmhv1/qJFUueg/tfBKTwa1yS9f/Zu/N4Sc+ywPsnO1uQJQjIgMim4k4DI26NQrrrvut0EtSj8jIGJ8176r5P0xMzUcBlPCgjouMyUdEBHV+NDiqjDooMLrgBIrIpkU32ILJGJCCEbH29nzodloR00supcz1V9f19Pt+/T9Wpp677uWt5qgIci0OxPrr/9pwNS9IStfXuVf4QB5gPrbw9+uhh2z6LJ+OHR6/vSL9/APOg1Zds9xyWpKUo1h/9OdHLx9IHOcDglVfFwdHdZjaP9++5S/Tysvz7CTBwrTxhVrNYkha+aOU56YMcYNDKi+OCc86c+Ty+4Jwzt/5W+v0FGKhWPj59A2vW81iSFrZo473pwxxguF66E5v/T83k9dXbRSt/PoD7DTBA5Td3ah5L0kIWm5snR6vvyh/oAMu9+f/UXPYiAMDN26ijnZ7JkrRwRatPTx/oAINSXhwbu++QNpc3dt/B1wEAPkOrH4jN3admzWVJWphiffWL0oc6wGDkbv4/NZu9CADwGcqzsueyJC1M0crf5Q92gOX82P+R8nUAgBtsjB6VPZMlaWGKVr4/fbAD5BrU5v+TeREAoHzQx/8laRuLPr5f/nAHSDPIzf8n8yIAsNx8d/LwmwAAIABJREFU/F+Str1o5dX5Ax5gxw168//JvAgALK/xo7NnsCQtXNHqU/IHPMDyXfDvaHNhQGDptPKvsb7rtOz5K0kLV6yP7p8+5AF2zHxt/j+ZFwGApdLqb2XPXUla2KLV16UPeoDZm4uP/R8pXwcAlkar35k9cyVpYYtenpE+6AFma643/5/MiwDAwmvl+mhnf272vJWkhS3a+OvThz3A7CzE5v+TeREAWGzlZdlzVpIWulhbOyVauSJ/4ANsu4Xa/H8yLwIAC+wHsmesJC180etvDGDgA8SyX/DvaHNhQGAxjXdlz1dJWvhioz42f+ADbJfF3vx/Mi8CAIulfGj6ydTs2SpJC9/0YivR66H8wQ9wwhbyY/9HytcBgIXRyu9mz1RJWpqi1cvSBz/AiVmqzf8n8yIAsBBaOZA9TyVpaYpefiZ98AMcv6Xc/H8yLwIAC+CLs2epJC1N0Uf7BjD4AY7HUm/+P5kXAYA59p5YWTkpe45K0tIUB0d3jFavHcACAHAMluOCf0ebCwMCc6mV52TPT0lauqLXv0lfAACOms3/zeVFAGAOHcyenZK0dEUr/20ACwDA0fCx/1vI1wGA+TLelT03JWnpil6/OX8BALhVNv9HkRcBgLnQysdjfddp2TNTkpau2L/v7umLAMAts/k/hrwIAAxeK3+VPSslaWmLXt+RvhAA3Dyb/+PIiwDAsJVnZM9JSVrapldhzV8IAG7KBf9OJBcGBAZrMn5M9oyUpKVtehXW9IUA4Ma8878N+SQAMEgb9fOz56MkLW3RRl+dvhAAfJrN/zbmRQBgWMqHYmXlpOzZKEnLfXLYy3X5CwKAzf8s8iIAMCB/lj0TJWnpi17eOIAFAVhuNv8zzIsAwCC0+lPZ81CSlr7o5TfTFwRgmdn870BeBADylfOzZ6EkLX3Rx0/OXxCA5eRq/zuZXwcAUk3GX5E9ByVp6Ys23pu+IADLyDv/CfkkAJCilevj8btvkz0DJWnpiwPnfF76ogAsGe/8Z+aTAMDOK2/Lnn2SpBuKVq/MXxiAJeGd/wHkkwDADntB9tyTJN1Q9PrKASwMwOKz+R9QXgQAdkwrP5098yRJNxSt/Hr6wgAsOpv/AeZFAGBHTOoke95Jkm4oWv3B9IUBWGQ2/wPOiwDAzE3Gj8yedZKkG4o+XktfGIBFZfM/B3kRAJitPffOnnOSpBua/i5r/sIALB5X+5+n/DoAMBOtXhtra6dkzzhJ0g3FhefeKX1xABaNd/7nMJ8EAGbgHdmzTZJ0k6LXDw9ggQAWg83/HOdFAGBbtfJX2XNNknSTotXL0hcIYBHY/C9AXgQAtk+5NHumSZJuUrTyh/kLBDDnbP4XKC8CANujPC17nkmSblK08sz8BQKYXy74t4i5MCBw4krLnmWSpJsUffzk/AUCmE82/4ucFwGAEzIZPyZ7jkmSblK08ePTFwhgHvnY/xLk6wDAcZuUr82eYZKkmxStlPQFApg3Nv9LlBcBgOMyGT8we35Jkm5SrJeHpi8QwDyx+V/CvAgAHLP1R39O9uySJN2kWF+9T/oCAcwLm/8lzosAwFFr9RPZM0uSdDPF43ffJn2RAOaAC/7JhQGBo1XenT2vJElHKHr5SP5CAQxWq6/wzr8+2fRYiF5fmX5cAkP2+uxZJUk6QtHrOwawUABD1MrbY331rOw5pWEVB0d3s3YAR9TKy7PnlCTpCEUv/5C+UABDdE2srz4ie0ZpmEUfPSx6uXoAxykwOOVPs2eUJOkIRS8vy18ogOEpT82eTxp20cp/zT9OgcFp5Xez55Mk6QhFL3+UvlAAQ/OO6UVCs+eT5uGXAeq7BnC8AkPS6q9lzydJ0hGKVv93+kIBDEsb9ezZpPkoJuWJ6ccrMDQ/nz2bJElHKFr5/wawUABD0cq/xkVrt82eTZqrTwFcmX7cAkPyk9mzSZJ0hKLXnxvAQgEMRavPzp5Lmq+8kAzcWHlG9lySJB2haPWn8hcKYDA26rnZc0nzVWyMvjX9uAUGpDwtey5Jko7Q9FXa/IUCGIz9e+6SPZc0X8XB0d3Sj1tgQPyKjCQNNj/jBHyG92TPJM1n0eoHBnD8AsPwA9kzSZJ0hKLVzQEsFMAw/E32TNJ8Fq2+YgDHLzAI4ydnzyRJ0hGavkqbv1AAA/En2TNJ81m0+qIBHL/AIJQnZc8kSdIRmg7p/IUCGAgvAOi48gIA8Bl8BUCShtr0Y1oDWCiAYfAVAB1XvgIAfEqrm9kzSZJ0hKLVH0xfKIBhaOW92TNJ81n08sH04xcYih/JnkmSpCM0/amWASwUwFAcOO+u2XNJ81W0sz83/bgFBqT8WPZckiQdoej1R/MXCmA4ynnZc0nzVfTxWv5xCwxH+YnsuSRJOkLR6o/nLxTAgPxS9lzSfBW9/OoAjltgMMol2XNJknSEopWfzl8ogAH5cFy0dtvs2aT5KNZXbxe9fGQAxy0wHP8zezZJko5Q9PrzA1gogCFp5UD2bNJ8FL0eTD9egYEpz82eTZKkIxSt/lr+QgEMS7ncpwB0VO/+t/pP+ccrMCitvDB7PkmSjlD08nvpCwUwRH7GSbdYtPr0ARynwNC0+pLs+SRJOkLRy5+mLxTAEF0T66uPyJ5RGmYxGT88erl6AMcpMDjl77NnlCTpCEWvf5O/UACD1Mrb4+DobtlzSsMq2tmfG628M/34BIaplbdnzylJ0hGKVl+XvlAAQ/bKuOCcM7NnlYbR9FiIXl41gOMSGK4PZ88qSdIRilbfNYCFAhi08uLY2H2H7Hml3KbHwNaxkH48AoN3cHRG9sySJN1M0cvH0hcJYB681CcBlv2K/+XPB3AcAvPg4OjfZc8tSdLNfpRzAIsEMC+8CLCE2fwDx+zA6kOyZ5ck6SZFH98vfYEA5o0XAZYom3/guGzUUfb8kiTdpGijr05fIIB55EWAJcjmHzhurX5n9gyTJN2k6KN96QsEMKdcGHCRc8E/4MSUJ2XPMUnSTYpWnpC/QABzzCcBFjDv/APb4OeyZ5kk6SZFqz84gAUCmGs+CbBIeecf2Bat/kH2PJMk3aRo9dnpCwSwCHwSYAHyzj+wfcrfZ880SdJNilb/OH+BABaEFwHmOJt/YHuVD2XPNUnSTYpe3pi/QAALxIsAc5jNPzATB0d3zJ5vkqTPKHr5WPriACwY1wSYp3znH5iZA+XLsmecJOmGYn31rPSFAVhUPgkwB3nnH5ixb86ec5KkG4r18tABLAzAwvJJgCHnnX9g5lr5/uxZJ0m6oZiMHpe+MACLzicBBph3/oGdUX41e95Jkm4oev2R/IUBWAJeBBhQNv/Ajmnl5dkzT5J0Q9HLc9MXBmBZeBFgANn8AzuqlX/NnnuSpBuKVl+bvjAAS8Q1ATLznX8gxf59d8+ef5K09MXm5snRysfTFwVg2fgkQELe+QfSTMrZ2TNQkpa+eOK+L0hfEIAl5ZMAO5l3/oFUrX5v9hyUpKUvejkvfUEAlplPAuxA3vkHBuA3smehJC190ctTB7AgAMvNiwAzzOYfGIjXZ89DSVr6opXnDWBBAPAiwAyy+QeGo1w3nUnZc1GSlrpo5Z35CwLAFi8CbGM2/8DgTMYPz56NkrS0xYXn3il6PZS+GAB8mhcBtiGbf2CgNrLnoyQtbTEZP3IACwHATfh1gBPJ1f6BwWrl17NnpCQtbdHHT05fCABunk8CHEfe+QcG7q3Zc1KSljYXAAQGzosAx5DNPzAXNuo9suelJC1l0cp70xcBgFvmRYCjyOYfmBsb9dzsmSlJS1esj+6fvgAAHB0vAtxCNv/AfCnPyJ6bkrR0xWT0uPwFAOBouTDgzeWCf8Acemn27JSkpStaeeYAFgCAY+GTAJ+Rd/6BudTqtWa5JO1w0epl6QsAwDHzSYBp3vkH5tpkVLPnqCQtTdHO/tzo9VD68Ac4Pkv9SQDv/AML4CezZ6kkLU3Rxt8xgMEPcCKW8kUAm39gIbTyd9nzVJKWpmj12emDH+DELdWLADb/wAI5FOurZ2XPVUlaiqLVtwxg8ANsg+W4JoDv/AOLp3x79myVpIUv1lfvkz/wAbbVQn8SwDv/wGIql2bPV0la+KKVJ+QPfIDttpifBPDOP7C4ygdjbe2U7DkrSQtd9PL7+QMfYCYW6pMA3vkHFt6kfG32rJWkhS0Ojs6IVj+aPuwBZmchXgSw+QeWQqtPz563krSwxWRU0wc9wOzN9YsANv/A0mj1suyZK0kLW7TyzPRBD7Aj5vOaAL7zDyyf8f2yZ68kLWTR6zvyhzzAjpmrTwJ45x9YTuMnZ89fSVq4oo2+Kn/AA+y0+fgkgHf+geVVXpU9gyVp4Ypefix/wAOkGPQnAbzzDyy9jT0PyJ7FkrRQRatvSR/uAHkG+SKAzT/A1sUAn5I9jyVpYYo+3pU+2AHyDepFAJt/gBu08ursmSxJC5OP/wMM65oAvvMPcBMHyoOyZ7MkLUQ+/g8wnE8CeOcf4OaUp2XNZUlamGIyfnj+QAcYmpxPAnjnH+BIyuWxuXnyTs9lSVqootdfyB/oAIO0o58E8M4/wK3YGD1qp2ayJC1ccXB0RvTyofRhDjBY5cU78SJAHBzd0Tv/ALeilV+f9TyWpIUt+ngtfZADDF0rr471vfec2Sze2Psl0eub0u8nwOCVj01fMJ3VPJakhS56fUH+IAeYB+V90et4W2fw2trp0cr3R69X5d8/gHkxXt/OWSxJS9H03axo9dr8IQ4wR1r9g+ijLz+h+fv43beJNrogen1H+v0BmDet/N32nRFL0pIUvXxf+gAHmFeHL9a3Pw6O7nZUM3d912nR6zdGL5dELx9Mv/0A8+1rZn+2LEkLUqytnRKtvHMAwxtgEbwpWv2t6OXHopcnTT+eGhv1ouj1h6LVX4lW/trH/AG21W9kn09L0twUbXzOAAY3AAAch3J1tLM/N/ucWpLmomjlhfmDGwAAjlOrT8k+p5akwRd9fL9o5fr0oQ0AAMer1X+a/ppK9rm1JA266OUn0gc2AACcuP+QfW4tSYMtLj779tHKFQMY1gAAcGJafW2srJyUfY4tSYMs2ui70wc1AABsl0k5O/scW5KG+dN/vbwtfUgDAMB2afWPs8+zJWlwxUZ9bPqABgCA7XUoJuOvyD7XlqRBFa28egADGgAAtln57exzbUkaTLExelT+YAYAgBmY/sR1G39p9jm3JA2iaPUv0wczAADMjE8BSNJKTMaPzB/IAAAw408BHChfln3uLUmpRS9/kT6QAQBg1lr9rexzb0lKKzbqN6QPYgAA2AmuBSBpmYtW/jx9EAMAwE5p5Q+zz8Elacfz3X8AAJbTaHf2ubgk7VixsnJS9Po3+cMXAAB2WKuvmJ4PZ5+TS9KOFL18e/rgBQCANOO17HNySZp5sb7rtGj1LflDFwAAspQ3T8+Ls8/NJWmmRa8H8wcuAAAk26gXZZ+bS9LMigvOOTN6fX/6sAUAgGytXhn79909+xxdkmZS9PIT6YMWAACGotVfyT5Hl6RtLzb2PCBa/UT6kAUAgOE4FG301dnn6pK0rUWvLxjAgAUAgIEpr4rNzZOzz9claVuKPtqXP1gBAGCgWnlC9jm7JJ1wsbZ2erT6j+lDFQAAhutfYn31rOxzd0k6oaLXHxjAQAUAgKH7pexzd0k67mJ99T7R6r8NYJgCAMCwtXJ9rK8+IvscXpKOq2j1D9IHKQAAzItWL4vN3admn8dL0jEVbXxO+gAFAID5czD7XF6Sjrq4aO220crbBzA8AQBgvrR6ZRw45/Oyz+kl6aiKXn80fXACAMC8auXXs8/pJelWi8n4gdHqJ9KHJgAAzLNWvin73F6SbrFo5YXpwxIAAObf62N912nZ5/eSdLNFG3/HAAYlAAAsiPKk7HN8Sfqs4oJzzoxe3p0/JAEAYFGUj8Vk732zz/Ul6UZFLz+TPyABAGDh/E72ub4kfapo4y+NXq8ZwHAEAIBFNM4+55eklVhZOSla/csBDEUAAFhUb43H775N9rm/pCUv2uiCAQxEAABYbK1uZp/7S1rioo/vHK1+IH0YAgDAomv1E3GgPCh7DyBpSYte/kf6IAQAgKVR/ih7DyBpCYv18tBo5fr8IQgAAEtkMn5M9l5A0hIVm5snRy9/mz78AABg2bT6rtjYfYfsPYGkJSkm5Ynpgw8AAJZWeUb2nkDSEhT79909WvnX/KEHAADLqlwdvX5x9t5A0oIXvVyaP/AAAGDJtfJXsbJyUvb+QNKCFhujr4teD6UPOwAAYPoiwP+TvUeQtIDF+q7TotXXpQ85AADgk94TB0d3zN4rSFqwotXvHcCAAwAAbuwns/cKkhaomIzvFa1+dADDDQAAuLFrYjJ6cPaeQdKCFK08ZwCDDQAAuDmtvih7zyBpAXLhPwAAmAOtfEv23kHSHBdra6dEL3+fPswAAIBb1uq74uKzb5+9h5A0p0WvB9MHGQAAcLR+JHsPIWkOiwPn3TVauWIAQwwAADgarX4iJuMHZu8lJM1Z0covpw8wAADgGJXfz95LSJqjoo93RSvX5w8vAADgmE1GNXtPIWkOis3Nk6OVl6cPLQAA4Pi0+pY4ODoje28haeBFr/vTBxYAAHBiWn1K9t5C0oCLg6M7RivvTR9WAADACSofi/XV+2TvMSQNtGjlZ/MHFQAAsC1aeU72HkPSAIuNvV8SvV6TPqQAAIDtMxk/MnuvIWlgRS9/kT6cAACA7dXq62J912nZ+w1JAyk26mPTBxMAADAbrf6n7D2HpAEU66u3i14uTx9KAADAbLR6ZWzUe2TvPSQlF708I30gAQAAs9XKL2fvPSQlFht7HhCtfiJ9GAEAALPVyvWxUf999h5EUlLR6wvSBxEAALBDyqtic/Pk7H2IpB0uNuq5+QMIAADYYfuz9yKSdrA4ODojennzAIYPAACwk1q5Ig6cd9fsPYmkHSp6/aH0wQMAAORo5Wez9ySSdqDoe+4drf5b+tABAACSlOtiMv6K7L2JpBkXvf5O/sABAABStfqSWFk5KXt/ImlGxcboUemDBgAAGIaN+tjsPYqkGRSbu0+NVi9LHzIAAMAwtPLeODi6Y/ZeRdI2F71+T/qAAQAABqY8I3uvImkbi/377h69fjh/uAAAAMNSro629wuz9yyStqno5dL8wQIAAAzUn2TvWSRtQ9Hr10SvhwYwVAAAgKHaqOdm710knUCxtnZK9Pqa9GECAAAMWytvj4vWbpu9h5F0nEUb9fRBAgAAzIdW/kv2HkbScRQHzrtrtHJF+hABAADmRPlY9D33zt7LSDrGotVfzB8gAADAXGn1t7L3MpKOoWjjL41Wr00fHgAAwPyZjB+ZvaeRdJRFq3+ZPjQAAID51OrrYnP3qdn7Gkm3UrTxd6QPDAAAYL61Uc/e20i6haY/2xGtvDN9WAAAAPPuX2J99azsPY6kIxS9PG0AgwIAAFgMP5+9x5F0M8X66n0O/2xH+pAAAAAWQrkuJuOvyN7rSLpJ0cvv5Q8IAABgobT6klhZOSl7vyPphqKVb0ofDAAAwIIar2XveSRNN/+bu0+NVi/LHwoAAMBCavVdcfHZt8/e+0hLX/RyYfpAAAAAFlx5avbeR1rq4sB5d41WrsgfBgAAwEJr5eMx2Xvf7D2QtLRFq89OHwQAAMByaPV/Z++BpKUs2uirtn6WI3sIAAAAS2S0J3svJC1V05/hiFb+Kv/JDwAALJnXx/qu07L3RNLSFJPR4wbwxAcAAJbRpDwxe08kLUWxvnq76OXy9Cc9AACwpMqHYn31rOy9kbTwRatPz3/CAwAAS63VX8zeG0kLXfTx/aLXq9Kf7AAAwHJr5fpYLw/N3iNJC1v08vvpT3QAAIDDXjq9QHn2PklauKKPHz2AJzgAAMCntfF3ZO+VpIUqNnefGr38Q/qTGwAA4DO1+k9x8dm3z94zSQtT9PKf05/YAAAAN6s8LXvPJC1E0c7+3GjlX/Of1AAAADej1U/EZPzA7L2TNPdFr/8z/QkNAABwi8rvZe+dpLkuDqw+ZOvnNdKfzAAAALeijfdm76GkuWz6cxrR6kvSn8QAAABHo5U3xPqu07L3UtLcFb2cn/4EBgAAOCblwuy9lDRXxQXnnBmt/HP+kxcAAOAYtHplbNR7ZO+ppLkpWv3x9CcuAADA8Wj12dl7KmkuivXR/bd+RiP7SQsAAHA8ti5kPnpY9t5KGnzRyh+mP2EBAABOSHnZ9MLm2fsrabDFpJyd/0QFAADYBpPR47L3WNIgi7W106PXN6U/SQEAALZDK++Ng6M7Zu+1pMEVrX5v+hMUAABgO7X69Oy9ljSopj+TsfVzGdlPTgAAgO00vcD5+uj+2XsuaTBFL7+a/sQEAACYhVael73nkgZRTMYPP/wzGQN4YgIAAMzCpJydvfeSUpv+LEa08vL0JyMAAMAstfKGWN91WvYeTEor2vjx6U9EAACAnXEwew8mpRQbu+8QrfzzAJ6EAAAAO6B8KNZXz8rei0k73vTnMPKfgAAAADuolWdm78WkHS36+H7R61XpTz4AAIAdVa6LPvry7D2ZtGNFq/8n/4kHAACQoJU/z96TSTtStPJN6U84AACAXN+cvTeTZlqsrZ0SrV42gCcbAABAnlbeHo/ffZvsPZo0s2JSnpj+RAMAABiGH8jeo0kzKfr4ztHLBwfwJAMAABiA8rFYX71P9l5N2vai15/Pf4IBAAAMSbk0e68mbWsxGT04Wr02/8kFAAAwKIdiY/R12Xs2aduKVv94AE8sAACA4Wnl1bG5eXL2vk064WIyfkz6EwoAAGDINup3Ze/dpBMq1tZOj17enP5kAgAAGLTyvjg4umP2Hk467qKX78t/IgEAAMyD8mPZezjpuIr1vfeMXj6S/yQChqu8MXp9Zf7tAAAYgFY/Eeuj+2fv5aRjLlr9tfQnEDBw5Y2xsnJS9HJ+9Pr+/NsDAJCsledl7+WkYyr6eFe0cn36kwcY/qvca2unbM2NC8+9U/RyiZ8MBQCWXhvvzd7TSUfV4Xfz6kvTnzTAfNion3+jGbK++kXR65+k3y4AgCytvCHWd52Wt6uTjrIbPsqb/6QB5sPG6FE3P0tG+6KXy9NvHwBAjoM7v5uTjqHY2H2HaOWfB/BkAebFpE6OOFPWV28XvTx166sC2bcTAGBHlQ/F+upZO7ujk46haPXp+U8UYL6Un7jV2bKx5wHRyh/m31YAgB3UyjN3ZicnHWPRx/eLXq9Kf5IA86WV3z36ObP1tYC3pd9mAIAdUa6LPvry2e7kpONoehKf/wQB5k6rlx3TrHn87ttErz8UvXws/bYDAMzen81uFycdR9HKNw3giQHMo+n3+zd3n3rMc2cyvlf0cmn67QcAmL1vns1OTjrGpr/hHa2+dgBPCmBeTUYPPu4Z1Os3Ri//kH4fAABmpZW3Tz8Fub07Oek4ilYOpD8hgPm2UR97QnNoc/ep0cuF0eqV6fcFAGA2fmD7dnHScRR9fOfo5YMDeDIAc6382LbMpI16j+jlWdHK9fn3CQBgO5WPxfrqfbbjnEk6rqLXn8t/IgAL4AXbO5tGD4tWXj6A+wUAsI3Kpdt5ziQdddPv7Eav1+Q/CYD5V9697TNqc/Pk6OX8aPUD+fcPAGBbHIqN0ddt93mTdKtFL380gCcAsCjWV8+a4VeVLjn8O7oDuJ8AACekvGr6Rscszpukmy16OS//wAcWzDfOdG5t1K+MVl8ygPsJAHBiNup3zfK8SfpUcXB0RvT61vSDHlgsG/Wimc+vlZWTtr4W0Ot70u8vAMDxe09ccM6Zsz53kqbv/n/fAA54YNG0+ls7NscuPvv20ctTo9VPpN9vAIDEX1GSjljs33d3v7MNzEa5fMdn2oHyoOj1/+bfdwCAY1Wujsn4gTt9/qQlKnr51fwDHVhYk/G9cmbbaF+08vb0+w8AcCxaeV7GuZOWoJiMHx6tXJ9+kAOLq5VvSZtx66u3i15/JHq9Kv3/AABw1MaPzjp/0oK2deEsV88GZu8n0+dd33Pv6OXSAfwvAABuXStviM3dp2afQ2mBil7/Q/qBDSy+Vv56ZSDFRh1Fq/+Y/j8BALg1rRzIPnfSgnT4Y7Hl8vSDGlh806vyHxydsTKQYn3XadHLhS5+CgAM3L/EgfPumn3upAUoennaAA5oYFls1H+/MrBife89b/hawKH0/w8AwM1p9b9nnzNpzouN+vnRysfTD2ZgebT6vSsDLTbqN0Srr03/HwEAfLZrYn31i7LPlzTHRS+/PYADGVgq5Y9WBlxsbp4cvZwfvXww/38FAPCZyp9mnytpTotev8bHXYGdVz42pOsAHKnYv+cu0csl0ct1+f8zAIAbtFKyz5M0Z229w9XqK9IPXmBZfePKnBQHVh8y/fWCAfzPAACmb6a8cXoh4+xzJM1R0UYX5B+4wNJq5b+uzFGxsnLSDV8LeF/6/w4AoJcLs8+PNCfFBeecGb2+J/+gBZZWKy9fmcPiwnPvFL08I3q5Ov1/CAAssfKhWF89K/vcSHPQ4ZPX7AMWWG7T79WP77wyp0Xb+4XTixnm/x8BgKXVyjOzz4k08KKP7xe9XpV+sAJMxo9ZmfOij/ZFK+9M/18CAEuoXBcHypdlnw9pwEUrv5t/oAJs+YWVBSguPvv20euPRqufGMD/FABYLn+SfS6kgTa96vYADlCAG5R3Ty+ut7Igxfro/tHr8/P/rwDAUmnjc7LPgzSwYm3tlOjl79MPToAbGe9aWbCijx8drbwh/38LACyJt8bB0RnZ50AaUDGpkwEcmAA39SMrC9j0t3mnP88TvXxkAP9jAGDxfU/2+Y8GUhwc3TFaee8ADkqAG2v1tSsLXEzG94peLo1eD6X/rwGABVY+Ehv1HtnnPhpA0epP5R+QAEfwxH1fsLLgRR/tjlYvS/9fAwALrDwr+5xHQ7golStTA4NWLlxZgmJz96mHvxZQP5yVgOH4AAAgAElEQVT/PwcAFk4r1y/i9ZV0DLkiNTB4rfz5yhIVB867a/RyyeFFegD/fwBggZS/yD7XUVIxKWfnH4AAt6LVa2P/nrusLFnRRl8dvb4y/f8PACyab84+z1HGz/75vikwL1p5wsoSFisrJ0Uv50ev709/DACAxdDK2+Pxu2+TfZ6jHSwm5YnpBx7A0VqyrwHctLjw3Dsd/lpAvTb9sQAA5l+rT8k+v9EOFX185+jlg+kHHcDRmn4f/uDo360seTEZf0X08uL0xwMAmG+tfjTW994z+9xGO1C08rPpBxzAsfue7Pk5lKKP9kUvlw/gMQEA5lWrv5J9TqMZF71+cfR6TfrBBnDsXpM9Q4dUrK/eLnp5qp9yBQCOS5v+4tDoYdnnNJph0coL0w80gOO1sfdLsufo0IrJ+IHR6wvSHxsAYA6Vl00vOpx9PqMZFL2O8w8wgBNRnpY9Swf+tYC35T9GAMB8Kd+efR6jbS7Wd50Wvb4p/+ACOAGtvNOr1EcuLlq7bfTxk7cu7JP9WAEA86HVf5p+tTD7PEbbWLTRd6cfWADbYrQ7e6YOvZjsvW+08rv5jxUAMBda+S/Z5y/apmL/nrtEr/+SflABbI//lT1X56Xo9Ruj1dcN4DEDAIaslY/H+up9ss9dtA1Fq7+YfkABbJtydRwc3S17ts7XV8DKhdHqlfmPHQAwXOXS7PMWnWAxGT04Wr02/2AC2E7lP2fP13kr1vfec7qwR6+H8h8/AGCADsWkfG32OYtOoGj1jwdwIAFstze5GODxNf293+jlbwfwGAIAw/M3zrHmtOjlvAEcQAAz4mKAx1tsbp4cvZwfrX4g/3EEAAZlMnpc9rmKjrFYWzs9enlz+sEDMCutPCd71s570cd3jl4uiV6uS388AYCBKO+Oi8++ffZ5io6h6OVJ+QcOwCy5GOB2FW30VdHrS/MfUwBgEFr54ezzEx1lsX/f3V3tGVgKrT4le+YuStPv+x3+WkB5b/rjCgDkan4WcG6KXn8p/YAB2Amt/PP0K0/Zc3eRioOjO0arPxW9XpP++AIAicpvZp+X6FaKjfqVvssJLJU2fnz27F3E4kB5ULTywvTHFwDIcig2Rl+XfU6iWyha/csBHCgAO6fV1/q5mtkVG6NvjV4uT3+cAYCd18rLnWcNtGjlW9IPEIAMk3J29gxe5OKitdtGL0+NXq9Kf6wBgJ018bOAg8vP/gHLrfxR9hxehqLvuXf0cmn+4w0A7JziZwGHlp/9A5beZPwV2bN4WYqN0aOi19enP+YAwE75oezzD93Q9Hewo9cPD+CgAMjT6q9kz+NlKtZ3nRa9XBi9fCT9sQcAZqv5WcDBFK3+YvoBAZCuXG1h2vliMr7X9GeCtq4UnH4MAAAz0+qvZZ93LH0xGT04Wr02/WAAGIZfyJ7Ly1ps1G/Y+kWG/GMAAJiNQzEZPzz7nGOpi1b/eAAHAsBQXBOTvffNns3LWmxunhy9nB+9fHAAxwIAsO3Ky/wsYFLRR/vyDwCAgWn1F7Pn87IX+/fcJXq5JHq5Lv14AAC216R+W/a5xpJefKm+Kf3BBxgenwIYSHFg9SHRyl8P4JgAAPo2afVdsb56u+zzjKUq2ui70x94gMEq/yN7Tutw048J3vC1gPflHxcAQGyHVp+SfY6xNEUf3zlauSL9QQcYrmviifu+IHte69PFhefeKXp5xtavNeQfHwBAPxHlI7G+957Z5xdL0eHvVWY/4ABDV56VPa/12cWB8mXRy1/kHx8AQJyYX8o+r1j4Yn31i7be2cp/sAGGbfoTqZPRg7Pntm7hQratvDP9OAEA4ri0cn308a7sc4qFLnp9QfoDDTAvWnle9tzWkZteQCh6eWr0elX6sQIAxLErf5F9PrGwxcboUfkPMMCc2Rg9Knt+65aLjT0PiF6fn36sAABx7Mp52ecSC1esrZ0SrV6W/+ACzJ3XxObmydlzXLde9PGjo5c3DuCYAQD60Spvi4OjM7LPIxaq6HUj/4EFmFOT0eOy57iOrljfdVr0cmG0+tH04wYAiKPSysXZ5xALUxwc3dHvJwOcgFb/afp98+x5rqMvJuN7RS+Xph87AEDcqlavjP377p59/rAQRa8/mf6AAsy98ZOz57mOvZiMH+krcAAwB1p5ZvZ5w4JcGKlcnf5gAsy/D3tleo6/FrBRL9p6DPOPIwCgH+EnmDf2fkn2ecNcF63+n/QHEmBhlEuz57qOvzhw3l2jl0sO/+5w9rEEAMRNtfqi7POF+f7YY/YDCLBoWvmm7PmuEyvWy0Oj179JP5YAgPgsk1HNPleYu6Y/WRW9vCr9wQNYNK3+o5+qWZh18vzo9f3pxxQAEJ9W3jj9+l72ucJcFa08If+BA1hU5fuy57y2p+jjO299LaCX6/KPKwAgDjuYfY4wN8XG7jtEr+8ZwIMGsJha+Xj08f2y5722r9ioXxm9vDj92AIAInr50PTaPdnnB3NRtPr0/AcMYMG18sLsea/tL/poX/RyefrxBQBLr/xM9nnB4IvJ3vtGr1flP1gAS2Ayfkz23Nf2Fxecc2b08hN+RhcAUl0Tbe8XZp8XDLro5bcH8EABLIv3xP49d8me/ZpNMRk/MHp9wQCOMwBYTq3+Qfb5wGCL9dVHRK+H0h8kgOXyG9nzXzvwtYBW3j6AYw0AltBoT/a5wOCKlZWTope/zX9wAJbQxuhbs9cBzba4aO220cdPjlY/mn68AcByeX1s7j41+1xgUEWr3zmABwZgWb0/Do7ulr0WaKeutVN+bwDHHAAsj0mdZJ8DDOxdCVcsBkjVyvOy1wPtXNHKN0Wrr0s/7gBgGbT6gVh/9Odkr/+DKFrdTH9AAIho4+/IXhO0c8Xa2unR6vdGLx9JP/YAYNG1+vSVZS8OnPN50eq/pT8YAEw/BXBFbNR7ZK8N2tlife89o5dLXYgXAOosXRUb9fNXlrlo9VcG8EAA8EmtvDA2N0/OXh+088XG6Ouilb9LPwYBYHH9xsqyFpPxV0Qr1w/gQQDgRsqTstcI5TR98Sd6OX/ru4rpxyEALJxD0UcPW1nGotc/GcADAMBNtXptTMrXZq8Tyiv277lL9HJJ9HJd+vEIAAulvCxWVk5aWaaildX8fzwAR9Tqu+LAeXfNXi+UW7TRV0WvL00/HgFgkUzGj1lZlmJt7RQ/PQQwF56/dK9Q67OaHgOHvxZQ3juAYxIAFkB5WxwcnbGyDEWvG/n/cACO0sHsdUPDKC4++/bRy1Ojl6sHcFwCwJwrF64senHBOWdGL+/L/2cDcFRa/UQcWH1I9vqh4RQHyoO2fi0i+9gEgLlWPrTwX7eMVn88/x8NwDFp5Z1xcHS37DVEwyr6aF/0+o704xMA5lWrP7WyqEXfc+9o5ePp/2QAjkN5caytnZ69lmhYxfrq7Q5/LaBelX+MAsC8KVfHZPzAlUUsevnN/H8wAMetlZ/NXks0zGJ9dP/o5bnpxygAzJ/fWVm0YjJ+ePR6aAD/XABOyHg9e03RcIuN0aOi19fnH6cAMEfa+OtXFqlo9SXp/1QAtsM1sVG/IXtd0XCL9V2nTa9sHL18ZADHKwDMgfK3C/PTy7Ex+tb8fygA22f6ay577p29vmjYxYFzPi96udQnAAGg3rqN+tiVeW96wajo9a3p/0wAttsr46K122avMxp+MRk/Mlq9bADHLADEgL0jHr/7NivzXPTynwfwjwRgNp4fm7tPzV5rNPymx8n0+hHRyhUDOG4BIIZp/OSVeS36+M4WeoAF1+qzs9cbzU+xf89dopdLopfr0o9dAOhDUz4S+/fdfWUei1b/e/4/EICZa+W/ZK85mq+ij3dFLy9LP3YBoA9MK89cmbeij+8XrX4i/Z8HwE6YXuRtf/bao/lqerXj6OX8wxeVTD+GASCGoVwXG3u/ZGWeil5+L/8fB8DOmX6ku5yXvf5o/ooLz73T1tcCWr02/zgGgDoEz1+Zl2J99RF+8gdgCbXy8ej1a7LXIc1nsb76RdHqH6cfxwDQB2BSzl6Zi4/ztfqK9H8WADla/cDcfWxNwzqP2KiPjV7enX4sA0BP1MrfxebmyStDLnr9D+n/KACyvT8mowdnr0ma32J99XbRy1NdTwiA5Vb+48pQi4vWbhu9XJ7/TwJgAN4TB8qDstcmzXfTYyh6/b8DOJ4BIHZeeff0RfGVIRatfH/+PwiAYS1ao/tnr0+a/6KP9kUvb8s/pgGg7rDyfStDK9ZXz4pWr8z/5wAwKK2+a/rTsNnrlOa/WFs7PXq5MFr9aPpxDQB9p5SPRDv7c1eGVLTys/n/GACGqVweT9z3BdlrlRajmIzvFb1cmn9cA0DdGa3+95WhNH1nJ3q5Ov2fAsCAlbfF+up9stcsLU6xMXpU9Pr6/GMbAOqMTffbA/lEZbT6W/n/EACGr1weG3sekL1uaXGKzd2nbn0toNcP5x/fAFBnp5XnDOGiPA+LXg+l/zMAmA+tvDfa+Euz1y8tVrFR7xG9PCtauT79GAeAPhOHoo935S64rb5oAP8IAObL+6OPvjx1AdNCFuvlodHKywdwjANAbL/yF3mLbCsl/x8AwFxq5Yr0V7G1kMXm5skxqZPDx9gAjnUA6NuojffmLK6tvjb9zgMwzz4ck/Ejd3wR01IU+/fcJXr9hejlugEc6wAQ2+SVsbJy0s4uqr2cP4A7DsC8a/UT0cdrO7qIaamKNvqq6PWl6cc6APTtUs7buYV0fddp0etb8+80AAviULT6vTu2kGnpmr5TMn2hKVp91wCOdwCIE1P+Yfqp/J1ZRDfK/5t/hwFYPOWSHVvMtJTFxWffPnp56uFPnmQf7wBQj9+kftvsF86DozO2fsc5+84CsJha+fXpWjPzBU1LXayvflH0+ifpxzsA9ONV3hhra6fMdsFs5UD+HQVgsZWXxf59d5/pgiZtXdNotC9aeXv+MQ8A9dhtjL51dovk+urtopV/Tr+TACy+Vt4ZffTlM1vUpBuKi9Zue/hrAeXj6cc9APRjUf52dgtkq5v5dxCApdHqR3f0Krda6uLg6N9FL5emH/cA0I/BLH5SOSbje0Wr/5Z+5wBYLq1cH60+Zcd/71ZLW7Tx3uj1TenHPgD0o/KC7V8MvSIOQKry+3HhuXfa9gVOOuJPHpcLo9Ur8499AKi3bKN+5fYtggdWH7L1Dkz2nQJgubX6j3GgfNm2LXDSrRTre+95w5sgh9KPfwDoR9Dqr23f4tfqi9LvEABMTb+OtlEfu22LnHQURRt/ffTy9+nHPwD0m3VN9D33PvEFbzJ++ADuDADcRHlWrK2dvi27O+kois3Nk6OX86OXD+Yf/wBQb6zVnzrxxW76ncvsOwIAN1LevfX97IvWbrstOzvpGIr11bOi1Wf7eiQAMSjlI9HHdz7+BW4yerDFDYDhKJfb+Gso3XCNpL/Of14AQD2sle8//oWt1/+VfgcAoNW3RBtdML0y+7bu4KQTbPrzlLFRvyt6fU/68wQAenlfPH73bY7zqrfTCwlk3wEAltjrYzJ6XKytnTKT3Zu0TU1PtqKP16OXNw/geQPAMmvlCce+kLXy/ek3HIAlVd4Yk/pt04uuzWS3Js3yQoHTY3f6qZX05xEAS6mVvzv2j7P1+tb0Gw7Acmn1XVvvom7uPnVmOzRpB5p+XWXrWG71A+nPKwCWz6R87dEvWn20J/0GA7A8Wrli6+J+B0dnzHRXJu1wsX/PXaKVZ0Yv16U/zwCIJfK/jn6x6vV3BnCDAVh8h6KVX57+rNpMd2FSctFGXxWtvmQAzzkA+jIoV8f+fXe/9QXqgnPOjF6vyr/BACy28vfR69fsyO5LGkjRyre4UCAAsRNafcqtL0wb9bHpNxSAxdXqlVsf9/c9fy3z9QHa6LsPPxcG8JwEIBbU6299UWrldwdwQwFYTM+PvufeO7LLkgbe4Z9cLpdufRUm/7kJQF9AB1YfcgsL0ertotV/S7+RACyY8uZo4707uruS5qToo93Td2nyn6cAxKJp5advYQGq35x+AwFYHNMXlVt9Sqytnb6jOyppzpo+R6KV749ePpb+vAUgFkYr7z3i1y6j1Wen30AAFsXzY7L3vju+k5LmuJiM7xW9PHcAz18A+qIY7b75RaeXt+XfOADm29ZaMt7xnZO0QEUf7YtW3p7/fAYg5l55xmcvNJO9982/YQDMsauilR+Oi9Zum7JjkhasrWsz9fqjW7/lnP/8BqDPqVYv++xFppUnpN8wAObVn0WvX5yyS5IWvNjY84Bo5Q8H8DwHoM+p9dX73HhxaeU56TcKgPnS6ruilW9J2xlJy/a1AF/XBKAfhza64MaLSivvTL9RAMyHVq+NXi6JC845M203JC3rrwX0cmG0+tH0OQBAzI/yPz69mKyvnpV/gwCYC638VbTxl6bugqQl74ZfC7g0fR4AEPOhvOrTi0gb782/QQAM/ndkezk/VlZOSt35SPpUMRk/Mnr5h/T5AEAMW7k6Do7OOLx49PJ9+TcIgGEq10UrPxvrj/6c7M2OpM8u1nedFhv1ouj1w/nzAoAYqvXy0MMLRyu/m35jABig8qqYjB+evcGRdOvFgfPuunVtjlauz58dAMTQTEaPO7xg9Pqm9BsDwHC0csXWz8Nubp6cvamRdGzF+uojtl68y54jAMSgtPqU6dVkT9n6PkD2jQEg39Y7h+XSODi6W/YmRtLxN71Wx9Y1O7au3TGA2QJApGvlmSuxsecB6TcEgHytvsLH/aXFKi4++/bRy1Oj16vSZwwAkez5K7FRRwO4IQDkeU+0+p2u7i8tboff8Cm/P4B5A0BP85qVaPU/DeCGALDzrtm6YNjB0R2zNyeSdqZo5Zui1csGMH8A6DutvHm6EPx0/g0BYGeVP41evzh7MyJp54vN3afGpDwxev2X/FkEQOyUVv9p+gLAc9JvCAA7pLx7emGw7A2IpPyij+98+GcD67X5swmAmLVWrpi+APDn6TcEgBmb/tpLuSQ2dt8he9MhaVhF2/uF0esL8ucUADFT5WPTawC8Lv+GADAzrTwv+vh+2ZsMScMuNuq50etb02cWADEj10w/AXDFAG4IANut1bdEr+PsTYWk+SnWd50WvVwYrV6ZPsMAiO1V3rbid2EBFkyrH40+fnKsrZ2evZmQNJ/FRr1HtPor0cr16TMNgNgWrb5o+hWAf0y/IQBsl+fH+up9sjcPkhajOLD6kOjlxQOYbQD0E1WeNf0KwAvzbwgAJ6a8MfpoT/ZmQdJiFn20L3p9R/6sAyCO2/jJ0xcAnpl/QwA4Lq3869b3dTd3n5q9QZC02MX66u22vl609TWjAcw/AOLYjNemLwBcnH9DADgm0+/ltvLLcXB0t+xNgaTlavo1o+jlt6PXQ+mzEIA4euNd04sAfnP+DQHgqLXy6lhffUT2JkDScheT8cOj179Jn4kAxFG9eXTx2beffqfry9NvDABH4/3R6/7Y3Dw5+8RfkqZN51G08oQb5lP2jASgH0Grbzk8uNfWTo9erk6/QQDcvK2f4SqXxvrqWdkn+5J0c03fVYpenhqtfiJ9ZgIQn6383qeHdi//kH+DAPgsrfzV9JNaqWf2knSUxcaeB0Qvz02fnQDEjbTyw58e1r3+RvoNAuAzlHfHRn1srKyclHo2L0nHUbTx3mjlDfmzFIDYMl779JDu5Un5NwiArY/Ptvr02Nh9h9Szd0k6waY/TxqtHIhePpg+WwGW3frqF316QG/UUfoNAlh65U+j1y9OPWOXpG0uLjz3TtHLM1wfAKDmaPXKG11EOtb33jP9RgEsrfLG6cdlU8/QJWknrg/Q6v/Jn7kAdcmUP/3sodzqu/JvGMASafXftq6afXB0RsrZuCQlFJPxI6PX16TPYIC+hBcA/NQw7uU3028YwHI4tPWzfvv33T3l7FuSkpt+FDV6OT96fc8AZjJALLRWymcP4lb/U/oNA1h8r4z11UeknHFL0sCKi8++/dYnoVr5+ADmM0AsoENx4Ly7fvYAXi8PHcCNA1hU79l6t8vP+knSZxXrq/eJVp5z+BNS6fMaIBZGq/94Cz/VUj+afgMBFss10cslcXB0xx0/o5akOSv66GHR6ksGMLsBYjGUZx156Lby5/k3EGBBtPKHcaA8aEfPniVpzpt+Uio26mOjl8vT5zhAn3OT+m1HHrit/mD6DQSYd62+JVpZ3dEzZklasGJt7fTo5cKt36/OnusAfQ61cn0cHN3tyIN2Mn54+o0EmFd+1k+Str1YXz1r66tUvVyXPucB+hxp5dW3/pMsrX4g/YYCzN/P+j03+p5779gZsSQtWTEZPThaeeEAZj5AzIVWf/zWh2urv5V+QwHmRauviI3673fk7FeStBK9nLf1Vavs+Q/Qh26059aHahtdkH9DAQaulSu2vpu6tnbKjpzxSpI+VazvOi36eD16+WD6egDQB2j6C3+P332bWx+ok/G9/AYrwBFdE73+pJ/1k6ShXB+g/ny0eu0A1geAGI7y3KMfpr2+Mv8GAwxMqy+Kjb1fMtOzWUnSMRdt7xcevhbLANYKgD4AG/WxxzBE61PSbzDAcLw1+nhtpmevkqQTLvr40dHqawewbgBEomviwnPvdPTDczJ+4ABuNECy8rGtn/U7mu9PSZIG0davWvVyfvTyvvx1BKAmKH907MOz1cvybzhAikPRyq/HgXM+byZnp5KkmRfrj/6caOW/RS9XD2BdAYidU9qxD81WN/NvOMAOa+XVsTH6upmcjUqSdrxYX71P9HKpi1wDsQymF0Xdv+/uxz4s2/hL0288wM55f7TyhOlHR2dyBipJSi36aPfWi7z56w1AzNDzT2BQ1tcM4A4AzNI10cvPHNOFUiRJ83t9gI36XdHKPw9g/QGI7Ve+/fiHZC8X5t8BgBlp9Y9jMnrwtp5dSpIGX1x89u23vu7a6r+lr0UAfZu0emVctHbb4x+OB867qwunAAun1bf4WT9J0vRir9HLs6KX69LXJoB+wv7niQ/GVp43gDsCsA3KR6KXJ8XB0RnbcuYoSVqIYqN+ZbT6ovx1CqCeiG888YE4GT9mAHcE4EQc2roC9Ea9x7acKUqSFrLo40f7KWwg5lJ5Y6ysnHTig3Bt7fTo5X35dwjgeJSXRR89bFvODCVJC19s7j41et2IVj+Qv4YB1KPTRt+9fYOwl6el3yGAY7F1hefxup/1kyQdT7Gx+w7Ry1Oj16vS1zSAfgta+Xj08Z23+QIp05/KGsCdA7hF0wuXlkvignPO3LYhKEla2qLvuffW18i2vk6WvcYB1JvzSzMYfuW3B3DHAG7J86OP77ftA1CStPRNv04Wvbx4AGsdQNzYeNf2D702/vr8OwZwM1p97bZc9VSSpFtoeoGtmNRvi1benr72AfStj///9eyGXi+vSr+DAJ/2L9HLhdMLNs1s8EmSdJNifddpW+tPK/86gLUQWGZtfM7shl0v56ffQYBWr936nv92XuxEkqRjLNZXz4pef861soDI0MobZnrB68OvdtZ3pN9RYJn9WRwoXzazQSdJ0jEWB8qDopfnDmCNBJZK+Y+zH3CtHMi/o8DSafUt0cdrMx9ykiQdZ9Pr0USvr0lfM4ElUN4da2unz36wPX73baKV9+bfYWA5lI9EL0+Kg6MzZj7gJEk6waYfx42N+l1bJ+fpayiwwL5n5wbb9GQ8/w4Di+3Q1u8ub9R77NhwkyRpm4r11dtFHz/58AvZ6WsqsEha/UBccM6ZOzfQLjjnzMNX3x7AnQcWUHnZ/9/e/QfZVdZ3HL8xhIoBokJBERARrQNTCo0F0eoOdrN7vs/ZJFjnqh38QRO893nudpuJaWuRdgJ0VKBQijNo6YzYpj8slGLHDO1UbVEqllJbAW2l4UeHQjCIpmFIyE/y6Zxz41gtCdnN7v2ec+77NfP+kxly7vOcffbuOc+jlP3cwG5qAADMEU0uO0EpfFrRnvP/+UpEakIx/Orgb2blN5oV+McTUXOKtlEp78zpbqYAADhQNztdKdzu/rOWiFTv7FGXV2P7ewGEx/wvABHVP9tZHus3yEeZAABwoJSPKob7/X/2EpHq2Uq/G1g3dCtwAYio3q1Xyk91u5EBADBgWjtyWPnEW7JNFfg5TESpLtmG4v7hfPOyDf4XgohqVwz3Fcclud3AAABwps7oIsVwlVLY7v5zmYhU+aK90/u+VZwI8G73C0FEder7SrbK9dtLAAAqRGnspPLkm/IEHPef00SUKli0f2hVgVqteYp2t/sFIaJqF8Pu8j3/lL/M+74FAEAVKWZvUrS73H9mE5Gqle1Rys5sVYW6+TkcbUJEB+gLxe7H3vcqAACqrvzjWsrbSuGhCvz8JqJUiT7ZqpryfFP/C0NEVSqGBxXzZd73JwAA6kbt9uHqhdX9V+cq8DOdiOSTbVZn4thW1SguOU4pbPG/QERUgYp7wa8VixfvexMAAHVWvDqnGK7tH5nr/vOdiNKAizbZqqp931L6XyQi8ql8FcjWaeXS473vRwAANIk6EyezUSDRkBXtbrXb81tVpc7iBUr2TfcLRUQO2R3qhbO870MAADQZGwUSDUu2U73xM1pVV24IWO5S6H3BiGggxfDfSvb+YtMi7/sPAADDQilbWu61470OICLNTXZZqy6U7Dr/C0ZEc1oMW4sbkz4w8mLvew4AAMOo//Rt3lEKT7qvC4hIs5d9u1ZrbK1ZslDRHvG/cEQ0J+/5x3CTOuOv9L7XAACAfRsFpnCNYtjhvk4gIh1atkedifNadaMUzmeTEqKmZf9cyxsSAABDQGnsJDYKJKp9V7TqSil8ugIXkIgOOXtUyd7Ne/4AAFSfeuFcxfCP/usHItK0/9i2eEGrrtQbOVLJNvhfSCKaWbZNya4s5rL3/QQAAEyPUj6qGL7lv54gIh3M/lpx/KdadacU3qwYdrtfUCKaTnuV7Bb1wqu97yEAAGDm2CiQqCZFu7jVFIp2ua0Fb6sAAAueSURBVPsFJaKD7Z+KRwe97xsAAGD2aNXylyrZ1WwUSBSq2K2tJtHakcOU7GsVuLBEtL+ibSz/QrB27Yu87xkAAGBONwq8sTzVx3vtQUQqX5nvjC5qNY062WsVw9P+F5iIfqRoz5ZP6axZstD7PgEAAAZD3fwcJbvTfR1CNOzv/ffGz2g1lXphOceSEFWq9eqOn+J9bwAAAD7YKJAo+BXD+1pNpxiudb/QRMNetH9VzN/qfT8AAABV2ijQNrmvUYiGJruuNTw3GB43InLqCfXCRbznDwAAflzxHrJiuEopbK/AmoWowdkdxe/FrWGhlUuP72845n3hiYYl26lk12sqO9p7/gMAgGrTVHYiGwUShbnqIXUmjm0NG6VsRCnsqsAHQNTsYvhL/crS13jPeQAAUC/q2BsVw5fd1zJEjcmeUm/stNawUsxW+H8IRI3t34ov2rznOQAAaMBGgcm+WYG1DVHNn8gN57eGHZsCEs12tknRLuY9fwAAMKv7eEWbVAzf9V/rENWuvepmF3rP40oofklRtL+uwIdCVPd2le/5d0YXec9rAADQTFqzZKFS/mHF8EwF1j5E9SiGX/eeu5Wi3siRSnav+wdDVNdi+NxQv08EAAAGv1FgtM+wUSBROHDRLveer5WkNHaSkj3u/gER1alo3+BdIgAA4EXd/GcUw9+5r4mIqlgMv+89RytN3ex0Rfue+wdFVPnsKSVbpXZ7vve8BQAA6G8UWGxA7L1GIqpIMfwxe3IdBHUmzlMMW90/MKJqtl3JPq4Vy47ynqsAAAD/b2+vXrhIMTxWgTUTkWP2Wf5QN91vEGPY4f/BEVWq9Ur5qd7zEwAA4EC0un1EuVFgClsqsH4iGnR/prUjh3nPw9pRL/wSm4oQFdnX1Qtv856TAAAA06HJC45Rsiv5wx4NTTH8IY/9HwLFbAVfAtDQFm2jUt7h8SEAAFBn6uavU7JbyrPQvddXRGmOiuFT/PI/C9SzD/IlAA1Xtq04LqQ4Z9d7/gEAAMwWde0tSvY1/7UWUZjdov2u9/xqFJ4EoCFpb/nteHf8FO85BwAAMFeUsqWK4cEKrL2INAtd4z2nGokvAajRxXBP8a249zwDAAAYBHUWLyhfdUy2yX0dRpRmGH/5n1vqhi7vDlGzskfLDS9brXne8wsAAGDQ1Bld1N8o0J71X5cRhWlkH/eeP0NBKUz5f9hEh5ptK3/Y9UaO9J5TAAAA3jSVnahkNyrZHv91GlF4gexq7zkzVJTsN/w/dKIZVLzGEsNNmlx2gvc8AgAAqBrF7Gwl+6L7mo0o7bdLvefJUFIMayvw4RMdfNHuVmfiPO+5AwAAUHVK+aiS3eu+fiNKP8j2FK+ke8+NoaYUPuo/EIheKHtY0d7pPV8AAADqRO32fKWwUske91/P0VAXww7W8xWhlH/YfUAQPV8xbFWyy/SBkRd7zxMAAIC6UmfiJfvW/Fvc13c0fMXwjFI25j0P8H8o2SpOB6DqVGxeYzcqLjnOe24AAAA0hVYuPV4pfFIx7PZf79FwZI9rcuJnvcc+noeS/TK7hpJ7MXxJKTvTez4AAAA0lToTb1Cy29zXfdTw7Ovq5q/yHu84AMV8mVLY7j9YaPiyDUp523sOAAAADAv1wrmK9hX/dSA1rmh/pTVLFnqPcRwEpXC+km12HzQ0JNlm9cJqdRYv8B77AAAAw0jd/B1K4QH/dSE1ohg+prVrX+Q9rjHtx4LCQ+6Dhxqc7VSy67Ry7OXe4x0AAGDYae3IYUoWFe07/utEqme2Td3sQu+xjBkqfjHjkSCao9arN3aa9xgHAADAfk4MiOHpCqwZqVav82bs41V3xfFrivbn/gOKGlEM9yjmb/Ue1wAAADiIEwOi3aAUdrmvIani2W2ayo72HrOYJWq15u07JpDJTzMrhseU8g7vAgEAANSLJu31SnYLR4bTfo7uvow1fqM3BwxP+g80qk3lo2N2iVa3j/AevwAAAJg5xexNSnan+/qSqlG0R9S1t3iPS8yx4hxHRbvLfcBRtYv2nJKtUy+8wnvMAgAAYPYo5aOK4T739SY5Zrco5S/zHosYELXbhyvaJ3gMiPbT7epmp3uPUwAAAMzhiQE9+6CibazA2pMGlm1WN7zLe/zBiaJN8EoA/TC7t/hG2HtcAgAAYJAnBoRLOTFgGLIvKo2d5D3m4ExxyXGK4fP+A5LcKr/5zTtqt+d7j0cAAAAMniYvOEbJrlQMO9zXpjTbbSnX+q3WPO9xhgpRsvcrhq0VGKA0sGxbeaPnyA8AAAD0nwg4Wclu7O8H5b1WpVlovaayE73HFSpKnYk3KIWvVmCg0lxW3NBjuEmTy07wHnMAAACoHnXzc5TsDvd1K820J5TCL3qPI9RAcQakUujxHlBDi+FL6oWzvMcZAAAAqk/dLPT3iarAOpYOpl2K4Vp1Rhd5jx3UjDrjr1QKt1ZgENPs9IBS3vYeVwAAAKiX4t3xYh2pZBsqsKalA/6hb/wM7/GCmisnewyPuQ9ommlPKmapOOrFeywBAACgvtRZvKBcV/YfL/de49IPe0gxX+Y9PtC840GuULRnKzDA6WDqb+h4hVYsO8p7/AAAAKA5tGbJQiW7RNH+x33NO8zF8F0lW6Wp7Ce8xwQaqthBUsnWKYW97gOe9nMjKHZstXXFKxze4wUAAADNpZVjL+8fHcgfCQe73g/PlNed9/wxKErZiGK4x33w049ltxUnOXiPDwAAAAwPdfNX9Y8ODLv918ONbnt/g7+JY70/cwwppXxU0b5Rgckw3EW7W73wNu/xAAAAgOGl7vgp/S8CiidSK7BGbtZf/K8vvmjx/oyB/rGB3exCxfCg++QYtmK4X72w3HsMAAAAAD+gmJ1dPpnKa8OH2pOK9hGtWv5S788U2N+uoCv6x825T5am94Bi/p7iyxfvzx0AAAB4Ppq0n1aym3kiYLrZt5VCT6vbR3h/hsBBPhGQv6N8LN198jSsaI+oFy7iSD8AAADUhbrZ6UrhT5Vsj/t6urLZHsXwufIV61ZrnvdnBsx8s8AU/obHfw6xGO5TCu8tnrLw/kwBAACAmVBv7DQl+4NyMzvv9XVlsk2K4WPqTJzs/fkAsz3ZiyNCvuc/yWrVV5WypXwLCAAAgKbQVPaTSnaZUvh+Bdbbgy+GHUphvVLe5g98aLTiPZZ9+wT8i/vEq2zFo1F2szr2Ru/PCwAAAJgrWrHsKCX7kJI97L8Gn/P2KtpXFO1idUYXeV97YOCU8sWK9olyd0v/CVmBbJui3aBO9lrvzwYAAAAY6B5iKeTlq8PN2jBwl1L4gmKWOMIP2KfY0K4/4e2zivbsEP7i/5SiXV48CuX9WQAAAACeij+GKYVrFO07/uv0GbVFKdxaHpPO8X3AgWkqO1oxvK9/bqhtq8AEnrti+FZ5vMeaJQu9rzsAAABQJWq35yvm40q2TjE8475233/FhoZ/r2gfUS+cW/x/e187oL77BfTCckX7THM2D7SdiuEvitMRvK8vAAAAUAfqTLxE3fAuJfsj/ycDyl37P68YfkvR3l78zuJ9fYBmfgPYy36+fFQ+2l2KYbf/L/PT6t+V7BL1wiu8ryUAAABQV8XpWIrZ2YrhN5XC7XP4hUBxjPl/KdrfKtnV5RcQvfBq738/MMQ7hmZLlex6xXB/f+d891/yf7RoGxXDtcUNyvt6AQAAAE1VbLBX/m4Q7bcVw039jffsPxTD1hc+js8e3rc7/58ohY8qhfeWm5Xzmi5Q8S8EetkvKIVL+2dq2lMOv/A/pxjuUbLfUQpv5v0fAAAAoAJ7jE1ecIxSfqom7fXlL/e9cBZP5gINU07yYg+B8ksBu7l8DH82Xx2I4WnF8GVF+z3F/D3qTBzr/W8GAAAAAAD9vQQOV8rOVLILlOxDinZD+V5PDP+5b4O+4jGgzUrhifJxoP67+3eWjwTFcJVSmCr/227+uuL9I+9/DwAAAACgNS3/Cwx2OVOCEwuGAAAAAElFTkSuQmCC;" vertex="1" parent="1">
          <mxGeometry x="658" y="317" width="30" height="30" as="geometry" />
        </mxCell>
      </root>
    </mxGraphModel>
  </diagram>
</mxfile>
